# MagicaVoxel @ Ephtracy

# group
o 

# material
mtllib Bat_Body.mtl
usemtl palette

# normals
vn -1 0 0
vn 1 0 0
vn 0 0 1
vn 0 0 -1
vn 0 -1 0
vn 0 1 0

# texcoords
vt 0.248047 0.5
vt 0.841797 0.5
vt 0.970703 0.5
vt 0.994141 0.5

# verts
v -0.7 -5.4 -1
v -0.7 -5.4 -1.1
v -0.7 -4.6 -1
v -0.7 -4.6 -1.1
v -0.6 -5.8 -0.6
v -0.6 -5.8 -1.1
v -0.6 -5.4 -1
v -0.6 -5.4 -1.1
v -0.6 -4.6 -0.6
v -0.6 -4.6 -1
v -0.6 -4.4 -0.8
v -0.6 -4.4 -1.1
v -0.6 -4.2 -1.1
v -0.6 -4.2 -1.2
v -0.6 -3.4 -0.8
v -0.6 -3.4 -0.9
v -0.6 -3.4 -1.1
v -0.6 -3.4 -1.2
v -0.6 -3.3 -0.9
v -0.6 -3.3 -1.1
v -0.5 -3.4 -0.8
v -0.5 -3.4 -0.9
v -0.5 -3.4 -1.1
v -0.5 -3.4 -1.2
v -0.5 -3.3 -0.8
v -0.5 -3.3 -0.9
v -0.5 -3.3 -1.1
v -0.5 -3.3 -1.2
v -0.5 -3.2 -0.9
v -0.5 -3.2 -1.1
v -0.4 -6 -0.8
v -0.4 -6 -1
v -0.4 -5.8 -0.8
v -0.4 -5.8 -1
v -0.4 -3.7 -0.8
v -0.4 -3.7 -0.9
v -0.4 -3.4 -0.8
v -0.4 -3.4 -0.9
v -0.2 -4.6 -0.8
v -0.2 -4.6 -1
v -0.2 -4.4 -0.8
v -0.2 -4.4 -1
v 0.2 -6 -0.8
v 0.2 -6 -1
v 0.2 -5.8 -0.8
v 0.2 -5.8 -1
v 0.2 -4 -1
v 0.2 -4 -1.2
v 0.2 -3.8 -1
v 0.2 -3.8 -1.2
v 0.3 -3.8 -0.8
v 0.3 -3.8 -1.2
v 0.3 -3.4 -0.8
v 0.3 -3.4 -0.9
v 0.3 -3.4 -1.1
v 0.3 -3.4 -1.2
v 0.3 -3.3 -0.9
v 0.3 -3.3 -1.1
v 0.4 -3.4 -0.8
v 0.4 -3.4 -0.9
v 0.4 -3.4 -1.1
v 0.4 -3.4 -1.2
v 0.4 -3.3 -0.8
v 0.4 -3.3 -0.9
v 0.4 -3.3 -1.1
v 0.4 -3.3 -1.2
v 0.4 -3.2 -0.9
v 0.4 -3.2 -1.1
v 0.5 -3.7 -0.8
v 0.5 -3.7 -0.9
v 0.5 -3.4 -0.8
v 0.5 -3.4 -0.9
v -0.5 -3.7 -0.8
v -0.5 -3.7 -0.9
v -0.5 -3.4 -0.8
v -0.5 -3.4 -0.9
v -0.4 -3.4 -0.8
v -0.4 -3.4 -0.9
v -0.4 -3.4 -1.1
v -0.4 -3.4 -1.2
v -0.4 -3.3 -0.8
v -0.4 -3.3 -0.9
v -0.4 -3.3 -1.1
v -0.4 -3.3 -1.2
v -0.4 -3.2 -0.9
v -0.4 -3.2 -1.1
v -0.3 -3.8 -0.8
v -0.3 -3.8 -1.2
v -0.3 -3.4 -0.8
v -0.3 -3.4 -0.9
v -0.3 -3.4 -1.1
v -0.3 -3.4 -1.2
v -0.3 -3.3 -0.9
v -0.3 -3.3 -1.1
v -0.2 -6 -0.8
v -0.2 -6 -1
v -0.2 -5.8 -0.8
v -0.2 -5.8 -1
v -0.2 -4 -1
v -0.2 -4 -1.2
v -0.2 -3.8 -1
v -0.2 -3.8 -1.2
v 0.2 -4.6 -0.8
v 0.2 -4.6 -1
v 0.2 -4.4 -0.8
v 0.2 -4.4 -1
v 0.4 -6 -0.8
v 0.4 -6 -1
v 0.4 -5.8 -0.8
v 0.4 -5.8 -1
v 0.4 -3.7 -0.8
v 0.4 -3.7 -0.9
v 0.4 -3.4 -0.8
v 0.4 -3.4 -0.9
v 0.5 -3.4 -0.8
v 0.5 -3.4 -0.9
v 0.5 -3.4 -1.1
v 0.5 -3.4 -1.2
v 0.5 -3.3 -0.8
v 0.5 -3.3 -0.9
v 0.5 -3.3 -1.1
v 0.5 -3.3 -1.2
v 0.5 -3.2 -0.9
v 0.5 -3.2 -1.1
v 0.6 -5.8 -0.6
v 0.6 -5.8 -1.1
v 0.6 -5.4 -1
v 0.6 -5.4 -1.1
v 0.6 -4.6 -0.6
v 0.6 -4.6 -1
v 0.6 -4.4 -0.8
v 0.6 -4.4 -1.1
v 0.6 -4.2 -1.1
v 0.6 -4.2 -1.2
v 0.6 -3.4 -0.8
v 0.6 -3.4 -0.9
v 0.6 -3.4 -1.1
v 0.6 -3.4 -1.2
v 0.6 -3.3 -0.9
v 0.6 -3.3 -1.1
v 0.7 -5.4 -1
v 0.7 -5.4 -1.1
v 0.7 -4.6 -1
v 0.7 -4.6 -1.1
v -0.6 -5.8 -0.6
v -0.6 -4.6 -0.6
v 0.6 -5.8 -0.6
v 0.6 -4.6 -0.6
v -0.6 -4.4 -0.8
v -0.6 -3.4 -0.8
v -0.5 -3.7 -0.8
v -0.5 -3.4 -0.8
v -0.5 -3.3 -0.8
v -0.4 -6 -0.8
v -0.4 -5.8 -0.8
v -0.4 -4.2 -0.8
v -0.4 -4 -0.8
v -0.4 -3.7 -0.8
v -0.4 -3.4 -0.8
v -0.4 -3.3 -0.8
v -0.3 -3.8 -0.8
v -0.3 -3.4 -0.8
v -0.2 -6 -0.8
v -0.2 -5.8 -0.8
v -0.2 -4.6 -0.8
v -0.2 -4.4 -0.8
v -0.2 -4.2 -0.8
v -0.2 -4 -0.8
v -0.0999997 -4.4 -0.8
v -0.0999997 -4.3 -0.8
v 0.1 -4.4 -0.8
v 0.1 -4.3 -0.8
v 0.2 -6 -0.8
v 0.2 -5.8 -0.8
v 0.2 -4.6 -0.8
v 0.2 -4.4 -0.8
v 0.2 -4.2 -0.8
v 0.2 -4 -0.8
v 0.3 -3.8 -0.8
v 0.3 -3.4 -0.8
v 0.4 -6 -0.8
v 0.4 -5.8 -0.8
v 0.4 -4.2 -0.8
v 0.4 -4 -0.8
v 0.4 -3.7 -0.8
v 0.4 -3.4 -0.8
v 0.4 -3.3 -0.8
v 0.5 -3.7 -0.8
v 0.5 -3.4 -0.8
v 0.5 -3.3 -0.8
v 0.6 -4.4 -0.8
v 0.6 -3.4 -0.8
v -0.6 -3.4 -0.9
v -0.6 -3.3 -0.9
v -0.5 -3.7 -0.9
v -0.5 -3.4 -0.9
v -0.5 -3.3 -0.9
v -0.5 -3.2 -0.9
v -0.4 -3.7 -0.9
v -0.4 -3.4 -0.9
v -0.4 -3.3 -0.9
v -0.4 -3.2 -0.9
v -0.3 -3.4 -0.9
v -0.3 -3.3 -0.9
v 0.3 -3.4 -0.9
v 0.3 -3.3 -0.9
v 0.4 -3.7 -0.9
v 0.4 -3.4 -0.9
v 0.4 -3.3 -0.9
v 0.4 -3.2 -0.9
v 0.5 -3.7 -0.9
v 0.5 -3.4 -0.9
v 0.5 -3.3 -0.9
v 0.5 -3.2 -0.9
v 0.6 -3.4 -0.9
v 0.6 -3.3 -0.9
v -0.7 -5.4 -1
v -0.7 -4.6 -1
v -0.6 -5.4 -1
v -0.6 -4.6 -1
v 0.6 -5.4 -1
v 0.6 -4.6 -1
v 0.7 -5.4 -1
v 0.7 -4.6 -1
v -0.4 -6 -1
v -0.4 -5.8 -1
v -0.2 -6 -1
v -0.2 -5.8 -1
v -0.2 -4.6 -1
v -0.2 -4.4 -1
v -0.2 -4 -1
v -0.2 -3.8 -1
v 0.2 -6 -1
v 0.2 -5.8 -1
v 0.2 -4.6 -1
v 0.2 -4.4 -1
v 0.2 -4 -1
v 0.2 -3.8 -1
v 0.4 -6 -1
v 0.4 -5.8 -1
v -0.7 -5.4 -1.1
v -0.7 -4.6 -1.1
v -0.6 -5.8 -1.1
v -0.6 -5.4 -1.1
v -0.6 -4.4 -1.1
v -0.6 -4.2 -1.1
v -0.6 -3.4 -1.1
v -0.6 -3.3 -1.1
v -0.5 -3.4 -1.1
v -0.5 -3.3 -1.1
v -0.5 -3.2 -1.1
v -0.4 -3.4 -1.1
v -0.4 -3.3 -1.1
v -0.4 -3.2 -1.1
v -0.3 -3.4 -1.1
v -0.3 -3.3 -1.1
v 0.3 -3.4 -1.1
v 0.3 -3.3 -1.1
v 0.4 -3.4 -1.1
v 0.4 -3.3 -1.1
v 0.4 -3.2 -1.1
v 0.5 -3.4 -1.1
v 0.5 -3.3 -1.1
v 0.5 -3.2 -1.1
v 0.6 -5.8 -1.1
v 0.6 -5.4 -1.1
v 0.6 -4.4 -1.1
v 0.6 -4.2 -1.1
v 0.6 -3.4 -1.1
v 0.6 -3.3 -1.1
v 0.7 -5.4 -1.1
v 0.7 -4.6 -1.1
v -0.6 -4.2 -1.2
v -0.6 -3.4 -1.2
v -0.5 -3.4 -1.2
v -0.5 -3.3 -1.2
v -0.4 -3.4 -1.2
v -0.4 -3.3 -1.2
v -0.3 -3.8 -1.2
v -0.3 -3.4 -1.2
v -0.2 -4 -1.2
v -0.2 -3.8 -1.2
v 0.2 -4 -1.2
v 0.2 -3.8 -1.2
v 0.3 -3.8 -1.2
v 0.3 -3.4 -1.2
v 0.4 -3.4 -1.2
v 0.4 -3.3 -1.2
v 0.5 -3.4 -1.2
v 0.5 -3.3 -1.2
v 0.6 -4.2 -1.2
v 0.6 -3.4 -1.2
v -0.4 -6 -0.8
v -0.2 -6 -0.8
v 0.2 -6 -0.8
v 0.4 -6 -0.8
v -0.4 -6 -1
v -0.2 -6 -1
v 0.2 -6 -1
v 0.4 -6 -1
v -0.6 -5.8 -0.6
v 0.6 -5.8 -0.6
v -0.4 -5.8 -0.8
v -0.2 -5.8 -0.8
v 0.2 -5.8 -0.8
v 0.4 -5.8 -0.8
v -0.4 -5.8 -1
v -0.2 -5.8 -1
v 0.2 -5.8 -1
v 0.4 -5.8 -1
v -0.6 -5.8 -1.1
v 0.6 -5.8 -1.1
v -0.7 -5.4 -1
v -0.6 -5.4 -1
v 0.6 -5.4 -1
v 0.7 -5.4 -1
v -0.7 -5.4 -1.1
v -0.6 -5.4 -1.1
v 0.6 -5.4 -1.1
v 0.7 -5.4 -1.1
v -0.6 -4.4 -0.8
v -0.2 -4.4 -0.8
v 0.2 -4.4 -0.8
v 0.6 -4.4 -0.8
v -0.2 -4.4 -1
v 0.2 -4.4 -1
v -0.6 -4.4 -1.1
v 0.6 -4.4 -1.1
v -0.6 -4.2 -1.1
v 0.6 -4.2 -1.1
v -0.6 -4.2 -1.2
v 0.6 -4.2 -1.2
v -0.5 -3.4 -0.8
v -0.4 -3.4 -0.8
v 0.4 -3.4 -0.8
v 0.5 -3.4 -0.8
v -0.5 -3.4 -0.9
v -0.4 -3.4 -0.9
v 0.4 -3.4 -0.9
v 0.5 -3.4 -0.9
v -0.6 -4.6 -0.6
v 0.6 -4.6 -0.6
v -0.2 -4.6 -0.8
v 0.2 -4.6 -0.8
v -0.7 -4.6 -1
v -0.6 -4.6 -1
v -0.2 -4.6 -1
v 0.2 -4.6 -1
v 0.6 -4.6 -1
v 0.7 -4.6 -1
v -0.7 -4.6 -1.1
v 0.7 -4.6 -1.1
v -0.2 -4 -1
v 0.2 -4 -1
v -0.2 -4 -1.2
v 0.2 -4 -1.2
v -0.3 -3.8 -0.8
v 0.3 -3.8 -0.8
v -0.2 -3.8 -1
v 0.2 -3.8 -1
v -0.3 -3.8 -1.2
v -0.2 -3.8 -1.2
v 0.2 -3.8 -1.2
v 0.3 -3.8 -1.2
v -0.5 -3.7 -0.8
v -0.4 -3.7 -0.8
v 0.4 -3.7 -0.8
v 0.5 -3.7 -0.8
v -0.5 -3.7 -0.9
v -0.4 -3.7 -0.9
v 0.4 -3.7 -0.9
v 0.5 -3.7 -0.9
v -0.6 -3.4 -0.8
v -0.5 -3.4 -0.8
v -0.4 -3.4 -0.8
v -0.3 -3.4 -0.8
v 0.3 -3.4 -0.8
v 0.4 -3.4 -0.8
v 0.5 -3.4 -0.8
v 0.6 -3.4 -0.8
v -0.6 -3.4 -0.9
v -0.5 -3.4 -0.9
v -0.4 -3.4 -0.9
v -0.3 -3.4 -0.9
v 0.3 -3.4 -0.9
v 0.4 -3.4 -0.9
v 0.5 -3.4 -0.9
v 0.6 -3.4 -0.9
v -0.6 -3.4 -1.1
v -0.5 -3.4 -1.1
v -0.4 -3.4 -1.1
v -0.3 -3.4 -1.1
v 0.3 -3.4 -1.1
v 0.4 -3.4 -1.1
v 0.5 -3.4 -1.1
v 0.6 -3.4 -1.1
v -0.6 -3.4 -1.2
v -0.5 -3.4 -1.2
v -0.4 -3.4 -1.2
v -0.3 -3.4 -1.2
v 0.3 -3.4 -1.2
v 0.4 -3.4 -1.2
v 0.5 -3.4 -1.2
v 0.6 -3.4 -1.2
v -0.5 -3.3 -0.8
v -0.4 -3.3 -0.8
v 0.4 -3.3 -0.8
v 0.5 -3.3 -0.8
v -0.6 -3.3 -0.9
v -0.5 -3.3 -0.9
v -0.4 -3.3 -0.9
v -0.3 -3.3 -0.9
v 0.3 -3.3 -0.9
v 0.4 -3.3 -0.9
v 0.5 -3.3 -0.9
v 0.6 -3.3 -0.9
v -0.6 -3.3 -1.1
v -0.5 -3.3 -1.1
v -0.4 -3.3 -1.1
v -0.3 -3.3 -1.1
v 0.3 -3.3 -1.1
v 0.4 -3.3 -1.1
v 0.5 -3.3 -1.1
v 0.6 -3.3 -1.1
v -0.5 -3.3 -1.2
v -0.4 -3.3 -1.2
v 0.4 -3.3 -1.2
v 0.5 -3.3 -1.2
v -0.5 -3.2 -0.9
v -0.4 -3.2 -0.9
v 0.4 -3.2 -0.9
v 0.5 -3.2 -0.9
v -0.5 -3.2 -1.1
v -0.4 -3.2 -1.1
v 0.4 -3.2 -1.1
v 0.5 -3.2 -1.1

# faces
f 3/4/1 2/4/1 1/4/1
f 4/4/1 2/4/1 3/4/1
f 7/4/1 6/4/1 5/4/1
f 8/4/1 6/4/1 7/4/1
f 9/4/1 7/4/1 5/4/1
f 10/4/1 7/4/1 9/4/1
f 13/4/1 12/4/1 11/4/1
f 15/4/1 13/4/1 11/4/1
f 15/4/1 14/4/1 13/4/1
f 16/4/1 14/4/1 15/4/1
f 17/4/1 14/4/1 16/4/1
f 18/4/1 14/4/1 17/4/1
f 19/4/1 17/4/1 16/4/1
f 20/4/1 17/4/1 19/4/1
f 25/4/1 22/4/1 21/4/1
f 26/4/1 22/4/1 25/4/1
f 27/4/1 24/4/1 23/4/1
f 28/4/1 24/4/1 27/4/1
f 29/4/1 27/4/1 26/4/1
f 30/4/1 27/4/1 29/4/1
f 33/4/1 32/4/1 31/4/1
f 34/4/1 32/4/1 33/4/1
f 37/4/1 36/4/1 35/4/1
f 38/4/1 36/4/1 37/4/1
f 41/4/1 40/4/1 39/4/1
f 42/4/1 40/4/1 41/4/1
f 45/4/1 44/4/1 43/4/1
f 46/4/1 44/4/1 45/4/1
f 49/4/1 48/4/1 47/4/1
f 50/4/1 48/4/1 49/4/1
f 53/4/1 52/4/1 51/4/1
f 54/4/1 52/4/1 53/4/1
f 55/4/1 52/4/1 54/4/1
f 56/4/1 52/4/1 55/4/1
f 57/4/1 55/4/1 54/4/1
f 58/4/1 55/4/1 57/4/1
f 63/4/1 60/4/1 59/4/1
f 64/4/1 60/4/1 63/4/1
f 65/4/1 62/4/1 61/4/1
f 66/4/1 62/4/1 65/4/1
f 67/4/1 65/4/1 64/4/1
f 68/4/1 65/4/1 67/4/1
f 71/4/1 70/4/1 69/4/1
f 72/4/1 70/4/1 71/4/1
f 73/4/2 74/4/2 75/4/2
f 75/4/2 74/4/2 76/4/2
f 77/4/2 78/4/2 81/4/2
f 81/4/2 78/4/2 82/4/2
f 79/4/2 80/4/2 83/4/2
f 83/4/2 80/4/2 84/4/2
f 82/4/2 83/4/2 85/4/2
f 85/4/2 83/4/2 86/4/2
f 87/4/2 88/4/2 89/4/2
f 89/4/2 88/4/2 90/4/2
f 90/4/2 88/4/2 91/4/2
f 91/4/2 88/4/2 92/4/2
f 90/4/2 91/4/2 93/4/2
f 93/4/2 91/4/2 94/4/2
f 95/4/2 96/4/2 97/4/2
f 97/4/2 96/4/2 98/4/2
f 99/4/2 100/4/2 101/4/2
f 101/4/2 100/4/2 102/4/2
f 103/4/2 104/4/2 105/4/2
f 105/4/2 104/4/2 106/4/2
f 107/4/2 108/4/2 109/4/2
f 109/4/2 108/4/2 110/4/2
f 111/4/2 112/4/2 113/4/2
f 113/4/2 112/4/2 114/4/2
f 115/4/2 116/4/2 119/4/2
f 119/4/2 116/4/2 120/4/2
f 117/4/2 118/4/2 121/4/2
f 121/4/2 118/4/2 122/4/2
f 120/4/2 121/4/2 123/4/2
f 123/4/2 121/4/2 124/4/2
f 125/4/2 126/4/2 127/4/2
f 127/4/2 126/4/2 128/4/2
f 125/4/2 127/4/2 129/4/2
f 129/4/2 127/4/2 130/4/2
f 131/4/2 132/4/2 133/4/2
f 131/4/2 133/4/2 135/4/2
f 133/4/2 134/4/2 135/4/2
f 135/4/2 134/4/2 136/4/2
f 136/4/2 134/4/2 137/4/2
f 137/4/2 134/4/2 138/4/2
f 136/4/2 137/4/2 139/4/2
f 139/4/2 137/4/2 140/4/2
f 141/4/2 142/4/2 143/4/2
f 143/4/2 142/4/2 144/4/2
f 147/4/3 146/4/3 145/4/3
f 148/4/3 146/4/3 147/4/3
f 151/4/3 150/4/3 149/4/3
f 152/4/3 150/4/3 151/4/3
f 156/4/3 151/4/3 149/4/3
f 157/4/3 151/4/3 156/4/3
f 158/4/3 151/4/3 157/4/3
f 159/4/3 153/4/3 152/4/3
f 160/4/3 153/4/3 159/4/3
f 161/4/3 158/4/3 157/4/3
f 161/4/3 159/4/3 158/4/3
f 162/4/3 159/4/3 161/4/3
f 163/4/3 155/4/3 154/4/3
f 164/4/3 155/4/3 163/4/3
f 166/4/3 156/4/3 149/4/3
f 167/2/3 157/2/3 156/2/3
f 167/4/3 156/4/3 166/4/3
f 168/4/3 161/4/3 157/4/3
f 168/2/3 157/2/3 167/2/3
f 169/4/3 166/4/3 165/4/3
f 169/4/3 168/4/3 167/4/3
f 169/4/3 167/4/3 166/4/3
f 170/4/3 168/4/3 169/4/3
f 171/4/3 169/4/3 165/4/3
f 171/3/3 170/3/3 169/3/3
f 172/4/3 168/4/3 170/4/3
f 172/3/3 170/3/3 171/3/3
f 175/4/3 171/4/3 165/4/3
f 175/4/3 172/4/3 171/4/3
f 176/4/3 172/4/3 175/4/3
f 177/4/3 168/4/3 172/4/3
f 177/4/3 172/4/3 176/4/3
f 178/4/3 161/4/3 168/4/3
f 178/4/3 168/4/3 177/4/3
f 179/4/3 161/4/3 178/4/3
f 181/4/3 174/4/3 173/4/3
f 182/4/3 174/4/3 181/4/3
f 183/4/3 177/4/3 176/4/3
f 183/2/3 178/2/3 177/2/3
f 184/4/3 180/4/3 179/4/3
f 184/2/3 178/2/3 183/2/3
f 184/4/3 179/4/3 178/4/3
f 185/4/3 180/4/3 184/4/3
f 186/4/3 180/4/3 185/4/3
f 188/4/3 185/4/3 184/4/3
f 188/4/3 184/4/3 183/4/3
f 189/4/3 187/4/3 186/4/3
f 190/4/3 187/4/3 189/4/3
f 191/4/3 188/4/3 183/4/3
f 191/4/3 183/4/3 176/4/3
f 191/4/3 189/4/3 188/4/3
f 192/4/3 189/4/3 191/4/3
f 196/4/3 194/4/3 193/4/3
f 197/4/3 194/4/3 196/4/3
f 199/1/3 196/1/3 195/1/3
f 200/1/3 196/1/3 199/1/3
f 201/4/3 198/4/3 197/4/3
f 202/4/3 198/4/3 201/4/3
f 203/4/3 201/4/3 200/4/3
f 204/4/3 201/4/3 203/4/3
f 208/4/3 206/4/3 205/4/3
f 209/4/3 206/4/3 208/4/3
f 211/1/3 208/1/3 207/1/3
f 212/1/3 208/1/3 211/1/3
f 213/4/3 210/4/3 209/4/3
f 214/4/3 210/4/3 213/4/3
f 215/4/3 213/4/3 212/4/3
f 216/4/3 213/4/3 215/4/3
f 219/4/3 218/4/3 217/4/3
f 220/4/3 218/4/3 219/4/3
f 223/4/3 222/4/3 221/4/3
f 224/4/3 222/4/3 223/4/3
f 225/4/4 226/4/4 227/4/4
f 227/4/4 226/4/4 228/4/4
f 229/4/4 230/4/4 235/4/4
f 235/4/4 230/4/4 236/4/4
f 231/4/4 232/4/4 237/4/4
f 237/4/4 232/4/4 238/4/4
f 233/4/4 234/4/4 239/4/4
f 239/4/4 234/4/4 240/4/4
f 241/4/4 242/4/4 244/4/4
f 247/4/4 248/4/4 249/4/4
f 249/4/4 248/4/4 250/4/4
f 250/4/4 251/4/4 253/4/4
f 253/4/4 251/4/4 254/4/4
f 252/4/4 253/4/4 255/4/4
f 255/4/4 253/4/4 256/4/4
f 257/4/4 258/4/4 259/4/4
f 259/4/4 258/4/4 260/4/4
f 260/4/4 261/4/4 263/4/4
f 263/4/4 261/4/4 264/4/4
f 243/4/4 244/4/4 265/4/4
f 244/4/4 242/4/4 266/4/4
f 265/4/4 244/4/4 266/4/4
f 245/4/4 246/4/4 267/4/4
f 267/4/4 246/4/4 268/4/4
f 262/4/4 263/4/4 269/4/4
f 269/4/4 263/4/4 270/4/4
f 266/4/4 242/4/4 271/4/4
f 271/4/4 242/4/4 272/4/4
f 273/4/4 274/4/4 275/4/4
f 273/4/4 275/4/4 277/4/4
f 275/4/4 276/4/4 277/4/4
f 277/4/4 276/4/4 278/4/4
f 273/4/4 277/4/4 279/4/4
f 279/4/4 277/4/4 280/4/4
f 273/4/4 279/4/4 281/4/4
f 281/4/4 279/4/4 282/4/4
f 273/4/4 281/4/4 283/4/4
f 283/4/4 284/4/4 285/4/4
f 285/4/4 286/4/4 287/4/4
f 285/4/4 287/4/4 289/4/4
f 287/4/4 288/4/4 289/4/4
f 289/4/4 288/4/4 290/4/4
f 273/4/4 283/4/4 291/4/4
f 283/4/4 285/4/4 291/4/4
f 285/4/4 289/4/4 291/4/4
f 291/4/4 289/4/4 292/4/4
f 297/4/5 294/4/5 293/4/5
f 298/4/5 294/4/5 297/4/5
f 299/4/5 296/4/5 295/4/5
f 300/4/5 296/4/5 299/4/5
f 303/4/5 302/4/5 301/4/5
f 304/4/5 302/4/5 303/4/5
f 305/4/5 302/4/5 304/4/5
f 306/4/5 302/4/5 305/4/5
f 307/4/5 303/4/5 301/4/5
f 308/4/5 305/4/5 304/4/5
f 309/4/5 305/4/5 308/4/5
f 310/4/5 302/4/5 306/4/5
f 311/4/5 309/4/5 308/4/5
f 311/4/5 310/4/5 309/4/5
f 311/4/5 307/4/5 301/4/5
f 311/4/5 308/4/5 307/4/5
f 312/4/5 302/4/5 310/4/5
f 312/4/5 310/4/5 311/4/5
f 317/4/5 314/4/5 313/4/5
f 318/4/5 314/4/5 317/4/5
f 319/4/5 316/4/5 315/4/5
f 320/4/5 316/4/5 319/4/5
f 325/4/5 322/4/5 321/4/5
f 326/4/5 324/4/5 323/4/5
f 327/4/5 325/4/5 321/4/5
f 327/4/5 326/4/5 325/4/5
f 328/4/5 324/4/5 326/4/5
f 328/4/5 326/4/5 327/4/5
f 331/4/5 330/4/5 329/4/5
f 332/4/5 330/4/5 331/4/5
f 337/4/5 334/4/5 333/4/5
f 338/4/5 334/4/5 337/4/5
f 339/4/5 336/4/5 335/4/5
f 340/4/5 336/4/5 339/4/5
f 341/4/6 342/4/6 343/4/6
f 343/4/6 342/4/6 344/4/6
f 341/4/6 343/4/6 346/4/6
f 346/4/6 343/4/6 347/4/6
f 344/4/6 342/4/6 348/4/6
f 348/4/6 342/4/6 349/4/6
f 346/4/6 347/4/6 351/4/6
f 349/4/6 350/4/6 351/4/6
f 348/4/6 349/4/6 351/4/6
f 347/4/6 348/4/6 351/4/6
f 345/4/6 346/4/6 351/4/6
f 351/4/6 350/4/6 352/4/6
f 353/4/6 354/4/6 355/4/6
f 355/4/6 354/4/6 356/4/6
f 357/4/6 358/4/6 359/4/6
f 359/4/6 358/4/6 360/4/6
f 357/4/6 359/4/6 361/4/6
f 361/4/6 359/4/6 362/4/6
f 360/4/6 358/4/6 363/4/6
f 363/4/6 358/4/6 364/4/6
f 365/4/6 366/4/6 369/4/6
f 369/4/6 366/4/6 370/4/6
f 367/4/6 368/4/6 371/4/6
f 371/4/6 368/4/6 372/4/6
f 373/4/6 374/4/6 381/4/6
f 381/4/6 374/4/6 382/4/6
f 375/4/6 376/4/6 383/4/6
f 383/4/6 376/4/6 384/4/6
f 377/4/6 378/4/6 385/4/6
f 385/4/6 378/4/6 386/4/6
f 379/4/6 380/4/6 387/4/6
f 387/4/6 380/4/6 388/4/6
f 389/4/6 390/4/6 397/4/6
f 397/4/6 390/4/6 398/4/6
f 391/4/6 392/4/6 399/4/6
f 399/4/6 392/4/6 400/4/6
f 393/4/6 394/4/6 401/4/6
f 401/4/6 394/4/6 402/4/6
f 395/4/6 396/4/6 403/4/6
f 403/4/6 396/4/6 404/4/6
f 405/4/6 406/4/6 410/4/6
f 410/4/6 406/4/6 411/4/6
f 407/4/6 408/4/6 414/4/6
f 414/4/6 408/4/6 415/4/6
f 409/4/6 410/4/6 417/4/6
f 417/4/6 410/4/6 418/4/6
f 411/4/6 412/4/6 419/4/6
f 419/4/6 412/4/6 420/4/6
f 413/4/6 414/4/6 421/4/6
f 421/4/6 414/4/6 422/4/6
f 415/4/6 416/4/6 423/4/6
f 423/4/6 416/4/6 424/4/6
f 418/4/6 419/4/6 425/4/6
f 425/4/6 419/4/6 426/4/6
f 422/4/6 423/4/6 427/4/6
f 427/4/6 423/4/6 428/4/6
f 429/4/6 430/4/6 433/4/6
f 433/4/6 430/4/6 434/4/6
f 431/4/6 432/4/6 435/4/6
f 435/4/6 432/4/6 436/4/6
