# MagicaVoxel @ Ephtracy

# group
o 

# material
mtllib Wings.mtl
usemtl palette

# normals
vn -1 0 0
vn 1 0 0
vn 0 0 1
vn 0 0 -1
vn 0 -1 0
vn 0 1 0

# texcoords
vt 0.248047 0.5
vt 0.990234 0.5
vt 0.994141 0.5

# verts
v -3.2 -5 -1
v -3.2 -5 -1.2
v -3.2 -4.8 -1
v -3.2 -4.8 -1.2
v -3 -4.8 -1
v -3 -4.8 -1.2
v -3 -4.6 -1
v -3 -4.6 -1.2
v -2.8 -4.6 -1
v -2.8 -4.6 -1.2
v -2.8 -4.4 -1
v -2.8 -4.4 -1.2
v -2.6 -4.4 -1
v -2.6 -4.4 -1.2
v -2.6 -4.2 -1
v -2.6 -4.2 -1.2
v -2.4 -4.2 -1
v -2.4 -4.2 -1.2
v -2.4 -4 -1
v -2.4 -4 -1.2
v -1.8 -4 -1
v -1.8 -4 -1.2
v -1.8 -3.8 -1
v -1.8 -3.8 -1.2
v -1.2 -3.8 -1
v -1.2 -3.8 -1.2
v -1.2 -3.6 -1
v -1.2 -3.6 -1.2
v -0.8 -5.4 -1
v -0.8 -5.4 -1.2
v -0.8 -5 -1
v -0.8 -5 -1.2
v 0.7 -5.4 -1
v 0.7 -5.4 -1.2
v 0.7 -4.6 -1
v 0.7 -4.6 -1.2
v 0.8 -4.6 -1
v 0.8 -4.6 -1.2
v 0.8 -3.6 -1
v 0.8 -3.6 -1.2
v -0.8 -4.6 -1
v -0.8 -4.6 -1.2
v -0.8 -3.6 -1
v -0.8 -3.6 -1.2
v -0.7 -5.4 -1
v -0.7 -5.4 -1.2
v -0.7 -4.6 -1
v -0.7 -4.6 -1.2
v 0.8 -5.4 -1
v 0.8 -5.4 -1.2
v 0.8 -5 -1
v 0.8 -5 -1.2
v 1.2 -3.8 -1
v 1.2 -3.8 -1.2
v 1.2 -3.6 -1
v 1.2 -3.6 -1.2
v 1.8 -4 -1
v 1.8 -4 -1.2
v 1.8 -3.8 -1
v 1.8 -3.8 -1.2
v 2.4 -4.2 -1
v 2.4 -4.2 -1.2
v 2.4 -4 -1
v 2.4 -4 -1.2
v 2.6 -4.4 -1
v 2.6 -4.4 -1.2
v 2.6 -4.2 -1
v 2.6 -4.2 -1.2
v 2.8 -4.6 -1
v 2.8 -4.6 -1.2
v 2.8 -4.4 -1
v 2.8 -4.4 -1.2
v 3 -4.8 -1
v 3 -4.8 -1.2
v 3 -4.6 -1
v 3 -4.6 -1.2
v 3.2 -5 -1
v 3.2 -5 -1.2
v 3.2 -4.8 -1
v 3.2 -4.8 -1.2
v -3.2 -5 -1
v -3.2 -4.8 -1
v -3 -5 -1
v -3 -4.8 -1
v -3 -4.6 -1
v -2.9 -4.9 -1
v -2.9 -4.8 -1
v -2.8 -5 -1
v -2.8 -4.9 -1
v -2.8 -4.8 -1
v -2.8 -4.6 -1
v -2.8 -4.4 -1
v -2.7 -4.9 -1
v -2.7 -4.8 -1
v -2.6 -5 -1
v -2.6 -4.9 -1
v -2.6 -4.7 -1
v -2.6 -4.6 -1
v -2.6 -4.5 -1
v -2.6 -4.4 -1
v -2.6 -4.2 -1
v -2.5 -4.8 -1
v -2.5 -4.7 -1
v -2.5 -4.6 -1
v -2.5 -4.5 -1
v -2.4 -4.9 -1
v -2.4 -4.8 -1
v -2.4 -4.7 -1
v -2.4 -4.6 -1
v -2.4 -4.5 -1
v -2.4 -4.4 -1
v -2.4 -4.2 -1
v -2.4 -4 -1
v -2.3 -5 -1
v -2.3 -4.9 -1
v -2.3 -4.8 -1
v -2.3 -4.7 -1
v -2.3 -4.6 -1
v -2.3 -4.5 -1
v -2.2 -5 -1
v -2.2 -4.8 -1
v -2.2 -4.7 -1
v -2.2 -4.6 -1
v -2.2 -4.5 -1
v -2.2 -4.4 -1
v -2.1 -4.8 -1
v -2.1 -4.7 -1
v -2.1 -4.6 -1
v -2.1 -4.5 -1
v -2 -4.9 -1
v -2 -4.8 -1
v -2 -4.7 -1
v -2 -4.6 -1
v -2 -4.3 -1
v -2 -4.2 -1
v -1.9 -5 -1
v -1.9 -4.9 -1
v -1.9 -4.8 -1
v -1.9 -4.7 -1
v -1.9 -4.4 -1
v -1.9 -4.3 -1
v -1.8 -5 -1
v -1.8 -4.8 -1
v -1.8 -4.5 -1
v -1.8 -4.4 -1
v -1.8 -4.3 -1
v -1.8 -4.2 -1
v -1.8 -4 -1
v -1.8 -3.8 -1
v -1.7 -4.6 -1
v -1.7 -4.5 -1
v -1.7 -4.4 -1
v -1.7 -4.3 -1
v -1.6 -4.7 -1
v -1.6 -4.6 -1
v -1.6 -4.5 -1
v -1.6 -4.4 -1
v -1.5 -4.8 -1
v -1.5 -4.7 -1
v -1.5 -4.6 -1
v -1.5 -4.5 -1
v -1.5 -4.2 -1
v -1.5 -4 -1
v -1.4 -4.9 -1
v -1.4 -4.8 -1
v -1.4 -4.7 -1
v -1.4 -4.6 -1
v -1.4 -4.3 -1
v -1.4 -4.2 -1
v -1.4 -4.1 -1
v -1.4 -4 -1
v -1.3 -5 -1
v -1.3 -4.9 -1
v -1.3 -4.8 -1
v -1.3 -4.7 -1
v -1.3 -4.4 -1
v -1.3 -4.3 -1
v -1.3 -4.2 -1
v -1.3 -4.1 -1
v -1.2 -5 -1
v -1.2 -4.8 -1
v -1.2 -4.5 -1
v -1.2 -4.4 -1
v -1.2 -4.3 -1
v -1.2 -4.2 -1
v -1.2 -3.8 -1
v -1.2 -3.6 -1
v -1.1 -4.6 -1
v -1.1 -4.5 -1
v -1.1 -4.4 -1
v -1.1 -4.3 -1
v -1 -5 -1
v -1 -4.6 -1
v -1 -4.4 -1
v -1 -4 -1
v -0.8 -5.4 -1
v -0.8 -5 -1
v -0.8 -4.6 -1
v -0.8 -3.6 -1
v -0.7 -5.4 -1
v -0.7 -4.6 -1
v 0.7 -5.4 -1
v 0.7 -4.6 -1
v 0.8 -5.4 -1
v 0.8 -5 -1
v 0.8 -4.6 -1
v 0.8 -3.6 -1
v 1 -5 -1
v 1 -4.6 -1
v 1 -4.4 -1
v 1 -4 -1
v 1.1 -4.6 -1
v 1.1 -4.5 -1
v 1.1 -4.4 -1
v 1.1 -4.3 -1
v 1.2 -5 -1
v 1.2 -4.8 -1
v 1.2 -4.5 -1
v 1.2 -4.4 -1
v 1.2 -4.3 -1
v 1.2 -4.2 -1
v 1.2 -3.8 -1
v 1.2 -3.6 -1
v 1.3 -5 -1
v 1.3 -4.9 -1
v 1.3 -4.8 -1
v 1.3 -4.7 -1
v 1.3 -4.4 -1
v 1.3 -4.3 -1
v 1.3 -4.2 -1
v 1.3 -4.1 -1
v 1.4 -4.9 -1
v 1.4 -4.8 -1
v 1.4 -4.7 -1
v 1.4 -4.6 -1
v 1.4 -4.3 -1
v 1.4 -4.2 -1
v 1.4 -4.1 -1
v 1.4 -4 -1
v 1.5 -4.8 -1
v 1.5 -4.7 -1
v 1.5 -4.6 -1
v 1.5 -4.5 -1
v 1.5 -4.2 -1
v 1.5 -4 -1
v 1.6 -4.7 -1
v 1.6 -4.6 -1
v 1.6 -4.5 -1
v 1.6 -4.4 -1
v 1.7 -4.6 -1
v 1.7 -4.5 -1
v 1.7 -4.4 -1
v 1.7 -4.3 -1
v 1.8 -5 -1
v 1.8 -4.8 -1
v 1.8 -4.5 -1
v 1.8 -4.4 -1
v 1.8 -4.3 -1
v 1.8 -4.2 -1
v 1.8 -4 -1
v 1.8 -3.8 -1
v 1.9 -5 -1
v 1.9 -4.9 -1
v 1.9 -4.8 -1
v 1.9 -4.7 -1
v 1.9 -4.4 -1
v 1.9 -4.3 -1
v 2 -4.9 -1
v 2 -4.8 -1
v 2 -4.7 -1
v 2 -4.6 -1
v 2 -4.3 -1
v 2 -4.2 -1
v 2.1 -4.8 -1
v 2.1 -4.7 -1
v 2.1 -4.6 -1
v 2.1 -4.5 -1
v 2.2 -5 -1
v 2.2 -4.8 -1
v 2.2 -4.7 -1
v 2.2 -4.6 -1
v 2.2 -4.5 -1
v 2.2 -4.4 -1
v 2.3 -5 -1
v 2.3 -4.9 -1
v 2.3 -4.8 -1
v 2.3 -4.7 -1
v 2.3 -4.6 -1
v 2.3 -4.5 -1
v 2.4 -4.9 -1
v 2.4 -4.8 -1
v 2.4 -4.7 -1
v 2.4 -4.6 -1
v 2.4 -4.5 -1
v 2.4 -4.4 -1
v 2.4 -4.2 -1
v 2.4 -4 -1
v 2.5 -4.8 -1
v 2.5 -4.7 -1
v 2.5 -4.6 -1
v 2.5 -4.5 -1
v 2.6 -5 -1
v 2.6 -4.9 -1
v 2.6 -4.7 -1
v 2.6 -4.6 -1
v 2.6 -4.5 -1
v 2.6 -4.4 -1
v 2.6 -4.2 -1
v 2.7 -4.9 -1
v 2.7 -4.8 -1
v 2.8 -5 -1
v 2.8 -4.9 -1
v 2.8 -4.8 -1
v 2.8 -4.6 -1
v 2.8 -4.4 -1
v 2.9 -4.9 -1
v 2.9 -4.8 -1
v 3 -5 -1
v 3 -4.8 -1
v 3 -4.6 -1
v 3.2 -5 -1
v 3.2 -4.8 -1
v -3.2 -5 -1.2
v -3.2 -4.8 -1.2
v -3 -5 -1.2
v -3 -4.8 -1.2
v -3 -4.6 -1.2
v -2.8 -4.8 -1.2
v -2.8 -4.6 -1.2
v -2.8 -4.4 -1.2
v -2.6 -4.6 -1.2
v -2.6 -4.4 -1.2
v -2.6 -4.2 -1.2
v -2.4 -4.4 -1.2
v -2.4 -4.2 -1.2
v -2.4 -4 -1.2
v -1.8 -4.2 -1.2
v -1.8 -4 -1.2
v -1.8 -3.8 -1.2
v -1.2 -3.8 -1.2
v -1.2 -3.6 -1.2
v -1 -5 -1.2
v -1 -4 -1.2
v -0.8 -5.4 -1.2
v -0.8 -5 -1.2
v -0.8 -4.6 -1.2
v -0.8 -3.6 -1.2
v -0.7 -5.4 -1.2
v -0.7 -4.6 -1.2
v 0.7 -5.4 -1.2
v 0.7 -4.6 -1.2
v 0.8 -5.4 -1.2
v 0.8 -5 -1.2
v 0.8 -4.6 -1.2
v 0.8 -3.6 -1.2
v 1 -5 -1.2
v 1 -4 -1.2
v 1.2 -3.8 -1.2
v 1.2 -3.6 -1.2
v 1.8 -4.2 -1.2
v 1.8 -4 -1.2
v 1.8 -3.8 -1.2
v 2.4 -4.4 -1.2
v 2.4 -4.2 -1.2
v 2.4 -4 -1.2
v 2.6 -4.6 -1.2
v 2.6 -4.4 -1.2
v 2.6 -4.2 -1.2
v 2.8 -4.8 -1.2
v 2.8 -4.6 -1.2
v 2.8 -4.4 -1.2
v 3 -5 -1.2
v 3 -4.8 -1.2
v 3 -4.6 -1.2
v 3.2 -5 -1.2
v 3.2 -4.8 -1.2
v -0.8 -5.4 -1
v -0.7 -5.4 -1
v 0.7 -5.4 -1
v 0.8 -5.4 -1
v -0.8 -5.4 -1.2
v -0.7 -5.4 -1.2
v 0.7 -5.4 -1.2
v 0.8 -5.4 -1.2
v -3.2 -5 -1
v -3 -5 -1
v -2.8 -5 -1
v -2.6 -5 -1
v -2.3 -5 -1
v -2.2 -5 -1
v -1.9 -5 -1
v -1.8 -5 -1
v -1.3 -5 -1
v -1.2 -5 -1
v -1 -5 -1
v -0.8 -5 -1
v 0.8 -5 -1
v 1 -5 -1
v 1.2 -5 -1
v 1.3 -5 -1
v 1.8 -5 -1
v 1.9 -5 -1
v 2.2 -5 -1
v 2.3 -5 -1
v 2.6 -5 -1
v 2.8 -5 -1
v 3 -5 -1
v 3.2 -5 -1
v -2.8 -5 -1.1
v -2.6 -5 -1.1
v -2.3 -5 -1.1
v -2.2 -5 -1.1
v -1.9 -5 -1.1
v -1.8 -5 -1.1
v -1.3 -5 -1.1
v -1.2 -5 -1.1
v 1.2 -5 -1.1
v 1.3 -5 -1.1
v 1.8 -5 -1.1
v 1.9 -5 -1.1
v 2.2 -5 -1.1
v 2.3 -5 -1.1
v 2.6 -5 -1.1
v 2.8 -5 -1.1
v -3.2 -5 -1.2
v -3 -5 -1.2
v -1 -5 -1.2
v -0.8 -5 -1.2
v 0.8 -5 -1.2
v 1 -5 -1.2
v 3 -5 -1.2
v 3.2 -5 -1.2
v -3.2 -4.8 -1
v -3 -4.8 -1
v 3 -4.8 -1
v 3.2 -4.8 -1
v -3.2 -4.8 -1.2
v -3 -4.8 -1.2
v 3 -4.8 -1.2
v 3.2 -4.8 -1.2
v -3 -4.6 -1
v -2.8 -4.6 -1
v -0.8 -4.6 -1
v -0.7 -4.6 -1
v 0.7 -4.6 -1
v 0.8 -4.6 -1
v 2.8 -4.6 -1
v 3 -4.6 -1
v -3 -4.6 -1.2
v -2.8 -4.6 -1.2
v -0.8 -4.6 -1.2
v -0.7 -4.6 -1.2
v 0.7 -4.6 -1.2
v 0.8 -4.6 -1.2
v 2.8 -4.6 -1.2
v 3 -4.6 -1.2
v -2.8 -4.4 -1
v -2.6 -4.4 -1
v 2.6 -4.4 -1
v 2.8 -4.4 -1
v -2.8 -4.4 -1.2
v -2.6 -4.4 -1.2
v 2.6 -4.4 -1.2
v 2.8 -4.4 -1.2
v -2.6 -4.2 -1
v -2.4 -4.2 -1
v 2.4 -4.2 -1
v 2.6 -4.2 -1
v -2.6 -4.2 -1.2
v -2.4 -4.2 -1.2
v 2.4 -4.2 -1.2
v 2.6 -4.2 -1.2
v -2.4 -4 -1
v -1.8 -4 -1
v 1.8 -4 -1
v 2.4 -4 -1
v -2.4 -4 -1.2
v -1.8 -4 -1.2
v 1.8 -4 -1.2
v 2.4 -4 -1.2
v -1.8 -3.8 -1
v -1.2 -3.8 -1
v 1.2 -3.8 -1
v 1.8 -3.8 -1
v -1.8 -3.8 -1.2
v -1.2 -3.8 -1.2
v 1.2 -3.8 -1.2
v 1.8 -3.8 -1.2
v -1.2 -3.6 -1
v -0.8 -3.6 -1
v 0.8 -3.6 -1
v 1.2 -3.6 -1
v -1.2 -3.6 -1.2
v -0.8 -3.6 -1.2
v 0.8 -3.6 -1.2
v 1.2 -3.6 -1.2

# faces
f 3/3/1 2/3/1 1/3/1
f 4/3/1 2/3/1 3/3/1
f 7/3/1 6/3/1 5/3/1
f 8/3/1 6/3/1 7/3/1
f 11/3/1 10/3/1 9/3/1
f 12/3/1 10/3/1 11/3/1
f 15/3/1 14/3/1 13/3/1
f 16/3/1 14/3/1 15/3/1
f 19/3/1 18/3/1 17/3/1
f 20/3/1 18/3/1 19/3/1
f 23/3/1 22/3/1 21/3/1
f 24/3/1 22/3/1 23/3/1
f 27/3/1 26/3/1 25/3/1
f 28/3/1 26/3/1 27/3/1
f 31/3/1 30/3/1 29/3/1
f 32/3/1 30/3/1 31/3/1
f 35/3/1 34/3/1 33/3/1
f 36/3/1 34/3/1 35/3/1
f 39/3/1 38/3/1 37/3/1
f 40/3/1 38/3/1 39/3/1
f 41/3/2 42/3/2 43/3/2
f 43/3/2 42/3/2 44/3/2
f 45/3/2 46/3/2 47/3/2
f 47/3/2 46/3/2 48/3/2
f 49/3/2 50/3/2 51/3/2
f 51/3/2 50/3/2 52/3/2
f 53/3/2 54/3/2 55/3/2
f 55/3/2 54/3/2 56/3/2
f 57/3/2 58/3/2 59/3/2
f 59/3/2 58/3/2 60/3/2
f 61/3/2 62/3/2 63/3/2
f 63/3/2 62/3/2 64/3/2
f 65/3/2 66/3/2 67/3/2
f 67/3/2 66/3/2 68/3/2
f 69/3/2 70/3/2 71/3/2
f 71/3/2 70/3/2 72/3/2
f 73/3/2 74/3/2 75/3/2
f 75/3/2 74/3/2 76/3/2
f 77/3/2 78/3/2 79/3/2
f 79/3/2 78/3/2 80/3/2
f 83/3/3 82/3/3 81/3/3
f 84/3/3 82/3/3 83/3/3
f 86/1/3 84/1/3 83/1/3
f 87/3/3 85/3/3 84/3/3
f 87/1/3 84/1/3 86/1/3
f 88/1/3 86/1/3 83/1/3
f 89/2/3 87/2/3 86/2/3
f 89/1/3 86/1/3 88/1/3
f 90/3/3 85/3/3 87/3/3
f 90/2/3 87/2/3 89/2/3
f 91/3/3 85/3/3 90/3/3
f 93/2/3 89/2/3 88/2/3
f 93/2/3 90/2/3 89/2/3
f 94/1/3 91/1/3 90/1/3
f 94/2/3 90/2/3 93/2/3
f 95/2/3 93/2/3 88/2/3
f 96/1/3 94/1/3 93/1/3
f 96/2/3 93/2/3 95/2/3
f 97/1/3 91/1/3 94/1/3
f 97/1/3 94/1/3 96/1/3
f 98/3/3 92/3/3 91/3/3
f 98/1/3 91/1/3 97/1/3
f 99/3/3 92/3/3 98/3/3
f 100/3/3 92/3/3 99/3/3
f 102/1/3 97/1/3 96/1/3
f 102/1/3 96/1/3 95/1/3
f 103/2/3 98/2/3 97/2/3
f 103/1/3 97/1/3 102/1/3
f 103/2/3 99/2/3 98/2/3
f 104/2/3 99/2/3 103/2/3
f 105/1/3 100/1/3 99/1/3
f 105/2/3 99/2/3 104/2/3
f 106/1/3 102/1/3 95/1/3
f 107/2/3 104/2/3 103/2/3
f 107/1/3 102/1/3 106/1/3
f 107/2/3 103/2/3 102/2/3
f 108/2/3 104/2/3 107/2/3
f 109/1/3 105/1/3 104/1/3
f 109/2/3 104/2/3 108/2/3
f 110/1/3 100/1/3 105/1/3
f 110/1/3 105/1/3 109/1/3
f 111/3/3 101/3/3 100/3/3
f 111/1/3 100/1/3 110/1/3
f 112/3/3 101/3/3 111/3/3
f 114/1/3 106/1/3 95/1/3
f 115/2/3 108/2/3 107/2/3
f 115/1/3 106/1/3 114/1/3
f 115/2/3 107/2/3 106/2/3
f 116/2/3 108/2/3 115/2/3
f 117/1/3 110/1/3 109/1/3
f 117/2/3 108/2/3 116/2/3
f 117/1/3 109/1/3 108/1/3
f 118/1/3 110/1/3 117/1/3
f 119/2/3 111/2/3 110/2/3
f 119/1/3 110/1/3 118/1/3
f 120/2/3 116/2/3 115/2/3
f 120/2/3 115/2/3 114/2/3
f 121/1/3 118/1/3 117/1/3
f 121/2/3 116/2/3 120/2/3
f 121/1/3 117/1/3 116/1/3
f 122/1/3 118/1/3 121/1/3
f 123/2/3 119/2/3 118/2/3
f 123/1/3 118/1/3 122/1/3
f 124/2/3 111/2/3 119/2/3
f 124/2/3 119/2/3 123/2/3
f 125/1/3 112/1/3 111/1/3
f 125/2/3 111/2/3 124/2/3
f 126/1/3 122/1/3 121/1/3
f 126/1/3 121/1/3 120/1/3
f 127/2/3 123/2/3 122/2/3
f 127/1/3 122/1/3 126/1/3
f 127/2/3 124/2/3 123/2/3
f 128/2/3 124/2/3 127/2/3
f 129/1/3 125/1/3 124/1/3
f 129/2/3 124/2/3 128/2/3
f 130/1/3 126/1/3 120/1/3
f 131/2/3 128/2/3 127/2/3
f 131/1/3 126/1/3 130/1/3
f 131/2/3 127/2/3 126/2/3
f 132/2/3 128/2/3 131/2/3
f 133/1/3 129/1/3 128/1/3
f 133/2/3 128/2/3 132/2/3
f 134/1/3 125/1/3 129/1/3
f 134/1/3 129/1/3 133/1/3
f 134/1/3 112/1/3 125/1/3
f 135/3/3 113/3/3 112/3/3
f 135/1/3 112/1/3 134/1/3
f 136/1/3 130/1/3 120/1/3
f 137/2/3 131/2/3 130/2/3
f 137/1/3 130/1/3 136/1/3
f 137/2/3 132/2/3 131/2/3
f 138/2/3 132/2/3 137/2/3
f 139/1/3 133/1/3 132/1/3
f 139/2/3 132/2/3 138/2/3
f 139/1/3 134/1/3 133/1/3
f 140/1/3 134/1/3 139/1/3
f 141/2/3 135/2/3 134/2/3
f 141/1/3 134/1/3 140/1/3
f 142/2/3 138/2/3 137/2/3
f 142/2/3 137/2/3 136/2/3
f 143/1/3 140/1/3 139/1/3
f 143/2/3 138/2/3 142/2/3
f 143/1/3 139/1/3 138/1/3
f 144/1/3 140/1/3 143/1/3
f 145/2/3 141/2/3 140/2/3
f 145/1/3 140/1/3 144/1/3
f 146/2/3 135/2/3 141/2/3
f 146/2/3 141/2/3 145/2/3
f 147/3/3 113/3/3 135/3/3
f 147/2/3 135/2/3 146/2/3
f 148/3/3 113/3/3 147/3/3
f 150/1/3 144/1/3 143/1/3
f 150/1/3 143/1/3 142/1/3
f 151/2/3 145/2/3 144/2/3
f 151/1/3 144/1/3 150/1/3
f 151/2/3 146/2/3 145/2/3
f 152/2/3 146/2/3 151/2/3
f 153/1/3 147/1/3 146/1/3
f 153/2/3 146/2/3 152/2/3
f 153/1/3 148/1/3 147/1/3
f 154/1/3 150/1/3 142/1/3
f 155/2/3 152/2/3 151/2/3
f 155/1/3 150/1/3 154/1/3
f 155/2/3 151/2/3 150/2/3
f 156/2/3 152/2/3 155/2/3
f 157/1/3 153/1/3 152/1/3
f 157/2/3 152/2/3 156/2/3
f 158/1/3 154/1/3 142/1/3
f 159/2/3 156/2/3 155/2/3
f 159/1/3 154/1/3 158/1/3
f 159/2/3 155/2/3 154/2/3
f 160/2/3 156/2/3 159/2/3
f 161/1/3 157/1/3 156/1/3
f 161/2/3 156/2/3 160/2/3
f 162/1/3 148/1/3 153/1/3
f 162/1/3 157/1/3 161/1/3
f 162/1/3 153/1/3 157/1/3
f 163/3/3 149/3/3 148/3/3
f 163/1/3 148/1/3 162/1/3
f 164/1/3 158/1/3 142/1/3
f 165/2/3 159/2/3 158/2/3
f 165/1/3 158/1/3 164/1/3
f 165/2/3 160/2/3 159/2/3
f 166/2/3 160/2/3 165/2/3
f 167/1/3 161/1/3 160/1/3
f 167/2/3 160/2/3 166/2/3
f 167/1/3 162/1/3 161/1/3
f 168/1/3 162/1/3 167/1/3
f 169/2/3 163/2/3 162/2/3
f 169/1/3 162/1/3 168/1/3
f 170/2/3 163/2/3 169/2/3
f 171/3/3 149/3/3 163/3/3
f 171/2/3 163/2/3 170/2/3
f 172/1/3 164/1/3 142/1/3
f 173/2/3 166/2/3 165/2/3
f 173/1/3 164/1/3 172/1/3
f 173/2/3 165/2/3 164/2/3
f 174/2/3 166/2/3 173/2/3
f 175/1/3 168/1/3 167/1/3
f 175/2/3 166/2/3 174/2/3
f 175/1/3 167/1/3 166/1/3
f 176/1/3 168/1/3 175/1/3
f 177/2/3 170/2/3 169/2/3
f 177/1/3 168/1/3 176/1/3
f 177/2/3 169/2/3 168/2/3
f 178/2/3 170/2/3 177/2/3
f 179/1/3 171/1/3 170/1/3
f 179/2/3 170/2/3 178/2/3
f 180/2/3 174/2/3 173/2/3
f 180/2/3 173/2/3 172/2/3
f 181/1/3 176/1/3 175/1/3
f 181/2/3 174/2/3 180/2/3
f 181/1/3 175/1/3 174/1/3
f 182/1/3 176/1/3 181/1/3
f 183/2/3 178/2/3 177/2/3
f 183/1/3 176/1/3 182/1/3
f 183/2/3 177/2/3 176/2/3
f 184/2/3 178/2/3 183/2/3
f 185/1/3 179/1/3 178/1/3
f 185/2/3 178/2/3 184/2/3
f 186/3/3 149/3/3 171/3/3
f 188/1/3 182/1/3 181/1/3
f 188/1/3 181/1/3 180/1/3
f 189/2/3 184/2/3 183/2/3
f 189/1/3 182/1/3 188/1/3
f 189/2/3 183/2/3 182/2/3
f 190/2/3 184/2/3 189/2/3
f 191/1/3 185/1/3 184/1/3
f 191/2/3 184/2/3 190/2/3
f 192/1/3 188/1/3 180/1/3
f 193/2/3 190/2/3 189/2/3
f 193/1/3 188/1/3 192/1/3
f 193/2/3 189/2/3 188/2/3
f 194/1/3 191/1/3 190/1/3
f 194/2/3 190/2/3 193/2/3
f 195/3/3 187/3/3 186/3/3
f 195/1/3 191/1/3 194/1/3
f 195/1/3 179/1/3 185/1/3
f 195/1/3 171/1/3 179/1/3
f 195/1/3 185/1/3 191/1/3
f 195/3/3 186/3/3 171/3/3
f 197/3/3 194/3/3 193/3/3
f 197/3/3 193/3/3 192/3/3
f 197/3/3 195/3/3 194/3/3
f 198/3/3 195/3/3 197/3/3
f 199/3/3 187/3/3 195/3/3
f 199/3/3 195/3/3 198/3/3
f 200/3/3 198/3/3 197/3/3
f 200/3/3 197/3/3 196/3/3
f 201/3/3 198/3/3 200/3/3
f 204/3/3 203/3/3 202/3/3
f 205/3/3 203/3/3 204/3/3
f 206/3/3 203/3/3 205/3/3
f 208/3/3 206/3/3 205/3/3
f 208/3/3 207/3/3 206/3/3
f 209/3/3 207/3/3 208/3/3
f 210/3/3 207/3/3 209/3/3
f 211/3/3 207/3/3 210/3/3
f 212/1/3 209/1/3 208/1/3
f 212/2/3 210/2/3 209/2/3
f 213/2/3 210/2/3 212/2/3
f 214/1/3 211/1/3 210/1/3
f 214/2/3 210/2/3 213/2/3
f 215/1/3 211/1/3 214/1/3
f 216/1/3 213/1/3 212/1/3
f 216/1/3 212/1/3 208/1/3
f 217/1/3 213/1/3 216/1/3
f 218/2/3 215/2/3 214/2/3
f 218/1/3 213/1/3 217/1/3
f 218/2/3 214/2/3 213/2/3
f 219/2/3 215/2/3 218/2/3
f 220/1/3 211/1/3 215/1/3
f 220/2/3 215/2/3 219/2/3
f 221/1/3 211/1/3 220/1/3
f 222/3/3 207/3/3 211/3/3
f 223/3/3 207/3/3 222/3/3
f 224/2/3 217/2/3 216/2/3
f 225/2/3 217/2/3 224/2/3
f 226/1/3 219/1/3 218/1/3
f 226/2/3 217/2/3 225/2/3
f 226/1/3 218/1/3 217/1/3
f 227/1/3 219/1/3 226/1/3
f 228/2/3 220/2/3 219/2/3
f 228/1/3 219/1/3 227/1/3
f 228/2/3 221/2/3 220/2/3
f 229/2/3 221/2/3 228/2/3
f 230/1/3 211/1/3 221/1/3
f 230/2/3 221/2/3 229/2/3
f 231/1/3 211/1/3 230/1/3
f 232/1/3 225/1/3 224/1/3
f 232/2/3 227/2/3 226/2/3
f 232/2/3 226/2/3 225/2/3
f 233/2/3 227/2/3 232/2/3
f 234/1/3 229/1/3 228/1/3
f 234/2/3 227/2/3 233/2/3
f 234/1/3 228/1/3 227/1/3
f 235/1/3 229/1/3 234/1/3
f 236/2/3 231/2/3 230/2/3
f 236/1/3 229/1/3 235/1/3
f 236/2/3 230/2/3 229/2/3
f 237/2/3 231/2/3 236/2/3
f 238/1/3 211/1/3 231/1/3
f 238/2/3 231/2/3 237/2/3
f 239/3/3 222/3/3 211/3/3
f 239/1/3 211/1/3 238/1/3
f 240/1/3 233/1/3 232/1/3
f 240/2/3 235/2/3 234/2/3
f 240/2/3 234/2/3 233/2/3
f 241/2/3 235/2/3 240/2/3
f 242/1/3 237/1/3 236/1/3
f 242/2/3 235/2/3 241/2/3
f 242/1/3 236/1/3 235/1/3
f 243/1/3 237/1/3 242/1/3
f 244/2/3 239/2/3 238/2/3
f 244/1/3 237/1/3 243/1/3
f 244/2/3 238/2/3 237/2/3
f 245/3/3 222/3/3 239/3/3
f 245/2/3 239/2/3 244/2/3
f 246/1/3 241/1/3 240/1/3
f 246/2/3 243/2/3 242/2/3
f 246/2/3 242/2/3 241/2/3
f 247/2/3 243/2/3 246/2/3
f 248/1/3 244/1/3 243/1/3
f 248/2/3 243/2/3 247/2/3
f 248/1/3 245/1/3 244/1/3
f 249/1/3 245/1/3 248/1/3
f 250/1/3 247/1/3 246/1/3
f 250/2/3 248/2/3 247/2/3
f 250/2/3 249/2/3 248/2/3
f 251/2/3 249/2/3 250/2/3
f 252/1/3 245/1/3 249/1/3
f 252/2/3 249/2/3 251/2/3
f 253/1/3 245/1/3 252/1/3
f 254/1/3 251/1/3 250/1/3
f 254/1/3 246/1/3 240/1/3
f 254/1/3 240/1/3 232/1/3
f 254/1/3 232/1/3 224/1/3
f 254/1/3 250/1/3 246/1/3
f 255/1/3 251/1/3 254/1/3
f 256/2/3 253/2/3 252/2/3
f 256/1/3 251/1/3 255/1/3
f 256/2/3 252/2/3 251/2/3
f 257/2/3 253/2/3 256/2/3
f 258/1/3 245/1/3 253/1/3
f 258/2/3 253/2/3 257/2/3
f 259/1/3 245/1/3 258/1/3
f 260/3/3 222/3/3 245/3/3
f 260/1/3 245/1/3 259/1/3
f 261/3/3 222/3/3 260/3/3
f 262/2/3 255/2/3 254/2/3
f 263/2/3 255/2/3 262/2/3
f 264/1/3 257/1/3 256/1/3
f 264/2/3 255/2/3 263/2/3
f 264/1/3 256/1/3 255/1/3
f 265/1/3 257/1/3 264/1/3
f 266/2/3 259/2/3 258/2/3
f 266/1/3 257/1/3 265/1/3
f 266/2/3 258/2/3 257/2/3
f 267/2/3 259/2/3 266/2/3
f 268/1/3 263/1/3 262/1/3
f 268/2/3 265/2/3 264/2/3
f 268/2/3 264/2/3 263/2/3
f 269/2/3 265/2/3 268/2/3
f 270/1/3 267/1/3 266/1/3
f 270/2/3 265/2/3 269/2/3
f 270/1/3 266/1/3 265/1/3
f 271/1/3 267/1/3 270/1/3
f 272/2/3 259/2/3 267/2/3
f 272/1/3 267/1/3 271/1/3
f 273/3/3 260/3/3 259/3/3
f 273/2/3 259/2/3 272/2/3
f 274/2/3 271/2/3 270/2/3
f 274/1/3 269/1/3 268/1/3
f 274/2/3 270/2/3 269/2/3
f 275/2/3 271/2/3 274/2/3
f 276/1/3 273/1/3 272/1/3
f 276/2/3 271/2/3 275/2/3
f 276/1/3 272/1/3 271/1/3
f 277/1/3 273/1/3 276/1/3
f 278/1/3 275/1/3 274/1/3
f 278/1/3 268/1/3 262/1/3
f 278/1/3 274/1/3 268/1/3
f 279/1/3 275/1/3 278/1/3
f 280/2/3 277/2/3 276/2/3
f 280/1/3 275/1/3 279/1/3
f 280/2/3 276/2/3 275/2/3
f 281/2/3 277/2/3 280/2/3
f 282/1/3 273/1/3 277/1/3
f 282/2/3 277/2/3 281/2/3
f 283/1/3 273/1/3 282/1/3
f 284/2/3 279/2/3 278/2/3
f 285/2/3 279/2/3 284/2/3
f 286/1/3 281/1/3 280/1/3
f 286/2/3 279/2/3 285/2/3
f 286/1/3 280/1/3 279/1/3
f 287/1/3 281/1/3 286/1/3
f 288/2/3 282/2/3 281/2/3
f 288/1/3 281/1/3 287/1/3
f 288/2/3 283/2/3 282/2/3
f 289/2/3 283/2/3 288/2/3
f 290/1/3 285/1/3 284/1/3
f 290/2/3 287/2/3 286/2/3
f 290/2/3 286/2/3 285/2/3
f 291/2/3 287/2/3 290/2/3
f 292/1/3 289/1/3 288/1/3
f 292/2/3 287/2/3 291/2/3
f 292/1/3 288/1/3 287/1/3
f 293/1/3 289/1/3 292/1/3
f 294/2/3 283/2/3 289/2/3
f 294/1/3 289/1/3 293/1/3
f 295/1/3 273/1/3 283/1/3
f 295/2/3 283/2/3 294/2/3
f 296/3/3 260/3/3 273/3/3
f 296/1/3 273/1/3 295/1/3
f 297/3/3 260/3/3 296/3/3
f 298/2/3 293/2/3 292/2/3
f 298/1/3 291/1/3 290/1/3
f 298/2/3 292/2/3 291/2/3
f 299/2/3 293/2/3 298/2/3
f 300/1/3 295/1/3 294/1/3
f 300/2/3 293/2/3 299/2/3
f 300/1/3 294/1/3 293/1/3
f 301/1/3 295/1/3 300/1/3
f 302/1/3 299/1/3 298/1/3
f 302/1/3 298/1/3 290/1/3
f 302/1/3 290/1/3 284/1/3
f 303/1/3 299/1/3 302/1/3
f 304/2/3 301/2/3 300/2/3
f 304/1/3 299/1/3 303/1/3
f 304/2/3 300/2/3 299/2/3
f 305/2/3 301/2/3 304/2/3
f 306/1/3 295/1/3 301/1/3
f 306/2/3 301/2/3 305/2/3
f 307/3/3 296/3/3 295/3/3
f 307/1/3 295/1/3 306/1/3
f 308/3/3 296/3/3 307/3/3
f 309/1/3 305/1/3 304/1/3
f 309/2/3 303/2/3 302/2/3
f 309/1/3 304/1/3 303/1/3
f 310/1/3 305/1/3 309/1/3
f 311/2/3 309/2/3 302/2/3
f 311/2/3 310/2/3 309/2/3
f 312/2/3 310/2/3 311/2/3
f 313/1/3 305/1/3 310/1/3
f 313/2/3 310/2/3 312/2/3
f 314/3/3 307/3/3 306/3/3
f 314/1/3 305/1/3 313/1/3
f 314/3/3 306/3/3 305/3/3
f 315/3/3 307/3/3 314/3/3
f 316/2/3 313/2/3 312/2/3
f 316/1/3 312/1/3 311/1/3
f 317/3/3 314/3/3 313/3/3
f 317/2/3 313/2/3 316/2/3
f 318/1/3 316/1/3 311/1/3
f 318/1/3 317/1/3 316/1/3
f 319/3/3 314/3/3 317/3/3
f 319/1/3 317/1/3 318/1/3
f 320/3/3 314/3/3 319/3/3
f 321/3/3 319/3/3 318/3/3
f 322/3/3 319/3/3 321/3/3
f 323/3/4 324/3/4 325/3/4
f 325/3/4 324/3/4 326/3/4
f 325/1/4 326/1/4 328/1/4
f 326/3/4 327/3/4 328/3/4
f 328/3/4 327/3/4 329/3/4
f 328/1/4 329/1/4 331/1/4
f 329/3/4 330/3/4 331/3/4
f 331/3/4 330/3/4 332/3/4
f 331/1/4 332/1/4 334/1/4
f 332/3/4 333/3/4 334/3/4
f 334/3/4 333/3/4 335/3/4
f 334/1/4 335/1/4 337/1/4
f 335/3/4 336/3/4 337/3/4
f 337/3/4 336/3/4 338/3/4
f 338/3/4 339/3/4 340/3/4
f 325/1/4 328/1/4 342/1/4
f 328/1/4 331/1/4 342/1/4
f 331/1/4 334/1/4 342/1/4
f 337/1/4 338/1/4 342/1/4
f 334/1/4 337/1/4 342/1/4
f 340/3/4 341/3/4 343/3/4
f 342/1/4 338/1/4 343/1/4
f 338/3/4 340/3/4 343/3/4
f 342/3/4 343/3/4 345/3/4
f 345/3/4 343/3/4 346/3/4
f 343/3/4 341/3/4 347/3/4
f 346/3/4 343/3/4 347/3/4
f 345/3/4 346/3/4 348/3/4
f 344/3/4 345/3/4 348/3/4
f 348/3/4 346/3/4 349/3/4
f 350/3/4 351/3/4 352/3/4
f 352/3/4 351/3/4 353/3/4
f 353/3/4 351/3/4 354/3/4
f 353/3/4 354/3/4 356/3/4
f 354/3/4 355/3/4 356/3/4
f 356/3/4 355/3/4 357/3/4
f 357/3/4 355/3/4 358/3/4
f 358/3/4 355/3/4 359/3/4
f 356/1/4 357/1/4 360/1/4
f 357/3/4 358/3/4 361/3/4
f 360/1/4 357/1/4 361/1/4
f 361/3/4 358/3/4 362/3/4
f 356/1/4 360/1/4 363/1/4
f 360/3/4 361/3/4 364/3/4
f 363/1/4 360/1/4 364/1/4
f 364/3/4 361/3/4 365/3/4
f 356/1/4 363/1/4 366/1/4
f 363/3/4 364/3/4 367/3/4
f 366/1/4 363/1/4 367/1/4
f 367/3/4 364/3/4 368/3/4
f 356/1/4 366/1/4 369/1/4
f 366/3/4 367/3/4 370/3/4
f 369/1/4 366/1/4 370/1/4
f 370/3/4 367/3/4 371/3/4
f 356/1/4 369/1/4 372/1/4
f 369/3/4 370/3/4 373/3/4
f 372/1/4 369/1/4 373/1/4
f 373/3/4 370/3/4 374/3/4
f 372/3/4 373/3/4 375/3/4
f 375/3/4 373/3/4 376/3/4
f 381/3/5 378/3/5 377/3/5
f 382/3/5 378/3/5 381/3/5
f 383/3/5 380/3/5 379/3/5
f 384/3/5 380/3/5 383/3/5
f 409/1/5 387/1/5 386/1/5
f 409/2/5 388/2/5 387/2/5
f 410/1/5 389/1/5 388/1/5
f 410/2/5 388/2/5 409/2/5
f 411/2/5 390/2/5 389/2/5
f 411/1/5 389/1/5 410/1/5
f 412/1/5 391/1/5 390/1/5
f 412/2/5 390/2/5 411/2/5
f 413/2/5 392/2/5 391/2/5
f 413/1/5 391/1/5 412/1/5
f 414/1/5 393/1/5 392/1/5
f 414/2/5 392/2/5 413/2/5
f 415/2/5 394/2/5 393/2/5
f 415/1/5 393/1/5 414/1/5
f 416/1/5 395/1/5 394/1/5
f 416/2/5 394/2/5 415/2/5
f 417/1/5 399/1/5 398/1/5
f 417/2/5 400/2/5 399/2/5
f 418/1/5 401/1/5 400/1/5
f 418/2/5 400/2/5 417/2/5
f 419/2/5 402/2/5 401/2/5
f 419/1/5 401/1/5 418/1/5
f 420/1/5 403/1/5 402/1/5
f 420/2/5 402/2/5 419/2/5
f 421/2/5 404/2/5 403/2/5
f 421/1/5 403/1/5 420/1/5
f 422/1/5 405/1/5 404/1/5
f 422/2/5 404/2/5 421/2/5
f 423/2/5 406/2/5 405/2/5
f 423/1/5 405/1/5 422/1/5
f 424/1/5 407/1/5 406/1/5
f 424/2/5 406/2/5 423/2/5
f 425/3/5 386/3/5 385/3/5
f 426/1/5 409/1/5 386/1/5
f 426/3/5 386/3/5 425/3/5
f 426/1/5 410/1/5 409/1/5
f 426/1/5 411/1/5 410/1/5
f 426/1/5 412/1/5 411/1/5
f 426/1/5 413/1/5 412/1/5
f 426/1/5 414/1/5 413/1/5
f 426/1/5 415/1/5 414/1/5
f 426/1/5 416/1/5 415/1/5
f 427/3/5 396/3/5 395/3/5
f 427/1/5 416/1/5 426/1/5
f 427/1/5 395/1/5 416/1/5
f 428/3/5 396/3/5 427/3/5
f 429/3/5 398/3/5 397/3/5
f 430/1/5 423/1/5 422/1/5
f 430/3/5 398/3/5 429/3/5
f 430/1/5 424/1/5 423/1/5
f 430/1/5 422/1/5 421/1/5
f 430/1/5 417/1/5 398/1/5
f 430/1/5 421/1/5 420/1/5
f 430/1/5 420/1/5 419/1/5
f 430/1/5 418/1/5 417/1/5
f 430/1/5 419/1/5 418/1/5
f 431/1/5 407/1/5 424/1/5
f 431/1/5 424/1/5 430/1/5
f 431/3/5 408/3/5 407/3/5
f 432/3/5 408/3/5 431/3/5
f 433/3/6 434/3/6 437/3/6
f 437/3/6 434/3/6 438/3/6
f 435/3/6 436/3/6 439/3/6
f 439/3/6 436/3/6 440/3/6
f 441/3/6 442/3/6 449/3/6
f 449/3/6 442/3/6 450/3/6
f 443/3/6 444/3/6 451/3/6
f 451/3/6 444/3/6 452/3/6
f 445/3/6 446/3/6 453/3/6
f 453/3/6 446/3/6 454/3/6
f 447/3/6 448/3/6 455/3/6
f 455/3/6 448/3/6 456/3/6
f 457/3/6 458/3/6 461/3/6
f 461/3/6 458/3/6 462/3/6
f 459/3/6 460/3/6 463/3/6
f 463/3/6 460/3/6 464/3/6
f 465/3/6 466/3/6 469/3/6
f 469/3/6 466/3/6 470/3/6
f 467/3/6 468/3/6 471/3/6
f 471/3/6 468/3/6 472/3/6
f 473/3/6 474/3/6 477/3/6
f 477/3/6 474/3/6 478/3/6
f 475/3/6 476/3/6 479/3/6
f 479/3/6 476/3/6 480/3/6
f 481/3/6 482/3/6 485/3/6
f 485/3/6 482/3/6 486/3/6
f 483/3/6 484/3/6 487/3/6
f 487/3/6 484/3/6 488/3/6
f 489/3/6 490/3/6 493/3/6
f 493/3/6 490/3/6 494/3/6
f 491/3/6 492/3/6 495/3/6
f 495/3/6 492/3/6 496/3/6
