# MagicaVoxel @ Ephtracy

# group
o 

# material
mtllib Hero_Right_Arm.mtl
usemtl palette

# normals
vn -1 0 0
vn 1 0 0
vn 0 0 1
vn 0 0 -1
vn 0 -1 0
vn 0 1 0

# texcoords
vt 0.0566406 0.5
vt 0.994141 0.5

# verts
v -2 -0.6 -0.2
v -2 -0.6 -0.6
v -2 -0.2 -0.2
v -2 -0.2 -0.6
v -1.1 -0.6 -0.2
v -1.1 -0.6 -0.3
v -1.1 -0.2 -0.2
v -1.1 -0.2 -0.3
v -0.7 -0.6 -0.3
v -0.7 -0.6 -0.6
v -0.7 -0.2 -0.3
v -0.7 -0.2 -0.6
v -2 -0.6 -0.2
v -2 -0.2 -0.2
v -1.7 -0.6 -0.2
v -1.7 -0.2 -0.2
v -1.1 -0.6 -0.2
v -1.1 -0.2 -0.2
v -1.1 -0.6 -0.3
v -1.1 -0.2 -0.3
v -0.7 -0.6 -0.3
v -0.7 -0.2 -0.3
v -2 -0.6 -0.6
v -2 -0.2 -0.6
v -1.7 -0.6 -0.6
v -1.7 -0.2 -0.6
v -0.7 -0.6 -0.6
v -0.7 -0.2 -0.6
v -2 -0.6 -0.2
v -1.7 -0.6 -0.2
v -1.1 -0.6 -0.2
v -1.1 -0.6 -0.3
v -0.7 -0.6 -0.3
v -2 -0.6 -0.6
v -1.7 -0.6 -0.6
v -0.7 -0.6 -0.6
v -2 -0.2 -0.2
v -1.7 -0.2 -0.2
v -1.1 -0.2 -0.2
v -1.1 -0.2 -0.3
v -0.7 -0.2 -0.3
v -2 -0.2 -0.6
v -1.7 -0.2 -0.6
v -0.7 -0.2 -0.6

# faces
f 3/1/1 2/1/1 1/1/1
f 4/1/1 2/1/1 3/1/1
f 5/2/2 6/2/2 7/2/2
f 7/2/2 6/2/2 8/2/2
f 9/2/2 10/2/2 11/2/2
f 11/2/2 10/2/2 12/2/2
f 15/1/3 14/1/3 13/1/3
f 16/1/3 14/1/3 15/1/3
f 17/2/3 16/2/3 15/2/3
f 18/2/3 16/2/3 17/2/3
f 21/2/3 20/2/3 19/2/3
f 22/2/3 20/2/3 21/2/3
f 23/1/4 24/1/4 25/1/4
f 25/1/4 24/1/4 26/1/4
f 25/2/4 26/2/4 27/2/4
f 27/2/4 26/2/4 28/2/4
f 32/2/5 31/2/5 30/2/5
f 34/1/5 30/1/5 29/1/5
f 35/2/5 33/2/5 32/2/5
f 35/1/5 30/1/5 34/1/5
f 35/2/5 32/2/5 30/2/5
f 36/2/5 33/2/5 35/2/5
f 38/2/6 39/2/6 40/2/6
f 37/1/6 38/1/6 42/1/6
f 40/2/6 41/2/6 43/2/6
f 42/1/6 38/1/6 43/1/6
f 38/2/6 40/2/6 43/2/6
f 43/2/6 41/2/6 44/2/6
