# MagicaVoxel @ Ephtracy

# group
o 

# material
mtllib Hero_Left_Arm.mtl
usemtl palette

# normals
vn -1 0 0
vn 1 0 0
vn 0 0 1
vn 0 0 -1
vn 0 -1 0
vn 0 1 0

# texcoords
vt 0.0566406 0.5
vt 0.814453 0.5
vt 0.990234 0.5
vt 0.994141 0.5

# verts
v 0.7 -0.6 0.1
v 0.7 -0.6 -1
v 0.7 -0.6 -1.1
v 0.7 -0.4 -1.1
v 0.7 -0.4 -1.2
v 0.7 -0.2 0.1
v 0.7 -0.2 -1
v 0.7 -0.2 -1.1
v 0.7 -0.2 -1.2
v 0.8 -0.6 0.1
v 0.8 -0.6 -0.2
v 0.8 -0.2 0.1
v 0.8 -0.2 -0.2
v 0.9 -0.6 -0.6
v 0.9 -0.6 -1.1
v 0.9 -0.4 -1.1
v 0.9 -0.4 -1.2
v 0.9 -0.2 -0.6
v 0.9 -0.2 -1.1
v 0.9 -0.2 -1.2
v 2 -0.6 -0.2
v 2 -0.6 -0.6
v 2 -0.2 -0.2
v 2 -0.2 -0.6
v 0.7 -0.6 0.1
v 0.7 -0.2 0.1
v 0.8 -0.6 0.1
v 0.8 -0.2 0.1
v 0.8 -0.6 -0.2
v 0.8 -0.2 -0.2
v 1.7 -0.6 -0.2
v 1.7 -0.2 -0.2
v 2 -0.6 -0.2
v 2 -0.2 -0.2
v 0.9 -0.6 -0.6
v 0.9 -0.2 -0.6
v 1.7 -0.6 -0.6
v 1.7 -0.2 -0.6
v 2 -0.6 -0.6
v 2 -0.2 -0.6
v 0.7 -0.6 -1.1
v 0.7 -0.4 -1.1
v 0.9 -0.6 -1.1
v 0.9 -0.4 -1.1
v 0.7 -0.4 -1.2
v 0.7 -0.2 -1.2
v 0.9 -0.4 -1.2
v 0.9 -0.2 -1.2
v 0.7 -0.6 0.1
v 0.8 -0.6 0.1
v 0.8 -0.6 -0.2
v 1.7 -0.6 -0.2
v 2 -0.6 -0.2
v 0.8 -0.6 -0.6
v 0.9 -0.6 -0.6
v 1.7 -0.6 -0.6
v 2 -0.6 -0.6
v 0.7 -0.6 -1
v 0.8 -0.6 -1
v 0.7 -0.6 -1.1
v 0.9 -0.6 -1.1
v 0.7 -0.4 -1.1
v 0.9 -0.4 -1.1
v 0.7 -0.4 -1.2
v 0.9 -0.4 -1.2
v 0.7 -0.2 0.1
v 0.8 -0.2 0.1
v 0.8 -0.2 -0.2
v 1.7 -0.2 -0.2
v 2 -0.2 -0.2
v 0.8 -0.2 -0.6
v 0.9 -0.2 -0.6
v 1.7 -0.2 -0.6
v 2 -0.2 -0.6
v 0.7 -0.2 -1
v 0.8 -0.2 -1
v 0.7 -0.2 -1.1
v 0.9 -0.2 -1.1
v 0.7 -0.2 -1.2
v 0.9 -0.2 -1.2

# faces
f 4/2/1 3/2/1 2/2/1
f 6/4/1 2/4/1 1/4/1
f 7/2/1 4/2/1 2/2/1
f 7/4/1 2/4/1 6/4/1
f 8/3/1 5/3/1 4/3/1
f 8/2/1 4/2/1 7/2/1
f 9/3/1 5/3/1 8/3/1
f 10/4/2 11/4/2 12/4/2
f 12/4/2 11/4/2 13/4/2
f 14/2/2 15/2/2 16/2/2
f 14/2/2 16/2/2 18/2/2
f 16/3/2 17/3/2 19/3/2
f 18/2/2 16/2/2 19/2/2
f 19/3/2 17/3/2 20/3/2
f 21/1/2 22/1/2 23/1/2
f 23/1/2 22/1/2 24/1/2
f 27/4/3 26/4/3 25/4/3
f 28/4/3 26/4/3 27/4/3
f 31/4/3 30/4/3 29/4/3
f 32/4/3 30/4/3 31/4/3
f 33/1/3 32/1/3 31/1/3
f 34/1/3 32/1/3 33/1/3
f 35/4/4 36/4/4 37/4/4
f 37/4/4 36/4/4 38/4/4
f 37/1/4 38/1/4 39/1/4
f 39/1/4 38/1/4 40/1/4
f 41/2/4 42/2/4 43/2/4
f 43/2/4 42/2/4 44/2/4
f 45/3/4 46/3/4 47/3/4
f 47/3/4 46/3/4 48/3/4
f 51/4/5 50/4/5 49/4/5
f 54/4/5 51/4/5 49/4/5
f 54/4/5 52/4/5 51/4/5
f 55/4/5 52/4/5 54/4/5
f 56/1/5 53/1/5 52/1/5
f 56/4/5 52/4/5 55/4/5
f 57/1/5 53/1/5 56/1/5
f 58/4/5 54/4/5 49/4/5
f 59/2/5 55/2/5 54/2/5
f 59/4/5 54/4/5 58/4/5
f 60/2/5 59/2/5 58/2/5
f 61/2/5 55/2/5 59/2/5
f 61/2/5 59/2/5 60/2/5
f 64/3/5 63/3/5 62/3/5
f 65/3/5 63/3/5 64/3/5
f 66/4/6 67/4/6 68/4/6
f 66/4/6 68/4/6 71/4/6
f 68/4/6 69/4/6 71/4/6
f 71/4/6 69/4/6 72/4/6
f 69/1/6 70/1/6 73/1/6
f 72/4/6 69/4/6 73/4/6
f 73/1/6 70/1/6 74/1/6
f 66/4/6 71/4/6 75/4/6
f 71/2/6 72/2/6 76/2/6
f 75/4/6 71/4/6 76/4/6
f 75/2/6 76/2/6 77/2/6
f 76/2/6 72/2/6 78/2/6
f 77/2/6 76/2/6 78/2/6
f 77/3/6 78/3/6 79/3/6
f 79/3/6 78/3/6 80/3/6
