# MagicaVoxel @ Ephtracy

# group
o 

# material
mtllib Hero_Left_Leg.mtl
usemtl palette

# normals
vn -1 0 0
vn 1 0 0
vn 0 0 1
vn 0 0 -1
vn 0 -1 0
vn 0 1 0

# texcoords
vt 0.990234 0.5
vt 0.994141 0.5

# verts
v 0.1 -1.6 -5.96046e-08
v 0.1 -1.6 -0.2
v 0.1 -1.4 -5.96046e-08
v 0.1 -1.4 -0.2
v 0.2 -2 0.2
v 0.2 -2 -0.8
v 0.2 -1.8 0.2
v 0.2 -1.8 -5.96046e-08
v 0.2 -1.8 -0.8
v 0.2 -1.6 -5.96046e-08
v 0.2 -1.6 -0.2
v 0.2 -1.4 -0.2
v 0.2 -1.4 -0.8
v 0.8 -2 0.2
v 0.8 -2 -0.8
v 0.8 -1.8 0.2
v 0.8 -1.8 -5.96046e-08
v 0.8 -1.8 -0.8
v 0.8 -1.4 -5.96046e-08
v 0.8 -1.4 -0.8
v 0.2 -2 0.2
v 0.2 -1.8 0.2
v 0.8 -2 0.2
v 0.8 -1.8 0.2
v 0.1 -1.6 -5.96046e-08
v 0.1 -1.4 -5.96046e-08
v 0.2 -1.8 -5.96046e-08
v 0.2 -1.6 -5.96046e-08
v 0.8 -1.8 -5.96046e-08
v 0.8 -1.4 -5.96046e-08
v 0.1 -1.6 -0.2
v 0.1 -1.4 -0.2
v 0.2 -1.6 -0.2
v 0.2 -1.4 -0.2
v 0.2 -2 -0.8
v 0.2 -1.8 -0.8
v 0.2 -1.4 -0.8
v 0.8 -2 -0.8
v 0.8 -1.8 -0.8
v 0.8 -1.4 -0.8
v 0.2 -2 0.2
v 0.8 -2 0.2
v 0.2 -2 -0.8
v 0.8 -2 -0.8
v 0.1 -1.6 -5.96046e-08
v 0.2 -1.6 -5.96046e-08
v 0.1 -1.6 -0.2
v 0.2 -1.6 -0.2
v 0.2 -1.8 0.2
v 0.8 -1.8 0.2
v 0.2 -1.8 -5.96046e-08
v 0.8 -1.8 -5.96046e-08
v 0.1 -1.4 -5.96046e-08
v 0.8 -1.4 -5.96046e-08
v 0.1 -1.4 -0.2
v 0.2 -1.4 -0.2
v 0.2 -1.4 -0.8
v 0.8 -1.4 -0.8

# faces
f 3/1/1 2/1/1 1/1/1
f 4/1/1 2/1/1 3/1/1
f 7/2/1 6/2/1 5/2/1
f 8/2/1 6/2/1 7/2/1
f 9/2/1 6/2/1 8/2/1
f 10/1/1 9/1/1 8/1/1
f 11/1/1 9/1/1 10/1/1
f 12/1/1 9/1/1 11/1/1
f 13/1/1 9/1/1 12/1/1
f 14/2/2 15/2/2 16/2/2
f 16/2/2 15/2/2 17/2/2
f 17/2/2 15/2/2 18/2/2
f 17/1/2 18/1/2 19/1/2
f 19/1/2 18/1/2 20/1/2
f 23/2/3 22/2/3 21/2/3
f 24/2/3 22/2/3 23/2/3
f 28/1/3 26/1/3 25/1/3
f 29/1/3 28/1/3 27/1/3
f 30/1/3 26/1/3 28/1/3
f 30/1/3 28/1/3 29/1/3
f 31/1/4 32/1/4 33/1/4
f 33/1/4 32/1/4 34/1/4
f 35/2/4 36/2/4 38/2/4
f 36/1/4 37/1/4 39/1/4
f 38/2/4 36/2/4 39/2/4
f 39/1/4 37/1/4 40/1/4
f 43/2/5 42/2/5 41/2/5
f 44/2/5 42/2/5 43/2/5
f 47/1/5 46/1/5 45/1/5
f 48/1/5 46/1/5 47/1/5
f 49/2/6 50/2/6 51/2/6
f 51/2/6 50/2/6 52/2/6
f 53/1/6 54/1/6 55/1/6
f 55/1/6 54/1/6 56/1/6
f 56/1/6 54/1/6 57/1/6
f 57/1/6 54/1/6 58/1/6
