# MagicaVoxel @ Ephtracy

# group
o 

# material
mtllib MachineGun_Hands.mtl
usemtl palette

# normals
vn -1 0 0
vn 1 0 0
vn 0 0 1
vn 0 0 -1
vn 0 -1 0
vn 0 1 0

# texcoords
vt 0.0332031 0.5
vt 0.0566406 0.5
vt 0.583984 0.5
vt 0.982422 0.5
vt 0.990234 0.5
vt 0.994141 0.5

# verts
v -0.9 0.6 1.1
v -0.9 0.6 0.8
v -0.9 0.7 0
v -0.9 0.7 -0.5
v -0.9 0.7 -1.2
v -0.9 0.7 -1.3
v -0.9 0.8 1.1
v -0.9 0.8 0.8
v -0.9 0.9 0
v -0.9 0.9 -0.5
v -0.9 1.1 -1.2
v -0.9 1.1 -1.3
v -0.8 0.4 0.5
v -0.8 0.4 0.3
v -0.8 0.6 -0.2
v -0.8 0.6 -0.3
v -0.8 0.7 1.3
v -0.8 0.7 1.1
v -0.8 0.7 0.8
v -0.8 0.7 0.7
v -0.8 0.7 -0.2
v -0.8 0.7 -0.3
v -0.8 0.8 1.1
v -0.8 0.8 0.8
v -0.8 0.8 -0.5
v -0.8 0.8 -1.2
v -0.8 0.9 1.4
v -0.8 0.9 1.3
v -0.8 0.9 0.7
v -0.8 0.9 0.5
v -0.8 0.9 0.3
v -0.8 0.9 0
v -0.8 0.9 -0.1
v -0.8 0.9 -0.3
v -0.8 0.9 -0.4
v -0.8 0.9 -0.5
v -0.8 0.9 -0.6
v -0.8 0.9 -1.2
v -0.8 1 -0.1
v -0.8 1 -0.3
v -0.8 1 -0.6
v -0.8 1 -1.2
v -0.8 1.1 1.4
v -0.8 1.1 0
v -0.8 1.1 -0.4
v -0.8 1.1 -0.6
v -0.7 0.5 -0.3
v -0.7 0.5 -0.4
v -0.7 0.6 -0.3
v -0.7 0.7 -0.3
v -0.7 0.7 -0.4
v -0.7 0.8 1.4
v -0.7 0.8 1.3
v -0.7 0.8 0.7
v -0.7 0.8 0.5
v -0.7 0.8 0.3
v -0.7 0.8 0
v -0.7 0.9 1.4
v -0.7 0.9 1.3
v -0.7 0.9 0.7
v -0.7 0.9 0.5
v -0.7 0.9 0.3
v -0.7 0.9 0
v -0.7 0.9 -0.1
v -0.7 0.9 -0.3
v -0.7 1 -0.1
v -0.7 1 -0.3
v -0.7 1.1 1.4
v -0.7 1.1 0
v -0.7 1.1 -0.1
v -0.7 1.2 1.4
v -0.7 1.2 0
v -0.7 1.2 -0.1
v -0.7 1.3 0
v -0.7 1.3 -0.1
v -0.6 0.9 1.4
v -0.6 0.9 1.1
v -0.6 1.1 1.4
v -0.6 1.1 1.1
v -0.5 1 1.8
v -0.5 1 1.7
v -0.5 1 1.4
v -0.5 1.1 1.8
v -0.5 1.1 1.7
v -0.5 1.1 1.4
v -0.7 0.9 1.4
v -0.7 0.9 1.1
v -0.7 1.1 1.4
v -0.7 1.1 1.1
v -0.6 0.5 -0.3
v -0.6 0.5 -0.4
v -0.6 0.6 -0.3
v -0.6 0.7 -0.3
v -0.6 0.7 -0.4
v -0.6 0.8 1.4
v -0.6 0.8 1.3
v -0.6 0.8 0.7
v -0.6 0.8 0.5
v -0.6 0.8 0.3
v -0.6 0.8 0
v -0.6 0.8 -0.1
v -0.6 0.8 -0.2
v -0.6 0.9 1.4
v -0.6 0.9 1.3
v -0.6 0.9 0.7
v -0.6 0.9 0.5
v -0.6 0.9 0.3
v -0.6 0.9 0
v -0.6 0.9 -0.1
v -0.6 0.9 -0.2
v -0.6 0.9 -0.3
v -0.6 1 -0.1
v -0.6 1 -0.3
v -0.6 1.1 1.4
v -0.6 1.1 0
v -0.6 1.1 -0.1
v -0.6 1.2 1.4
v -0.6 1.2 0
v -0.6 1.2 -0.1
v -0.6 1.3 0
v -0.6 1.3 -0.1
v -0.5 0.4 0.5
v -0.5 0.4 0.3
v -0.5 0.6 -0.2
v -0.5 0.6 -0.3
v -0.5 0.7 1.3
v -0.5 0.7 1.1
v -0.5 0.7 0.8
v -0.5 0.7 0.7
v -0.5 0.7 0
v -0.5 0.7 -0.2
v -0.5 0.7 -0.3
v -0.5 0.8 1.1
v -0.5 0.8 0.8
v -0.5 0.8 -0.1
v -0.5 0.8 -0.2
v -0.5 0.8 -0.4
v -0.5 0.8 -0.5
v -0.5 0.8 -1.2
v -0.5 0.9 1.4
v -0.5 0.9 1.3
v -0.5 0.9 0.7
v -0.5 0.9 0.5
v -0.5 0.9 0.3
v -0.5 0.9 0
v -0.5 0.9 -0.3
v -0.5 0.9 -0.4
v -0.5 0.9 -0.5
v -0.5 0.9 -0.6
v -0.5 0.9 -1.2
v -0.5 1 1.4
v -0.5 1 1
v -0.5 1 -0.1
v -0.5 1 -0.3
v -0.5 1 -0.4
v -0.5 1 -0.5
v -0.5 1 -0.6
v -0.5 1 -1.2
v -0.5 1.1 1
v -0.5 1.1 0
v -0.5 1.1 -0.4
v -0.5 1.1 -0.6
v -0.4 0.6 1.1
v -0.4 0.6 0.8
v -0.4 0.7 -0.2
v -0.4 0.7 -0.5
v -0.4 0.7 -1.2
v -0.4 0.7 -1.3
v -0.4 0.8 1.1
v -0.4 0.8 0.8
v -0.4 0.8 -0.4
v -0.4 0.8 -0.5
v -0.4 0.9 -0.2
v -0.4 0.9 -0.4
v -0.4 1 1.8
v -0.4 1 1.7
v -0.4 1 1
v -0.4 1.1 1.8
v -0.4 1.1 1.7
v -0.4 1.1 1
v -0.4 1.1 -1.2
v -0.4 1.1 -1.3
v -0.5 1 1.8
v -0.5 1.1 1.8
v -0.4 1 1.8
v -0.4 1.1 1.8
v -0.8 0.9 1.4
v -0.8 1.1 1.4
v -0.7 0.8 1.4
v -0.7 0.9 1.4
v -0.7 1.1 1.4
v -0.7 1.2 1.4
v -0.6 0.8 1.4
v -0.6 0.9 1.4
v -0.6 1.1 1.4
v -0.6 1.2 1.4
v -0.5 0.9 1.4
v -0.5 1 1.4
v -0.5 1.1 1.4
v -0.8 0.7 1.3
v -0.8 0.9 1.3
v -0.7 0.8 1.3
v -0.7 0.9 1.3
v -0.6 0.8 1.3
v -0.6 0.9 1.3
v -0.5 0.7 1.3
v -0.5 0.9 1.3
v -0.9 0.6 1.1
v -0.9 0.8 1.1
v -0.8 0.7 1.1
v -0.8 0.8 1.1
v -0.7 0.9 1.1
v -0.7 1.1 1.1
v -0.6 0.9 1.1
v -0.6 1.1 1.1
v -0.5 0.7 1.1
v -0.5 0.8 1.1
v -0.4 0.6 1.1
v -0.4 0.8 1.1
v -0.8 0.4 0.5
v -0.8 0.9 0.5
v -0.7 0.8 0.5
v -0.7 0.9 0.5
v -0.6 0.8 0.5
v -0.6 0.9 0.5
v -0.5 0.4 0.5
v -0.5 0.9 0.5
v -0.9 0.7 0
v -0.9 0.9 0
v -0.8 0.7 0
v -0.8 0.9 0
v -0.7 0.7 0
v -0.7 0.8 0
v -0.7 0.9 0
v -0.7 1.2 0
v -0.7 1.3 0
v -0.6 0.7 0
v -0.6 0.8 0
v -0.6 0.9 0
v -0.6 1.2 0
v -0.6 1.3 0
v -0.5 0.7 0
v -0.5 0.9 0
v -0.8 0.6 -0.2
v -0.8 0.7 -0.2
v -0.7 0.6 -0.2
v -0.7 0.7 -0.2
v -0.6 0.6 -0.2
v -0.6 0.7 -0.2
v -0.6 0.8 -0.2
v -0.6 0.9 -0.2
v -0.5 0.6 -0.2
v -0.5 0.7 -0.2
v -0.5 0.8 -0.2
v -0.4 0.7 -0.2
v -0.4 0.9 -0.2
v -0.8 0.9 -0.3
v -0.8 1 -0.3
v -0.7 0.5 -0.3
v -0.7 0.6 -0.3
v -0.7 0.9 -0.3
v -0.7 1 -0.3
v -0.6 0.5 -0.3
v -0.6 0.6 -0.3
v -0.6 0.9 -0.3
v -0.6 1 -0.3
v -0.5 0.9 -0.3
v -0.5 1 -0.3
v -0.9 0.7 -1.2
v -0.9 1.1 -1.2
v -0.8 0.8 -1.2
v -0.8 0.9 -1.2
v -0.8 1 -1.2
v -0.7 0.8 -1.2
v -0.7 1 -1.2
v -0.6 0.8 -1.2
v -0.6 1 -1.2
v -0.5 0.8 -1.2
v -0.5 0.9 -1.2
v -0.5 1 -1.2
v -0.4 0.7 -1.2
v -0.4 1.1 -1.2
v -0.5 1 1
v -0.5 1.1 1
v -0.4 1 1
v -0.4 1.1 1
v -0.9 0.6 0.8
v -0.9 0.8 0.8
v -0.8 0.7 0.8
v -0.8 0.8 0.8
v -0.5 0.7 0.8
v -0.5 0.8 0.8
v -0.4 0.6 0.8
v -0.4 0.8 0.8
v -0.8 0.7 0.7
v -0.8 0.9 0.7
v -0.7 0.8 0.7
v -0.7 0.9 0.7
v -0.6 0.8 0.7
v -0.6 0.9 0.7
v -0.5 0.7 0.7
v -0.5 0.9 0.7
v -0.8 0.4 0.3
v -0.8 0.9 0.3
v -0.7 0.8 0.3
v -0.7 0.9 0.3
v -0.6 0.8 0.3
v -0.6 0.9 0.3
v -0.5 0.4 0.3
v -0.5 0.9 0.3
v -0.8 0.9 -0.1
v -0.8 1 -0.1
v -0.7 0.9 -0.1
v -0.7 1 -0.1
v -0.7 1.1 -0.1
v -0.7 1.2 -0.1
v -0.7 1.3 -0.1
v -0.6 0.8 -0.1
v -0.6 0.9 -0.1
v -0.6 1 -0.1
v -0.6 1.1 -0.1
v -0.6 1.2 -0.1
v -0.6 1.3 -0.1
v -0.5 0.8 -0.1
v -0.5 1 -0.1
v -0.8 0.6 -0.3
v -0.8 0.7 -0.3
v -0.7 0.6 -0.3
v -0.7 0.7 -0.3
v -0.6 0.6 -0.3
v -0.6 0.7 -0.3
v -0.5 0.6 -0.3
v -0.5 0.7 -0.3
v -0.7 0.5 -0.4
v -0.7 0.7 -0.4
v -0.6 0.5 -0.4
v -0.6 0.7 -0.4
v -0.5 0.8 -0.4
v -0.5 0.9 -0.4
v -0.4 0.8 -0.4
v -0.4 0.9 -0.4
v -0.9 0.7 -0.5
v -0.9 0.9 -0.5
v -0.8 0.8 -0.5
v -0.8 0.9 -0.5
v -0.7 0.8 -0.5
v -0.6 0.8 -0.5
v -0.5 0.8 -0.5
v -0.4 0.7 -0.5
v -0.4 0.8 -0.5
v -0.8 1 -0.6
v -0.8 1.1 -0.6
v -0.7 1 -0.6
v -0.6 1 -0.6
v -0.5 1 -0.6
v -0.5 1.1 -0.6
v -0.9 0.7 -1.3
v -0.9 1.1 -1.3
v -0.4 0.7 -1.3
v -0.4 1.1 -1.3
v -0.8 0.4 0.5
v -0.5 0.4 0.5
v -0.8 0.4 0.3
v -0.5 0.4 0.3
v -0.7 0.5 -0.3
v -0.6 0.5 -0.3
v -0.7 0.5 -0.4
v -0.6 0.5 -0.4
v -0.9 0.6 1.1
v -0.4 0.6 1.1
v -0.9 0.6 0.8
v -0.4 0.6 0.8
v -0.8 0.6 -0.2
v -0.7 0.6 -0.2
v -0.6 0.6 -0.2
v -0.5 0.6 -0.2
v -0.8 0.6 -0.3
v -0.7 0.6 -0.3
v -0.6 0.6 -0.3
v -0.5 0.6 -0.3
v -0.8 0.7 1.3
v -0.5 0.7 1.3
v -0.8 0.7 1.1
v -0.5 0.7 1.1
v -0.8 0.7 0.8
v -0.5 0.7 0.8
v -0.8 0.7 0.7
v -0.5 0.7 0.7
v -0.9 0.7 0
v -0.8 0.7 0
v -0.7 0.7 0
v -0.6 0.7 0
v -0.5 0.7 0
v -0.8 0.7 -0.2
v -0.7 0.7 -0.2
v -0.6 0.7 -0.2
v -0.5 0.7 -0.2
v -0.4 0.7 -0.2
v -0.8 0.7 -0.3
v -0.7 0.7 -0.3
v -0.6 0.7 -0.3
v -0.5 0.7 -0.3
v -0.8 0.7 -0.4
v -0.7 0.7 -0.4
v -0.6 0.7 -0.4
v -0.5 0.7 -0.4
v -0.9 0.7 -0.5
v -0.4 0.7 -0.5
v -0.9 0.7 -1.2
v -0.4 0.7 -1.2
v -0.9 0.7 -1.3
v -0.4 0.7 -1.3
v -0.7 0.8 1.4
v -0.6 0.8 1.4
v -0.7 0.8 1.3
v -0.6 0.8 1.3
v -0.7 0.8 0.7
v -0.6 0.8 0.7
v -0.7 0.8 0.5
v -0.6 0.8 0.5
v -0.7 0.8 0.3
v -0.6 0.8 0.3
v -0.7 0.8 0
v -0.6 0.8 0
v -0.8 0.8 -0.5
v -0.7 0.8 -0.5
v -0.6 0.8 -0.5
v -0.5 0.8 -0.5
v -0.8 0.8 -1.2
v -0.7 0.8 -1.2
v -0.6 0.8 -1.2
v -0.5 0.8 -1.2
v -0.8 0.9 1.4
v -0.7 0.9 1.4
v -0.6 0.9 1.4
v -0.5 0.9 1.4
v -0.8 0.9 1.3
v -0.7 0.9 1.3
v -0.6 0.9 1.3
v -0.5 0.9 1.3
v -0.8 0.9 0.7
v -0.7 0.9 0.7
v -0.6 0.9 0.7
v -0.5 0.9 0.7
v -0.8 0.9 0.5
v -0.7 0.9 0.5
v -0.6 0.9 0.5
v -0.5 0.9 0.5
v -0.8 0.9 0.3
v -0.7 0.9 0.3
v -0.6 0.9 0.3
v -0.5 0.9 0.3
v -0.8 0.9 0
v -0.7 0.9 0
v -0.6 0.9 0
v -0.5 0.9 0
v -0.5 1 1.8
v -0.4 1 1.8
v -0.5 1 1.7
v -0.4 1 1.7
v -0.5 1 1.4
v -0.5 1 1
v -0.4 1 1
v -0.8 1 -0.1
v -0.7 1 -0.1
v -0.6 1 -0.1
v -0.5 1 -0.1
v -0.8 1 -0.3
v -0.7 1 -0.3
v -0.6 1 -0.3
v -0.5 1 -0.3
v -0.7 1.1 1.4
v -0.6 1.1 1.4
v -0.7 1.1 1.1
v -0.6 1.1 1.1
v -0.9 0.8 1.1
v -0.8 0.8 1.1
v -0.5 0.8 1.1
v -0.4 0.8 1.1
v -0.9 0.8 0.8
v -0.8 0.8 0.8
v -0.5 0.8 0.8
v -0.4 0.8 0.8
v -0.6 0.8 -0.1
v -0.5 0.8 -0.1
v -0.6 0.8 -0.2
v -0.5 0.8 -0.2
v -0.5 0.8 -0.4
v -0.4 0.8 -0.4
v -0.5 0.8 -0.5
v -0.4 0.8 -0.5
v -0.7 0.9 1.4
v -0.6 0.9 1.4
v -0.7 0.9 1.1
v -0.6 0.9 1.1
v -0.9 0.9 0
v -0.8 0.9 0
v -0.8 0.9 -0.1
v -0.7 0.9 -0.1
v -0.6 0.9 -0.2
v -0.4 0.9 -0.2
v -0.8 0.9 -0.3
v -0.7 0.9 -0.3
v -0.6 0.9 -0.3
v -0.5 0.9 -0.3
v -0.8 0.9 -0.4
v -0.5 0.9 -0.4
v -0.4 0.9 -0.4
v -0.9 0.9 -0.5
v -0.8 0.9 -0.5
v -0.8 1 -0.6
v -0.7 1 -0.6
v -0.6 1 -0.6
v -0.5 1 -0.6
v -0.8 1 -1.2
v -0.7 1 -1.2
v -0.6 1 -1.2
v -0.5 1 -1.2
v -0.5 1.1 1.8
v -0.4 1.1 1.8
v -0.5 1.1 1.7
v -0.4 1.1 1.7
v -0.8 1.1 1.4
v -0.7 1.1 1.4
v -0.6 1.1 1.4
v -0.5 1.1 1.4
v -0.5 1.1 1
v -0.4 1.1 1
v -0.8 1.1 0
v -0.7 1.1 0
v -0.6 1.1 0
v -0.5 1.1 0
v -0.7 1.1 -0.1
v -0.6 1.1 -0.1
v -0.8 1.1 -0.4
v -0.7 1.1 -0.4
v -0.6 1.1 -0.4
v -0.5 1.1 -0.4
v -0.8 1.1 -0.6
v -0.5 1.1 -0.6
v -0.9 1.1 -1.2
v -0.4 1.1 -1.2
v -0.9 1.1 -1.3
v -0.4 1.1 -1.3
v -0.7 1.2 1.4
v -0.6 1.2 1.4
v -0.7 1.2 0
v -0.6 1.2 0
v -0.7 1.3 0
v -0.6 1.3 0
v -0.7 1.3 -0.1
v -0.6 1.3 -0.1

# faces
f 7/1/1 2/1/1 1/1/1
f 8/1/1 2/1/1 7/1/1
f 9/1/1 4/1/1 3/1/1
f 10/1/1 4/1/1 9/1/1
f 11/6/1 6/6/1 5/6/1
f 12/6/1 6/6/1 11/6/1
f 21/6/1 16/6/1 15/6/1
f 22/6/1 16/6/1 21/6/1
f 23/6/1 18/6/1 17/6/1
f 24/6/1 20/6/1 19/6/1
f 28/6/1 23/6/1 17/6/1
f 28/6/1 24/6/1 23/6/1
f 29/6/1 20/6/1 24/6/1
f 29/6/1 24/6/1 28/6/1
f 30/4/1 14/4/1 13/4/1
f 31/4/1 14/4/1 30/4/1
f 36/2/1 26/2/1 25/2/1
f 37/2/1 26/2/1 36/2/1
f 38/2/1 26/2/1 37/2/1
f 39/6/1 33/6/1 32/6/1
f 40/6/1 35/6/1 34/6/1
f 41/2/1 36/2/1 35/2/1
f 41/2/1 37/2/1 36/2/1
f 41/6/1 38/6/1 37/6/1
f 42/6/1 38/6/1 41/6/1
f 43/5/1 29/5/1 28/5/1
f 43/5/1 28/5/1 27/5/1
f 43/5/1 30/5/1 29/5/1
f 43/5/1 31/5/1 30/5/1
f 43/5/1 32/5/1 31/5/1
f 44/6/1 39/6/1 32/6/1
f 44/5/1 32/5/1 43/5/1
f 44/6/1 40/6/1 39/6/1
f 45/2/1 41/2/1 35/2/1
f 45/6/1 40/6/1 44/6/1
f 45/6/1 35/6/1 40/6/1
f 46/2/1 41/2/1 45/2/1
f 49/6/1 48/6/1 47/6/1
f 50/6/1 48/6/1 49/6/1
f 51/6/1 48/6/1 50/6/1
f 58/5/1 53/5/1 52/5/1
f 59/5/1 53/5/1 58/5/1
f 60/6/1 55/6/1 54/6/1
f 61/6/1 55/6/1 60/6/1
f 62/6/1 57/6/1 56/6/1
f 63/6/1 57/6/1 62/6/1
f 66/6/1 65/6/1 64/6/1
f 67/6/1 65/6/1 66/6/1
f 71/2/1 69/2/1 68/2/1
f 71/2/1 70/2/1 69/2/1
f 72/2/1 70/2/1 71/2/1
f 73/2/1 70/2/1 72/2/1
f 74/6/1 73/6/1 72/6/1
f 75/6/1 73/6/1 74/6/1
f 78/5/1 77/5/1 76/5/1
f 79/5/1 77/5/1 78/5/1
f 83/3/1 81/3/1 80/3/1
f 84/6/1 82/6/1 81/6/1
f 84/3/1 81/3/1 83/3/1
f 85/6/1 82/6/1 84/6/1
f 86/5/2 87/5/2 88/5/2
f 88/5/2 87/5/2 89/5/2
f 90/6/2 91/6/2 92/6/2
f 92/6/2 91/6/2 93/6/2
f 93/6/2 91/6/2 94/6/2
f 95/5/2 96/5/2 103/5/2
f 103/5/2 96/5/2 104/5/2
f 97/6/2 98/6/2 105/6/2
f 105/6/2 98/6/2 106/6/2
f 99/6/2 100/6/2 107/6/2
f 107/6/2 100/6/2 108/6/2
f 101/1/2 102/1/2 109/1/2
f 109/1/2 102/1/2 110/1/2
f 110/6/2 111/6/2 112/6/2
f 109/6/2 110/6/2 112/6/2
f 112/6/2 111/6/2 113/6/2
f 114/2/2 115/2/2 117/2/2
f 115/2/2 116/2/2 117/2/2
f 117/2/2 116/2/2 118/2/2
f 118/2/2 116/2/2 119/2/2
f 118/6/2 119/6/2 120/6/2
f 120/6/2 119/6/2 121/6/2
f 124/6/2 125/6/2 131/6/2
f 131/6/2 125/6/2 132/6/2
f 126/6/2 127/6/2 133/6/2
f 128/6/2 129/6/2 134/6/2
f 130/6/2 131/6/2 135/6/2
f 135/6/2 131/6/2 136/6/2
f 126/6/2 133/6/2 141/6/2
f 133/6/2 134/6/2 141/6/2
f 134/6/2 129/6/2 142/6/2
f 141/6/2 134/6/2 142/6/2
f 122/4/2 123/4/2 143/4/2
f 143/4/2 123/4/2 144/4/2
f 130/6/2 135/6/2 145/6/2
f 137/1/2 138/1/2 147/1/2
f 138/2/2 139/2/2 148/2/2
f 147/1/2 138/1/2 148/1/2
f 148/2/2 139/2/2 149/2/2
f 149/2/2 139/2/2 150/2/2
f 141/5/2 142/5/2 151/5/2
f 144/5/2 145/5/2 151/5/2
f 143/5/2 144/5/2 151/5/2
f 140/5/2 141/5/2 151/5/2
f 142/5/2 143/5/2 151/5/2
f 151/5/2 145/5/2 152/5/2
f 145/6/2 135/6/2 153/6/2
f 146/6/2 147/6/2 154/6/2
f 147/6/2 148/6/2 154/6/2
f 154/6/2 148/6/2 155/6/2
f 148/2/2 149/2/2 156/2/2
f 155/6/2 148/6/2 156/6/2
f 149/6/2 150/6/2 157/6/2
f 156/2/2 149/2/2 157/2/2
f 157/6/2 150/6/2 158/6/2
f 152/5/2 145/5/2 159/5/2
f 145/6/2 153/6/2 160/6/2
f 159/5/2 145/5/2 160/5/2
f 154/6/2 155/6/2 160/6/2
f 153/6/2 154/6/2 160/6/2
f 155/2/2 156/2/2 161/2/2
f 160/6/2 155/6/2 161/6/2
f 156/2/2 157/2/2 161/2/2
f 161/2/2 157/2/2 162/2/2
f 163/1/2 164/1/2 169/1/2
f 169/1/2 164/1/2 170/1/2
f 165/1/2 166/1/2 171/1/2
f 171/1/2 166/1/2 172/1/2
f 165/1/2 171/1/2 173/1/2
f 173/1/2 171/1/2 174/1/2
f 175/3/2 176/3/2 178/3/2
f 176/6/2 177/6/2 179/6/2
f 178/3/2 176/3/2 179/3/2
f 179/6/2 177/6/2 180/6/2
f 167/6/2 168/6/2 181/6/2
f 181/6/2 168/6/2 182/6/2
f 185/3/3 184/3/3 183/3/3
f 186/3/3 184/3/3 185/3/3
f 190/5/3 188/5/3 187/5/3
f 191/5/3 188/5/3 190/5/3
f 193/5/3 190/5/3 189/5/3
f 194/5/3 190/5/3 193/5/3
f 195/2/3 192/2/3 191/2/3
f 196/2/3 192/2/3 195/2/3
f 197/5/3 195/5/3 194/5/3
f 198/5/3 195/5/3 197/5/3
f 199/5/3 195/5/3 198/5/3
f 202/6/3 201/6/3 200/6/3
f 203/6/3 201/6/3 202/6/3
f 204/6/3 202/6/3 200/6/3
f 206/6/3 204/6/3 200/6/3
f 206/6/3 205/6/3 204/6/3
f 207/6/3 205/6/3 206/6/3
f 210/1/3 209/1/3 208/1/3
f 211/1/3 209/1/3 210/1/3
f 214/5/3 213/5/3 212/5/3
f 215/5/3 213/5/3 214/5/3
f 216/1/3 210/1/3 208/1/3
f 218/1/3 216/1/3 208/1/3
f 218/1/3 217/1/3 216/1/3
f 219/1/3 217/1/3 218/1/3
f 222/4/3 221/4/3 220/4/3
f 223/4/3 221/4/3 222/4/3
f 224/4/3 222/4/3 220/4/3
f 226/4/3 224/4/3 220/4/3
f 226/4/3 225/4/3 224/4/3
f 227/4/3 225/4/3 226/4/3
f 230/1/3 229/1/3 228/1/3
f 231/1/3 229/1/3 230/1/3
f 232/6/3 231/6/3 230/6/3
f 233/6/3 231/6/3 232/6/3
f 234/6/3 231/6/3 233/6/3
f 237/5/3 233/5/3 232/5/3
f 238/5/3 233/5/3 237/5/3
f 240/6/3 236/6/3 235/6/3
f 241/6/3 236/6/3 240/6/3
f 242/6/3 239/6/3 238/6/3
f 242/6/3 238/6/3 237/6/3
f 243/6/3 239/6/3 242/6/3
f 246/6/3 245/6/3 244/6/3
f 247/6/3 245/6/3 246/6/3
f 248/5/3 247/5/3 246/5/3
f 249/5/3 247/5/3 248/5/3
f 252/6/3 249/6/3 248/6/3
f 253/6/3 249/6/3 252/6/3
f 254/1/3 251/1/3 250/1/3
f 255/1/3 254/1/3 253/1/3
f 256/1/3 251/1/3 254/1/3
f 256/1/3 254/1/3 255/1/3
f 261/6/3 258/6/3 257/6/3
f 262/6/3 258/6/3 261/6/3
f 263/6/3 260/6/3 259/6/3
f 264/6/3 260/6/3 263/6/3
f 267/6/3 266/6/3 265/6/3
f 268/6/3 266/6/3 267/6/3
f 271/6/3 270/6/3 269/6/3
f 272/6/3 270/6/3 271/6/3
f 273/6/3 270/6/3 272/6/3
f 274/6/3 271/6/3 269/6/3
f 275/6/3 270/6/3 273/6/3
f 276/6/3 274/6/3 269/6/3
f 277/6/3 270/6/3 275/6/3
f 278/6/3 276/6/3 269/6/3
f 280/6/3 270/6/3 277/6/3
f 281/6/3 279/6/3 278/6/3
f 281/6/3 280/6/3 279/6/3
f 281/6/3 278/6/3 269/6/3
f 282/6/3 270/6/3 280/6/3
f 282/6/3 280/6/3 281/6/3
f 283/6/4 284/6/4 285/6/4
f 285/6/4 284/6/4 286/6/4
f 287/1/4 288/1/4 289/1/4
f 289/1/4 288/1/4 290/1/4
f 287/1/4 289/1/4 291/1/4
f 287/1/4 291/1/4 293/1/4
f 291/1/4 292/1/4 293/1/4
f 293/1/4 292/1/4 294/1/4
f 295/6/4 296/6/4 297/6/4
f 297/6/4 296/6/4 298/6/4
f 295/6/4 297/6/4 299/6/4
f 295/6/4 299/6/4 301/6/4
f 299/6/4 300/6/4 301/6/4
f 301/6/4 300/6/4 302/6/4
f 303/4/4 304/4/4 305/4/4
f 305/4/4 304/4/4 306/4/4
f 303/4/4 305/4/4 307/4/4
f 303/4/4 307/4/4 309/4/4
f 307/4/4 308/4/4 309/4/4
f 309/4/4 308/4/4 310/4/4
f 311/6/4 312/6/4 313/6/4
f 313/6/4 312/6/4 314/6/4
f 315/2/4 316/2/4 321/2/4
f 316/6/4 317/6/4 322/6/4
f 321/2/4 316/2/4 322/2/4
f 322/6/4 317/6/4 323/6/4
f 319/6/4 320/6/4 324/6/4
f 318/6/4 319/6/4 324/6/4
f 324/6/4 320/6/4 325/6/4
f 326/6/4 327/6/4 328/6/4
f 328/6/4 327/6/4 329/6/4
f 330/6/4 331/6/4 332/6/4
f 332/6/4 331/6/4 333/6/4
f 334/6/4 335/6/4 336/6/4
f 336/6/4 335/6/4 337/6/4
f 338/1/4 339/1/4 340/1/4
f 340/1/4 339/1/4 341/1/4
f 342/1/4 343/1/4 344/1/4
f 344/1/4 343/1/4 345/1/4
f 342/1/4 344/1/4 346/1/4
f 342/1/4 346/1/4 347/1/4
f 342/1/4 347/1/4 348/1/4
f 342/1/4 348/1/4 349/1/4
f 349/1/4 348/1/4 350/1/4
f 351/2/4 352/2/4 353/2/4
f 353/2/4 352/2/4 354/2/4
f 354/2/4 352/2/4 355/2/4
f 355/2/4 352/2/4 356/2/4
f 357/6/4 358/6/4 359/6/4
f 359/6/4 358/6/4 360/6/4
f 363/4/5 362/4/5 361/4/5
f 364/4/5 362/4/5 363/4/5
f 367/6/5 366/6/5 365/6/5
f 368/6/5 366/6/5 367/6/5
f 371/1/5 370/1/5 369/1/5
f 372/1/5 370/1/5 371/1/5
f 377/6/5 374/6/5 373/6/5
f 378/5/5 375/5/5 374/5/5
f 378/6/5 374/6/5 377/6/5
f 379/6/5 376/6/5 375/6/5
f 379/5/5 375/5/5 378/5/5
f 380/6/5 376/6/5 379/6/5
f 383/6/5 382/6/5 381/6/5
f 384/6/5 382/6/5 383/6/5
f 387/6/5 386/6/5 385/6/5
f 388/6/5 386/6/5 387/6/5
f 394/1/5 390/1/5 389/1/5
f 394/6/5 391/6/5 390/6/5
f 395/5/5 392/5/5 391/5/5
f 395/6/5 391/6/5 394/6/5
f 396/6/5 393/6/5 392/6/5
f 396/5/5 392/5/5 395/5/5
f 397/6/5 393/6/5 396/6/5
f 399/1/5 394/1/5 389/1/5
f 402/1/5 398/1/5 397/1/5
f 403/6/5 400/6/5 399/6/5
f 403/1/5 399/1/5 389/1/5
f 404/6/5 400/6/5 403/6/5
f 405/6/5 402/6/5 401/6/5
f 406/1/5 398/1/5 402/1/5
f 406/6/5 402/6/5 405/6/5
f 407/1/5 404/1/5 403/1/5
f 407/1/5 405/1/5 404/1/5
f 407/1/5 406/1/5 405/1/5
f 407/1/5 403/1/5 389/1/5
f 408/1/5 398/1/5 406/1/5
f 408/1/5 406/1/5 407/1/5
f 411/6/5 410/6/5 409/6/5
f 412/6/5 410/6/5 411/6/5
f 415/5/5 414/5/5 413/5/5
f 416/5/5 414/5/5 415/5/5
f 419/6/5 418/6/5 417/6/5
f 420/6/5 418/6/5 419/6/5
f 423/6/5 422/6/5 421/6/5
f 424/6/5 422/6/5 423/6/5
f 429/2/5 426/2/5 425/2/5
f 430/6/5 427/6/5 426/6/5
f 430/2/5 426/2/5 429/2/5
f 431/2/5 428/2/5 427/2/5
f 431/6/5 427/6/5 430/6/5
f 432/2/5 428/2/5 431/2/5
f 437/5/5 434/5/5 433/5/5
f 438/5/5 434/5/5 437/5/5
f 439/5/5 436/5/5 435/5/5
f 440/5/5 436/5/5 439/5/5
f 445/5/5 442/5/5 441/5/5
f 446/5/5 442/5/5 445/5/5
f 447/5/5 444/5/5 443/5/5
f 448/5/5 444/5/5 447/5/5
f 453/5/5 450/5/5 449/5/5
f 454/5/5 450/5/5 453/5/5
f 455/5/5 452/5/5 451/5/5
f 456/5/5 452/5/5 455/5/5
f 459/3/5 458/3/5 457/3/5
f 460/3/5 458/3/5 459/3/5
f 461/6/5 460/6/5 459/6/5
f 462/6/5 460/6/5 461/6/5
f 463/6/5 460/6/5 462/6/5
f 468/6/5 465/6/5 464/6/5
f 469/6/5 465/6/5 468/6/5
f 470/6/5 467/6/5 466/6/5
f 471/6/5 467/6/5 470/6/5
f 474/2/5 473/2/5 472/2/5
f 475/2/5 473/2/5 474/2/5
f 476/1/6 477/1/6 480/1/6
f 480/1/6 477/1/6 481/1/6
f 478/1/6 479/1/6 482/1/6
f 482/1/6 479/1/6 483/1/6
f 484/6/6 485/6/6 486/6/6
f 486/6/6 485/6/6 487/6/6
f 488/1/6 489/1/6 490/1/6
f 490/1/6 489/1/6 491/1/6
f 492/5/6 493/5/6 494/5/6
f 494/5/6 493/5/6 495/5/6
f 496/1/6 497/1/6 498/1/6
f 498/1/6 499/1/6 502/1/6
f 496/1/6 498/1/6 502/1/6
f 502/1/6 499/1/6 503/1/6
f 500/1/6 501/1/6 504/1/6
f 504/1/6 501/1/6 505/1/6
f 496/1/6 502/1/6 506/1/6
f 505/1/6 501/1/6 507/1/6
f 507/1/6 501/1/6 508/1/6
f 496/1/6 506/1/6 509/1/6
f 509/1/6 506/1/6 510/1/6
f 511/6/6 512/6/6 515/6/6
f 512/2/6 513/2/6 516/2/6
f 515/6/6 512/6/6 516/6/6
f 513/6/6 514/6/6 517/6/6
f 516/2/6 513/2/6 517/2/6
f 517/6/6 514/6/6 518/6/6
f 519/3/6 520/3/6 521/3/6
f 521/3/6 520/3/6 522/3/6
f 521/6/6 522/6/6 526/6/6
f 526/6/6 522/6/6 527/6/6
f 525/5/6 526/5/6 527/5/6
f 527/6/6 522/6/6 528/6/6
f 523/5/6 524/5/6 529/5/6
f 529/5/6 524/5/6 530/5/6
f 525/5/6 527/5/6 531/5/6
f 531/5/6 527/5/6 532/5/6
f 529/6/6 530/6/6 533/6/6
f 531/6/6 532/6/6 534/6/6
f 529/6/6 533/6/6 535/6/6
f 533/2/6 534/2/6 536/2/6
f 535/6/6 533/6/6 536/6/6
f 534/6/6 532/6/6 537/6/6
f 536/2/6 534/2/6 537/2/6
f 537/6/6 532/6/6 538/6/6
f 535/2/6 536/2/6 539/2/6
f 536/2/6 537/2/6 539/2/6
f 537/2/6 538/2/6 539/2/6
f 539/2/6 538/2/6 540/2/6
f 541/6/6 542/6/6 543/6/6
f 543/6/6 542/6/6 544/6/6
f 545/2/6 546/2/6 547/2/6
f 547/2/6 546/2/6 548/2/6
f 549/6/6 550/6/6 551/6/6
f 551/6/6 550/6/6 552/6/6
