# MagicaVoxel @ Ephtracy

# group
o 

# material
mtllib Shotgun_Hands.mtl
usemtl palette

# normals
vn -1 0 0
vn 1 0 0
vn 0 0 1
vn 0 0 -1
vn 0 -1 0
vn 0 1 0

# texcoords
vt 0.0332031 0.5
vt 0.947266 0.5
vt 0.982422 0.5
vt 0.990234 0.5

# verts
v -1.8 1.8 -0.5
v -1.8 1.8 -0.9
v -1.8 1.9 -0.6
v -1.8 1.9 -0.8
v -1.8 2.1 -0.5
v -1.8 2.1 -0.6
v -1.8 2.1 -0.8
v -1.8 2.1 -0.9
v -1.8 2.4 -0.6
v -1.8 2.4 -0.8
v -1.6 1.9 -0.6
v -1.6 1.9 -0.8
v -1.6 2.1 -0.6
v -1.6 2.1 -0.8
v -1.5 1.7 -0.4
v -1.5 1.7 -1
v -1.5 1.8 -0.5
v -1.5 1.8 -0.9
v -1.5 1.9 -0.5
v -1.5 1.9 -0.6
v -1.5 2 -0.4
v -1.5 2 -0.5
v -1.5 2 -0.6
v -1.5 2 -0.9
v -1.5 2 -1
v -1.5 2.1 -0.8
v -1.5 2.1 -0.9
v -1.5 2.2 -0.6
v -1.5 2.2 -0.8
v -1.5 2.3 -0.5
v -1.5 2.3 -0.9
v -1.3 1.5 -0.3
v -1.3 1.5 -1.1
v -1.3 1.7 -0.4
v -1.3 1.7 -1
v -1.3 1.9 -0.3
v -1.3 1.9 -0.4
v -1.3 1.9 -0.5
v -1.3 1.9 -0.6
v -1.3 1.9 -0.8
v -1.3 1.9 -0.9
v -1.3 1.9 -1
v -1.3 1.9 -1.1
v -1.3 2 -0.5
v -1.3 2 -0.6
v -1.3 2 -0.8
v -1.3 2 -0.9
v -1.3 2.2 -0.6
v -1.3 2.2 -0.8
v -1.3 2.3 -0.5
v -1.3 2.3 -0.9
v -1.1 1.9 -0.5
v -1.1 1.9 -0.6
v -1.1 1.9 -0.8
v -1.1 1.9 -0.9
v -1.1 2 -0.5
v -1.1 2 -0.6
v -1.1 2 -0.8
v -1.1 2 -0.9
v -1.1 2.2 -0.6
v -1.1 2.2 -0.8
v -1.1 2.3 -0.5
v -1.1 2.3 -0.9
v -0.9 1.9 -0.5
v -0.9 1.9 -0.6
v -0.9 1.9 -0.8
v -0.9 1.9 -0.9
v -0.9 2 -0.5
v -0.9 2 -0.6
v -0.9 2 -0.8
v -0.9 2 -0.9
v -0.9 2.2 -0.6
v -0.9 2.2 -0.8
v -0.9 2.3 -0.5
v -0.9 2.3 -0.9
v -0.7 1.9 -0.5
v -0.7 1.9 -0.6
v -0.7 1.9 -0.8
v -0.7 1.9 -0.9
v -0.7 2 -0.5
v -0.7 2 -0.6
v -0.7 2 -0.8
v -0.7 2 -0.9
v -0.7 2.2 -0.6
v -0.7 2.2 -0.8
v -0.7 2.3 -0.5
v -0.7 2.3 -0.9
v -0.5 2 -0.5
v -0.5 2 -0.6
v -0.5 2 -0.8
v -0.5 2 -0.9
v -0.5 2.2 -0.6
v -0.5 2.2 -0.8
v -0.5 2.3 -0.5
v -0.5 2.3 -0.9
v -0.3 2 -0.6
v -0.3 2 -0.8
v -0.3 2.1 -0.6
v -0.3 2.1 -0.8
v -0.0999999 1.6 -0.6
v -0.0999999 1.6 -0.8
v -0.0999999 1.8 -0.6
v -0.0999999 1.8 -0.8
v 0.1 1.7 -0.6
v 0.1 1.7 -0.7
v 0.1 1.8 -0.6
v 0.1 1.8 -0.7
v 0.2 1.5 -0.5
v 0.2 1.5 -0.9
v 0.2 1.6 -0.6
v 0.2 1.6 -0.8
v 0.2 1.7 -0.6
v 0.2 1.7 -0.7
v 0.2 1.7 -0.8
v 0.2 1.7 -0.9
v 0.2 1.8 -0.5
v 0.2 1.8 -0.6
v 0.2 1.8 -0.7
v 0.2 1.8 -0.8
v 0.4 1.8 -0.5
v 0.4 1.8 -0.6
v 0.4 1.8 -0.8
v 0.4 1.8 -0.9
v 0.4 2.1 -0.5
v 0.4 2.1 -0.6
v 0.4 2.1 -0.8
v 0.4 2.1 -0.9
v 0.4 2.2 -0.6
v 0.4 2.2 -0.8
v 0.5 1.7 -0.8
v 0.5 1.7 -0.9
v 0.5 1.8 -0.8
v 0.5 1.8 -0.9
v 1.3 1.6 -0.5
v 1.3 1.6 -0.9
v 1.3 1.7 -0.5
v 1.3 1.7 -0.9
v -1.7 2.2 -0.6
v -1.7 2.2 -0.8
v -1.7 2.4 -0.6
v -1.7 2.4 -0.8
v -1.6 1.9 -0.5
v -1.6 1.9 -0.6
v -1.6 2.1 -0.5
v -1.6 2.1 -0.6
v -1.4 1.9 -0.5
v -1.4 1.9 -0.6
v -1.4 1.9 -0.8
v -1.4 1.9 -0.9
v -1.4 2 -0.5
v -1.4 2 -0.6
v -1.4 2 -0.8
v -1.4 2 -0.9
v -1.4 2.2 -0.6
v -1.4 2.2 -0.8
v -1.4 2.3 -0.5
v -1.4 2.3 -0.9
v -1.2 1.9 -0.5
v -1.2 1.9 -0.6
v -1.2 1.9 -0.8
v -1.2 1.9 -0.9
v -1.2 2 -0.5
v -1.2 2 -0.6
v -1.2 2 -0.8
v -1.2 2 -0.9
v -1.2 2.2 -0.6
v -1.2 2.2 -0.8
v -1.2 2.3 -0.5
v -1.2 2.3 -0.9
v -1 1.5 -0.3
v -1 1.5 -1.1
v -1 1.7 -0.4
v -1 1.7 -1
v -1 1.9 -0.3
v -1 1.9 -0.4
v -1 1.9 -0.5
v -1 1.9 -0.6
v -1 1.9 -0.8
v -1 1.9 -0.9
v -1 1.9 -1
v -1 1.9 -1.1
v -1 2 -0.5
v -1 2 -0.6
v -1 2 -0.8
v -1 2 -0.9
v -1 2.2 -0.6
v -1 2.2 -0.8
v -1 2.3 -0.5
v -1 2.3 -0.9
v -0.8 1.9 -0.5
v -0.8 1.9 -0.6
v -0.8 1.9 -0.8
v -0.8 1.9 -0.9
v -0.8 2 -0.5
v -0.8 2 -0.6
v -0.8 2 -0.8
v -0.8 2 -0.9
v -0.8 2.2 -0.6
v -0.8 2.2 -0.8
v -0.8 2.3 -0.5
v -0.8 2.3 -0.9
v -0.6 1.7 -0.4
v -0.6 1.7 -1
v -0.6 1.8 -0.5
v -0.6 1.8 -0.9
v -0.6 2 -0.4
v -0.6 2 -0.5
v -0.6 2 -0.6
v -0.6 2 -0.8
v -0.6 2 -0.9
v -0.6 2 -1
v -0.6 2.2 -0.6
v -0.6 2.2 -0.8
v -0.6 2.3 -0.5
v -0.6 2.3 -0.9
v -0.4 2 -0.5
v -0.4 2 -0.9
v -0.4 2.3 -0.5
v -0.4 2.3 -0.9
v -0.3 1.8 -0.5
v -0.3 1.8 -0.6
v -0.3 1.8 -0.8
v -0.3 1.8 -0.9
v -0.3 2 -0.5
v -0.3 2 -0.6
v -0.3 2 -0.8
v -0.3 2 -0.9
v 0 1.7 -0.6
v 0 1.7 -0.8
v 0 1.8 -0.6
v 0 1.8 -0.8
v 0.5 1.5 -0.5
v 0.5 1.5 -0.9
v 0.5 1.7 -0.5
v 0.5 1.7 -0.6
v 0.5 1.7 -0.8
v 0.5 1.7 -0.9
v 1.4 2.1 -0.6
v 1.4 2.1 -0.8
v 1.4 2.2 -0.6
v 1.4 2.2 -0.8
v 1.6 2 -0.5
v 1.6 2 -0.9
v 1.6 2.1 -0.5
v 1.6 2.1 -0.9
v 1.8 1.6 -0.5
v 1.8 1.6 -0.9
v 1.8 2 -0.5
v 1.8 2 -0.9
v -1.3 1.5 -0.3
v -1.3 1.9 -0.3
v -1 1.5 -0.3
v -1 1.9 -0.3
v -1.5 1.7 -0.4
v -1.5 2 -0.4
v -1.3 1.7 -0.4
v -1.3 1.9 -0.4
v -1 1.7 -0.4
v -1 1.9 -0.4
v -0.6 1.7 -0.4
v -0.6 2 -0.4
v -1.8 1.8 -0.5
v -1.8 2.1 -0.5
v -1.6 1.9 -0.5
v -1.6 2.1 -0.5
v -1.5 1.8 -0.5
v -1.5 1.9 -0.5
v -1.5 2 -0.5
v -1.5 2.3 -0.5
v -1.4 2 -0.5
v -1.4 2.3 -0.5
v -1.3 2 -0.5
v -1.3 2.3 -0.5
v -1.2 2 -0.5
v -1.2 2.3 -0.5
v -1.1 2 -0.5
v -1.1 2.3 -0.5
v -1 2 -0.5
v -1 2.3 -0.5
v -0.9 2 -0.5
v -0.9 2.3 -0.5
v -0.8 2 -0.5
v -0.8 2.3 -0.5
v -0.7 2 -0.5
v -0.7 2.3 -0.5
v -0.6 1.8 -0.5
v -0.6 2 -0.5
v -0.6 2.3 -0.5
v -0.5 2 -0.5
v -0.5 2.3 -0.5
v -0.4 2 -0.5
v -0.4 2.3 -0.5
v -0.3 1.8 -0.5
v -0.3 2 -0.5
v 0.2 1.5 -0.5
v 0.2 1.8 -0.5
v 0.4 1.8 -0.5
v 0.4 2.1 -0.5
v 0.5 1.5 -0.5
v 0.5 1.7 -0.5
v 0.5 1.8 -0.5
v 1.3 1.6 -0.5
v 1.3 1.7 -0.5
v 1.6 2 -0.5
v 1.6 2.1 -0.5
v 1.8 1.6 -0.5
v 1.8 2 -0.5
v -1.8 2.1 -0.6
v -1.8 2.4 -0.6
v -1.7 2.2 -0.6
v -1.7 2.4 -0.6
v -1.6 1.9 -0.6
v -1.6 2.1 -0.6
v -1.5 1.9 -0.6
v -1.5 2 -0.6
v -1.5 2.2 -0.6
v -1.4 1.9 -0.6
v -1.4 2 -0.6
v -1.4 2.2 -0.6
v -1.3 1.9 -0.6
v -1.3 2 -0.6
v -1.3 2.2 -0.6
v -1.2 1.9 -0.6
v -1.2 2 -0.6
v -1.2 2.2 -0.6
v -1.1 1.9 -0.6
v -1.1 2 -0.6
v -1.1 2.2 -0.6
v -1 1.9 -0.6
v -1 2 -0.6
v -1 2.2 -0.6
v -0.9 1.9 -0.6
v -0.9 2 -0.6
v -0.9 2.2 -0.6
v -0.8 1.9 -0.6
v -0.8 2 -0.6
v -0.8 2.2 -0.6
v -0.7 1.9 -0.6
v -0.7 2 -0.6
v -0.7 2.2 -0.6
v -0.6 2 -0.6
v -0.6 2.2 -0.6
v -0.5 2 -0.6
v -0.5 2.2 -0.6
v -0.3 1.8 -0.6
v -0.3 2 -0.6
v -0.3 2.1 -0.6
v -0.0999999 1.6 -0.6
v -0.0999999 1.8 -0.6
v 0 1.7 -0.6
v 0 1.8 -0.6
v 0.1 1.7 -0.6
v 0.1 1.8 -0.6
v 0.2 1.6 -0.6
v 0.2 1.7 -0.6
v 0.2 1.8 -0.6
v 0.4 1.8 -0.6
v 0.4 2.1 -0.6
v 0.4 2.2 -0.6
v 1.4 2.1 -0.6
v 1.4 2.2 -0.6
v -1.8 1.9 -0.8
v -1.8 2.1 -0.8
v -1.6 1.9 -0.8
v -1.6 2.1 -0.8
v -1.4 1.9 -0.9
v -1.4 2 -0.9
v -1.3 1.9 -0.9
v -1.3 2 -0.9
v -1.2 1.9 -0.9
v -1.2 2 -0.9
v -1.1 1.9 -0.9
v -1.1 2 -0.9
v -1 1.9 -0.9
v -1 2 -0.9
v -0.9 1.9 -0.9
v -0.9 2 -0.9
v -0.8 1.9 -0.9
v -0.8 2 -0.9
v -0.7 1.9 -0.9
v -0.7 2 -0.9
v -1.4 1.9 -0.5
v -1.4 2 -0.5
v -1.3 1.9 -0.5
v -1.3 2 -0.5
v -1.2 1.9 -0.5
v -1.2 2 -0.5
v -1.1 1.9 -0.5
v -1.1 2 -0.5
v -1 1.9 -0.5
v -1 2 -0.5
v -0.9 1.9 -0.5
v -0.9 2 -0.5
v -0.8 1.9 -0.5
v -0.8 2 -0.5
v -0.7 1.9 -0.5
v -0.7 2 -0.5
v -1.8 1.9 -0.6
v -1.8 2.1 -0.6
v -1.6 1.9 -0.6
v -1.6 2.1 -0.6
v 0.1 1.7 -0.7
v 0.1 1.8 -0.7
v 0.2 1.7 -0.7
v 0.2 1.8 -0.7
v -1.8 2.1 -0.8
v -1.8 2.4 -0.8
v -1.7 2.2 -0.8
v -1.7 2.4 -0.8
v -1.5 2.1 -0.8
v -1.5 2.2 -0.8
v -1.4 1.9 -0.8
v -1.4 2 -0.8
v -1.4 2.2 -0.8
v -1.3 1.9 -0.8
v -1.3 2 -0.8
v -1.3 2.2 -0.8
v -1.2 1.9 -0.8
v -1.2 2 -0.8
v -1.2 2.2 -0.8
v -1.1 1.9 -0.8
v -1.1 2 -0.8
v -1.1 2.2 -0.8
v -1 1.9 -0.8
v -1 2 -0.8
v -1 2.2 -0.8
v -0.9 1.9 -0.8
v -0.9 2 -0.8
v -0.9 2.2 -0.8
v -0.8 1.9 -0.8
v -0.8 2 -0.8
v -0.8 2.2 -0.8
v -0.7 1.9 -0.8
v -0.7 2 -0.8
v -0.7 2.2 -0.8
v -0.6 2 -0.8
v -0.6 2.2 -0.8
v -0.5 2 -0.8
v -0.5 2.2 -0.8
v -0.3 1.8 -0.8
v -0.3 2 -0.8
v -0.3 2.1 -0.8
v -0.0999999 1.6 -0.8
v -0.0999999 1.8 -0.8
v 0 1.7 -0.8
v 0 1.8 -0.8
v 0.2 1.6 -0.8
v 0.2 1.7 -0.8
v 0.2 1.8 -0.8
v 0.4 1.8 -0.8
v 0.4 2.1 -0.8
v 0.4 2.2 -0.8
v 0.5 1.7 -0.8
v 0.5 1.8 -0.8
v 1.4 2.1 -0.8
v 1.4 2.2 -0.8
v -1.8 1.8 -0.9
v -1.8 2.1 -0.9
v -1.5 1.8 -0.9
v -1.5 2 -0.9
v -1.5 2.1 -0.9
v -1.5 2.3 -0.9
v -1.4 2 -0.9
v -1.4 2.3 -0.9
v -1.3 2 -0.9
v -1.3 2.3 -0.9
v -1.2 2 -0.9
v -1.2 2.3 -0.9
v -1.1 2 -0.9
v -1.1 2.3 -0.9
v -1 2 -0.9
v -1 2.3 -0.9
v -0.9 2 -0.9
v -0.9 2.3 -0.9
v -0.8 2 -0.9
v -0.8 2.3 -0.9
v -0.7 2 -0.9
v -0.7 2.3 -0.9
v -0.6 1.8 -0.9
v -0.6 2 -0.9
v -0.6 2.3 -0.9
v -0.5 2 -0.9
v -0.5 2.3 -0.9
v -0.4 2 -0.9
v -0.4 2.3 -0.9
v -0.3 1.8 -0.9
v -0.3 2 -0.9
v 0.2 1.5 -0.9
v 0.2 1.7 -0.9
v 0.4 1.8 -0.9
v 0.4 2.1 -0.9
v 0.5 1.5 -0.9
v 0.5 1.7 -0.9
v 0.5 1.8 -0.9
v 1.3 1.6 -0.9
v 1.3 1.7 -0.9
v 1.6 2 -0.9
v 1.6 2.1 -0.9
v 1.8 1.6 -0.9
v 1.8 2 -0.9
v -1.5 1.7 -1
v -1.5 2 -1
v -1.3 1.7 -1
v -1.3 1.9 -1
v -1 1.7 -1
v -1 1.9 -1
v -0.6 1.7 -1
v -0.6 2 -1
v -1.3 1.5 -1.1
v -1.3 1.9 -1.1
v -1 1.5 -1.1
v -1 1.9 -1.1
v -1.3 1.5 -0.3
v -1 1.5 -0.3
v 0.2 1.5 -0.5
v 0.5 1.5 -0.5
v 0.2 1.5 -0.9
v 0.5 1.5 -0.9
v -1.3 1.5 -1.1
v -1 1.5 -1.1
v 1.3 1.6 -0.5
v 1.8 1.6 -0.5
v -0.0999999 1.6 -0.6
v 0.2 1.6 -0.6
v -0.0999999 1.6 -0.8
v 0.2 1.6 -0.8
v 1.3 1.6 -0.9
v 1.8 1.6 -0.9
v -1.5 1.7 -0.4
v -1.3 1.7 -0.4
v -1 1.7 -0.4
v -0.6 1.7 -0.4
v 0.5 1.7 -0.5
v 1.3 1.7 -0.5
v 0.5 1.7 -0.6
v 0.9 1.7 -0.6
v 0.5 1.7 -0.8
v 0.9 1.7 -0.8
v 0.5 1.7 -0.9
v 1.3 1.7 -0.9
v -1.5 1.7 -1
v -1.3 1.7 -1
v -1 1.7 -1
v -0.6 1.7 -1
v -1.8 1.8 -0.5
v -1.5 1.8 -0.5
v -0.6 1.8 -0.5
v -0.3 1.8 -0.5
v -0.3 1.8 -0.6
v -0.0999999 1.8 -0.6
v 0 1.8 -0.6
v 0.1 1.8 -0.6
v 0.1 1.8 -0.7
v 0.2 1.8 -0.7
v -0.3 1.8 -0.8
v -0.0999999 1.8 -0.8
v 0 1.8 -0.8
v 0.2 1.8 -0.8
v 0.4 1.8 -0.8
v 0.5 1.8 -0.8
v -1.8 1.8 -0.9
v -1.5 1.8 -0.9
v -0.6 1.8 -0.9
v -0.3 1.8 -0.9
v 0.4 1.8 -0.9
v 0.5 1.8 -0.9
v -1.8 2.1 -0.6
v -1.6 2.1 -0.6
v -1.8 2.1 -0.8
v -1.6 2.1 -0.8
v 0 1.7 -0.6
v 0.1 1.7 -0.6
v 0.1 1.7 -0.7
v 0.2 1.7 -0.7
v 0 1.7 -0.8
v 0.2 1.7 -0.8
v 0.5 1.7 -0.8
v 0.2 1.7 -0.9
v 0.5 1.7 -0.9
v 0.2 1.8 -0.5
v 0.4 1.8 -0.5
v 0.2 1.8 -0.6
v 0.4 1.8 -0.6
v -1.3 1.9 -0.3
v -1 1.9 -0.3
v -1.3 1.9 -0.4
v -1 1.9 -0.4
v -1.6 1.9 -0.5
v -1.5 1.9 -0.5
v -1.4 1.9 -0.5
v -1.3 1.9 -0.5
v -1.2 1.9 -0.5
v -1.1 1.9 -0.5
v -1 1.9 -0.5
v -0.9 1.9 -0.5
v -0.8 1.9 -0.5
v -0.7 1.9 -0.5
v -1.8 1.9 -0.6
v -1.6 1.9 -0.6
v -1.5 1.9 -0.6
v -1.4 1.9 -0.6
v -1.3 1.9 -0.6
v -1.2 1.9 -0.6
v -1.1 1.9 -0.6
v -1 1.9 -0.6
v -0.9 1.9 -0.6
v -0.8 1.9 -0.6
v -0.7 1.9 -0.6
v -1.8 1.9 -0.8
v -1.6 1.9 -0.8
v -1.4 1.9 -0.8
v -1.3 1.9 -0.8
v -1.2 1.9 -0.8
v -1.1 1.9 -0.8
v -1 1.9 -0.8
v -0.9 1.9 -0.8
v -0.8 1.9 -0.8
v -0.7 1.9 -0.8
v -1.4 1.9 -0.9
v -1.3 1.9 -0.9
v -1.2 1.9 -0.9
v -1.1 1.9 -0.9
v -1 1.9 -0.9
v -0.9 1.9 -0.9
v -0.8 1.9 -0.9
v -0.7 1.9 -0.9
v -1.3 1.9 -1
v -1 1.9 -1
v -1.3 1.9 -1.1
v -1 1.9 -1.1
v -1.5 2 -0.4
v -0.6 2 -0.4
v -1.5 2 -0.5
v -1.4 2 -0.5
v -1.3 2 -0.5
v -1.2 2 -0.5
v -1.1 2 -0.5
v -1 2 -0.5
v -0.9 2 -0.5
v -0.8 2 -0.5
v -0.7 2 -0.5
v -0.6 2 -0.5
v -0.5 2 -0.5
v -0.4 2 -0.5
v -0.3 2 -0.5
v 1.6 2 -0.5
v 1.8 2 -0.5
v -0.6 2 -0.6
v -0.5 2 -0.6
v -0.3 2 -0.6
v -0.6 2 -0.8
v -0.5 2 -0.8
v -0.3 2 -0.8
v -1.5 2 -0.9
v -1.4 2 -0.9
v -1.3 2 -0.9
v -1.2 2 -0.9
v -1.1 2 -0.9
v -1 2 -0.9
v -0.9 2 -0.9
v -0.8 2 -0.9
v -0.7 2 -0.9
v -0.6 2 -0.9
v -0.5 2 -0.9
v -0.4 2 -0.9
v -0.3 2 -0.9
v 1.6 2 -0.9
v 1.8 2 -0.9
v -1.5 2 -1
v -0.6 2 -1
v -1.8 2.1 -0.5
v -1.6 2.1 -0.5
v 0.4 2.1 -0.5
v 1.6 2.1 -0.5
v -1.8 2.1 -0.6
v -1.6 2.1 -0.6
v -0.3 2.1 -0.6
v 0.4 2.1 -0.6
v 1.4 2.1 -0.6
v -1.8 2.1 -0.8
v -1.5 2.1 -0.8
v -0.3 2.1 -0.8
v 0.4 2.1 -0.8
v 1.4 2.1 -0.8
v -1.8 2.1 -0.9
v -1.5 2.1 -0.9
v 0.4 2.1 -0.9
v 1.6 2.1 -0.9
v -1.7 2.2 -0.6
v -1.5 2.2 -0.6
v -1.4 2.2 -0.6
v -1.3 2.2 -0.6
v -1.2 2.2 -0.6
v -1.1 2.2 -0.6
v -1 2.2 -0.6
v -0.9 2.2 -0.6
v -0.8 2.2 -0.6
v -0.7 2.2 -0.6
v -0.6 2.2 -0.6
v -0.5 2.2 -0.6
v 0.4 2.2 -0.6
v 1.4 2.2 -0.6
v -1.7 2.2 -0.8
v -1.5 2.2 -0.8
v -1.4 2.2 -0.8
v -1.3 2.2 -0.8
v -1.2 2.2 -0.8
v -1.1 2.2 -0.8
v -1 2.2 -0.8
v -0.9 2.2 -0.8
v -0.8 2.2 -0.8
v -0.7 2.2 -0.8
v -0.6 2.2 -0.8
v -0.5 2.2 -0.8
v 0.4 2.2 -0.8
v 1.4 2.2 -0.8
v -1.5 2.3 -0.5
v -1.4 2.3 -0.5
v -1.3 2.3 -0.5
v -1.2 2.3 -0.5
v -1.1 2.3 -0.5
v -1 2.3 -0.5
v -0.9 2.3 -0.5
v -0.8 2.3 -0.5
v -0.7 2.3 -0.5
v -0.6 2.3 -0.5
v -0.5 2.3 -0.5
v -0.4 2.3 -0.5
v -1.5 2.3 -0.9
v -1.4 2.3 -0.9
v -1.3 2.3 -0.9
v -1.2 2.3 -0.9
v -1.1 2.3 -0.9
v -1 2.3 -0.9
v -0.9 2.3 -0.9
v -0.8 2.3 -0.9
v -0.7 2.3 -0.9
v -0.6 2.3 -0.9
v -0.5 2.3 -0.9
v -0.4 2.3 -0.9
v -1.8 2.4 -0.6
v -1.7 2.4 -0.6
v -1.8 2.4 -0.8
v -1.7 2.4 -0.8

# faces
f 3/3/1 2/3/1 1/3/1
f 4/3/1 2/3/1 3/3/1
f 5/3/1 3/3/1 1/3/1
f 6/3/1 3/3/1 5/3/1
f 7/3/1 2/3/1 4/3/1
f 8/3/1 2/3/1 7/3/1
f 9/3/1 7/3/1 6/3/1
f 10/3/1 7/3/1 9/3/1
f 13/3/1 12/3/1 11/3/1
f 14/3/1 12/3/1 13/3/1
f 17/2/1 16/2/1 15/2/1
f 18/2/1 16/2/1 17/2/1
f 19/2/1 17/2/1 15/2/1
f 21/2/1 19/2/1 15/2/1
f 22/3/1 20/3/1 19/3/1
f 22/2/1 19/2/1 21/2/1
f 23/3/1 20/3/1 22/3/1
f 24/2/1 16/2/1 18/2/1
f 25/2/1 16/2/1 24/2/1
f 28/4/1 23/4/1 22/4/1
f 29/4/1 27/4/1 26/4/1
f 30/4/1 28/4/1 22/4/1
f 30/4/1 29/4/1 28/4/1
f 31/4/1 27/4/1 29/4/1
f 31/4/1 29/4/1 30/4/1
f 34/1/1 33/1/1 32/1/1
f 35/1/1 33/1/1 34/1/1
f 36/1/1 34/1/1 32/1/1
f 37/1/1 34/1/1 36/1/1
f 42/1/1 33/1/1 35/1/1
f 43/1/1 33/1/1 42/1/1
f 44/3/1 39/3/1 38/3/1
f 45/3/1 39/3/1 44/3/1
f 46/3/1 41/3/1 40/3/1
f 47/3/1 41/3/1 46/3/1
f 48/4/1 45/4/1 44/4/1
f 49/4/1 47/4/1 46/4/1
f 50/4/1 48/4/1 44/4/1
f 50/4/1 49/4/1 48/4/1
f 51/4/1 47/4/1 49/4/1
f 51/4/1 49/4/1 50/4/1
f 56/3/1 53/3/1 52/3/1
f 57/3/1 53/3/1 56/3/1
f 58/3/1 55/3/1 54/3/1
f 59/3/1 55/3/1 58/3/1
f 60/4/1 57/4/1 56/4/1
f 61/4/1 59/4/1 58/4/1
f 62/4/1 60/4/1 56/4/1
f 62/4/1 61/4/1 60/4/1
f 63/4/1 59/4/1 61/4/1
f 63/4/1 61/4/1 62/4/1
f 68/3/1 65/3/1 64/3/1
f 69/3/1 65/3/1 68/3/1
f 70/3/1 67/3/1 66/3/1
f 71/3/1 67/3/1 70/3/1
f 72/4/1 69/4/1 68/4/1
f 73/4/1 71/4/1 70/4/1
f 74/4/1 72/4/1 68/4/1
f 74/4/1 73/4/1 72/4/1
f 75/4/1 71/4/1 73/4/1
f 75/4/1 73/4/1 74/4/1
f 80/3/1 77/3/1 76/3/1
f 81/3/1 77/3/1 80/3/1
f 82/3/1 79/3/1 78/3/1
f 83/3/1 79/3/1 82/3/1
f 84/4/1 81/4/1 80/4/1
f 85/4/1 83/4/1 82/4/1
f 86/4/1 84/4/1 80/4/1
f 86/4/1 85/4/1 84/4/1
f 87/4/1 83/4/1 85/4/1
f 87/4/1 85/4/1 86/4/1
f 92/4/1 89/4/1 88/4/1
f 93/4/1 91/4/1 90/4/1
f 94/4/1 92/4/1 88/4/1
f 94/4/1 93/4/1 92/4/1
f 95/4/1 91/4/1 93/4/1
f 95/4/1 93/4/1 94/4/1
f 98/3/1 97/3/1 96/3/1
f 99/3/1 97/3/1 98/3/1
f 102/3/1 101/3/1 100/3/1
f 103/3/1 101/3/1 102/3/1
f 106/1/1 105/1/1 104/1/1
f 107/1/1 105/1/1 106/1/1
f 110/1/1 109/1/1 108/1/1
f 111/1/1 109/1/1 110/1/1
f 112/1/1 110/1/1 108/1/1
f 114/1/1 109/1/1 111/1/1
f 115/1/1 109/1/1 114/1/1
f 116/1/1 112/1/1 108/1/1
f 117/1/1 112/1/1 116/1/1
f 118/3/1 114/3/1 113/3/1
f 119/3/1 114/3/1 118/3/1
f 124/2/1 121/2/1 120/2/1
f 125/2/1 121/2/1 124/2/1
f 126/2/1 123/2/1 122/2/1
f 127/2/1 123/2/1 126/2/1
f 128/2/1 126/2/1 125/2/1
f 129/2/1 126/2/1 128/2/1
f 132/2/1 131/2/1 130/2/1
f 133/2/1 131/2/1 132/2/1
f 136/2/1 135/2/1 134/2/1
f 137/2/1 135/2/1 136/2/1
f 138/3/2 139/3/2 140/3/2
f 140/3/2 139/3/2 141/3/2
f 142/3/2 143/3/2 144/3/2
f 144/3/2 143/3/2 145/3/2
f 146/3/2 147/3/2 150/3/2
f 150/3/2 147/3/2 151/3/2
f 148/3/2 149/3/2 152/3/2
f 152/3/2 149/3/2 153/3/2
f 150/4/2 151/4/2 154/4/2
f 152/4/2 153/4/2 155/4/2
f 150/4/2 154/4/2 156/4/2
f 154/4/2 155/4/2 156/4/2
f 155/4/2 153/4/2 157/4/2
f 156/4/2 155/4/2 157/4/2
f 158/3/2 159/3/2 162/3/2
f 162/3/2 159/3/2 163/3/2
f 160/3/2 161/3/2 164/3/2
f 164/3/2 161/3/2 165/3/2
f 162/4/2 163/4/2 166/4/2
f 164/4/2 165/4/2 167/4/2
f 162/4/2 166/4/2 168/4/2
f 166/4/2 167/4/2 168/4/2
f 167/4/2 165/4/2 169/4/2
f 168/4/2 167/4/2 169/4/2
f 170/1/2 171/1/2 172/1/2
f 172/1/2 171/1/2 173/1/2
f 170/1/2 172/1/2 174/1/2
f 174/1/2 172/1/2 175/1/2
f 173/1/2 171/1/2 180/1/2
f 180/1/2 171/1/2 181/1/2
f 176/3/2 177/3/2 182/3/2
f 182/3/2 177/3/2 183/3/2
f 178/3/2 179/3/2 184/3/2
f 184/3/2 179/3/2 185/3/2
f 182/4/2 183/4/2 186/4/2
f 184/4/2 185/4/2 187/4/2
f 182/4/2 186/4/2 188/4/2
f 186/4/2 187/4/2 188/4/2
f 187/4/2 185/4/2 189/4/2
f 188/4/2 187/4/2 189/4/2
f 190/3/2 191/3/2 194/3/2
f 194/3/2 191/3/2 195/3/2
f 192/3/2 193/3/2 196/3/2
f 196/3/2 193/3/2 197/3/2
f 194/4/2 195/4/2 198/4/2
f 196/4/2 197/4/2 199/4/2
f 194/4/2 198/4/2 200/4/2
f 198/4/2 199/4/2 200/4/2
f 199/4/2 197/4/2 201/4/2
f 200/4/2 199/4/2 201/4/2
f 202/2/2 203/2/2 204/2/2
f 204/2/2 203/2/2 205/2/2
f 202/2/2 204/2/2 206/2/2
f 206/2/2 204/2/2 207/2/2
f 205/2/2 203/2/2 210/2/2
f 210/2/2 203/2/2 211/2/2
f 207/4/2 208/4/2 212/4/2
f 209/4/2 210/4/2 213/4/2
f 207/4/2 212/4/2 214/4/2
f 212/4/2 213/4/2 214/4/2
f 213/4/2 210/4/2 215/4/2
f 214/4/2 213/4/2 215/4/2
f 216/4/2 217/4/2 218/4/2
f 218/4/2 217/4/2 219/4/2
f 220/3/2 221/3/2 224/3/2
f 224/3/2 221/3/2 225/3/2
f 222/3/2 223/3/2 226/3/2
f 226/3/2 223/3/2 227/3/2
f 228/3/2 229/3/2 230/3/2
f 230/3/2 229/3/2 231/3/2
f 232/1/2 233/1/2 234/1/2
f 234/1/2 233/1/2 235/1/2
f 235/1/2 233/1/2 236/1/2
f 236/1/2 233/1/2 237/1/2
f 238/2/2 239/2/2 240/2/2
f 240/2/2 239/2/2 241/2/2
f 242/2/2 243/2/2 244/2/2
f 244/2/2 243/2/2 245/2/2
f 246/2/2 247/2/2 248/2/2
f 248/2/2 247/2/2 249/2/2
f 252/1/3 251/1/3 250/1/3
f 253/1/3 251/1/3 252/1/3
f 256/2/3 255/2/3 254/2/3
f 257/2/3 255/2/3 256/2/3
f 259/2/3 255/2/3 257/2/3
f 260/2/3 259/2/3 258/2/3
f 261/2/3 255/2/3 259/2/3
f 261/2/3 259/2/3 260/2/3
f 264/3/3 263/3/3 262/3/3
f 265/3/3 263/3/3 264/3/3
f 266/3/3 264/3/3 262/3/3
f 267/3/3 264/3/3 266/3/3
f 270/4/3 269/4/3 268/4/3
f 271/4/3 269/4/3 270/4/3
f 274/4/3 273/4/3 272/4/3
f 275/4/3 273/4/3 274/4/3
f 278/4/3 277/4/3 276/4/3
f 279/4/3 277/4/3 278/4/3
f 282/4/3 281/4/3 280/4/3
f 283/4/3 281/4/3 282/4/3
f 287/4/3 285/4/3 284/4/3
f 288/4/3 285/4/3 287/4/3
f 289/3/3 287/3/3 286/3/3
f 291/3/3 289/3/3 286/3/3
f 291/4/3 290/4/3 289/4/3
f 292/4/3 290/4/3 291/4/3
f 293/3/3 291/3/3 286/3/3
f 294/3/3 291/3/3 293/3/3
f 297/1/3 296/1/3 295/1/3
f 299/1/3 297/1/3 295/1/3
f 300/1/3 297/1/3 299/1/3
f 301/2/3 298/2/3 297/2/3
f 301/1/3 297/1/3 300/1/3
f 303/2/3 301/2/3 300/2/3
f 304/2/3 298/2/3 301/2/3
f 304/2/3 303/2/3 302/2/3
f 304/2/3 301/2/3 303/2/3
f 305/2/3 298/2/3 304/2/3
f 306/2/3 304/2/3 302/2/3
f 307/2/3 304/2/3 306/2/3
f 310/3/3 309/3/3 308/3/3
f 311/3/3 309/3/3 310/3/3
f 313/3/3 310/3/3 308/3/3
f 314/3/3 313/3/3 312/3/3
f 315/3/3 313/3/3 314/3/3
f 316/3/3 310/3/3 313/3/3
f 316/3/3 313/3/3 315/3/3
f 320/3/3 318/3/3 317/3/3
f 320/3/3 319/3/3 318/3/3
f 321/3/3 319/3/3 320/3/3
f 322/3/3 319/3/3 321/3/3
f 326/3/3 324/3/3 323/3/3
f 326/3/3 325/3/3 324/3/3
f 327/3/3 325/3/3 326/3/3
f 328/3/3 325/3/3 327/3/3
f 332/3/3 330/3/3 329/3/3
f 332/3/3 331/3/3 330/3/3
f 333/3/3 331/3/3 332/3/3
f 334/3/3 331/3/3 333/3/3
f 338/3/3 336/3/3 335/3/3
f 338/3/3 337/3/3 336/3/3
f 339/3/3 337/3/3 338/3/3
f 340/3/3 337/3/3 339/3/3
f 343/3/3 342/3/3 341/3/3
f 344/3/3 342/3/3 343/3/3
f 349/3/3 346/3/3 345/3/3
f 349/3/3 347/3/3 346/3/3
f 350/3/3 349/3/3 348/3/3
f 351/3/3 347/3/3 349/3/3
f 351/3/3 349/3/3 350/3/3
f 352/3/3 350/3/3 348/3/3
f 353/3/3 347/3/3 351/3/3
f 354/3/3 352/3/3 348/3/3
f 355/1/3 353/1/3 352/1/3
f 355/3/3 352/3/3 354/3/3
f 356/3/3 347/3/3 353/3/3
f 356/1/3 353/1/3 355/1/3
f 357/3/3 347/3/3 356/3/3
f 358/3/3 347/3/3 357/3/3
f 360/2/3 359/2/3 358/2/3
f 361/2/3 359/2/3 360/2/3
f 364/3/3 363/3/3 362/3/3
f 365/3/3 363/3/3 364/3/3
f 368/2/3 367/2/3 366/2/3
f 369/2/3 367/2/3 368/2/3
f 372/2/3 371/2/3 370/2/3
f 373/2/3 371/2/3 372/2/3
f 376/2/3 375/2/3 374/2/3
f 377/2/3 375/2/3 376/2/3
f 380/2/3 379/2/3 378/2/3
f 381/2/3 379/2/3 380/2/3
f 382/2/4 383/2/4 384/2/4
f 384/2/4 383/2/4 385/2/4
f 386/2/4 387/2/4 388/2/4
f 388/2/4 387/2/4 389/2/4
f 390/2/4 391/2/4 392/2/4
f 392/2/4 391/2/4 393/2/4
f 394/2/4 395/2/4 396/2/4
f 396/2/4 395/2/4 397/2/4
f 398/3/4 399/3/4 400/3/4
f 400/3/4 399/3/4 401/3/4
f 402/1/4 403/1/4 404/1/4
f 404/1/4 403/1/4 405/1/4
f 406/3/4 407/3/4 408/3/4
f 408/3/4 407/3/4 409/3/4
f 406/3/4 408/3/4 410/3/4
f 410/3/4 408/3/4 411/3/4
f 412/3/4 413/3/4 415/3/4
f 413/3/4 414/3/4 415/3/4
f 415/3/4 414/3/4 416/3/4
f 416/3/4 414/3/4 417/3/4
f 418/3/4 419/3/4 421/3/4
f 419/3/4 420/3/4 421/3/4
f 421/3/4 420/3/4 422/3/4
f 422/3/4 420/3/4 423/3/4
f 424/3/4 425/3/4 427/3/4
f 425/3/4 426/3/4 427/3/4
f 427/3/4 426/3/4 428/3/4
f 428/3/4 426/3/4 429/3/4
f 430/3/4 431/3/4 433/3/4
f 431/3/4 432/3/4 433/3/4
f 433/3/4 432/3/4 434/3/4
f 434/3/4 432/3/4 435/3/4
f 436/3/4 437/3/4 438/3/4
f 438/3/4 437/3/4 439/3/4
f 440/3/4 441/3/4 444/3/4
f 441/3/4 442/3/4 444/3/4
f 443/3/4 444/3/4 445/3/4
f 444/3/4 442/3/4 446/3/4
f 445/3/4 444/3/4 446/3/4
f 443/3/4 445/3/4 447/3/4
f 447/3/4 445/3/4 448/3/4
f 446/3/4 442/3/4 449/3/4
f 448/3/4 449/3/4 450/3/4
f 449/3/4 442/3/4 450/3/4
f 450/3/4 442/3/4 451/3/4
f 448/3/4 450/3/4 453/3/4
f 453/3/4 450/3/4 454/3/4
f 451/2/4 452/2/4 455/2/4
f 455/2/4 452/2/4 456/2/4
f 457/3/4 458/3/4 459/3/4
f 459/3/4 458/3/4 460/3/4
f 460/3/4 458/3/4 461/3/4
f 461/4/4 462/4/4 463/4/4
f 460/4/4 461/4/4 463/4/4
f 463/4/4 462/4/4 464/4/4
f 465/4/4 466/4/4 467/4/4
f 467/4/4 466/4/4 468/4/4
f 469/4/4 470/4/4 471/4/4
f 471/4/4 470/4/4 472/4/4
f 473/4/4 474/4/4 475/4/4
f 475/4/4 474/4/4 476/4/4
f 477/4/4 478/4/4 480/4/4
f 480/4/4 478/4/4 481/4/4
f 479/3/4 480/3/4 482/3/4
f 479/3/4 482/3/4 484/3/4
f 482/4/4 483/4/4 484/4/4
f 484/4/4 483/4/4 485/4/4
f 479/3/4 484/3/4 486/3/4
f 486/3/4 484/3/4 487/3/4
f 488/1/4 489/1/4 492/1/4
f 492/1/4 489/1/4 493/1/4
f 490/2/4 491/2/4 494/2/4
f 493/2/4 494/2/4 496/2/4
f 494/2/4 491/2/4 497/2/4
f 495/2/4 496/2/4 497/2/4
f 496/2/4 494/2/4 497/2/4
f 497/2/4 491/2/4 498/2/4
f 495/2/4 497/2/4 499/2/4
f 499/2/4 497/2/4 500/2/4
f 501/2/4 502/2/4 503/2/4
f 503/2/4 502/2/4 504/2/4
f 504/2/4 502/2/4 506/2/4
f 505/2/4 506/2/4 507/2/4
f 506/2/4 502/2/4 508/2/4
f 507/2/4 506/2/4 508/2/4
f 509/1/4 510/1/4 511/1/4
f 511/1/4 510/1/4 512/1/4
f 517/1/5 516/1/5 515/1/5
f 518/1/5 516/1/5 517/1/5
f 519/1/5 514/1/5 513/1/5
f 520/1/5 514/1/5 519/1/5
f 525/3/5 524/3/5 523/3/5
f 526/3/5 524/3/5 525/3/5
f 527/2/5 522/2/5 521/2/5
f 528/2/5 522/2/5 527/2/5
f 535/2/5 534/2/5 533/2/5
f 536/2/5 534/2/5 535/2/5
f 537/3/5 536/3/5 535/3/5
f 538/2/5 534/2/5 536/2/5
f 538/3/5 536/3/5 537/3/5
f 539/2/5 538/2/5 537/2/5
f 540/2/5 534/2/5 538/2/5
f 540/2/5 538/2/5 539/2/5
f 541/2/5 530/2/5 529/2/5
f 542/2/5 530/2/5 541/2/5
f 543/2/5 532/2/5 531/2/5
f 544/2/5 532/2/5 543/2/5
f 549/3/5 548/3/5 547/3/5
f 553/3/5 552/3/5 551/3/5
f 555/3/5 549/3/5 547/3/5
f 555/3/5 550/3/5 549/3/5
f 556/3/5 550/3/5 555/3/5
f 557/3/5 554/3/5 553/3/5
f 557/3/5 553/3/5 551/3/5
f 558/3/5 554/3/5 557/3/5
f 561/3/5 546/3/5 545/3/5
f 562/3/5 546/3/5 561/3/5
f 563/3/5 555/3/5 547/3/5
f 564/3/5 555/3/5 563/3/5
f 565/2/5 560/2/5 559/2/5
f 566/2/5 560/2/5 565/2/5
f 569/3/5 568/3/5 567/3/5
f 570/3/5 568/3/5 569/3/5
f 571/3/6 572/3/6 573/3/6
f 571/3/6 573/3/6 575/3/6
f 573/3/6 574/3/6 575/3/6
f 575/3/6 574/3/6 576/3/6
f 576/1/6 577/1/6 578/1/6
f 578/1/6 577/1/6 579/1/6
f 580/1/6 581/1/6 582/1/6
f 582/1/6 581/1/6 583/1/6
f 584/1/6 585/1/6 586/1/6
f 586/1/6 585/1/6 587/1/6
f 588/3/6 589/3/6 599/3/6
f 599/3/6 589/3/6 600/3/6
f 590/3/6 591/3/6 601/3/6
f 601/3/6 591/3/6 602/3/6
f 592/3/6 593/3/6 603/3/6
f 603/3/6 593/3/6 604/3/6
f 594/3/6 595/3/6 605/3/6
f 605/3/6 595/3/6 606/3/6
f 596/3/6 597/3/6 607/3/6
f 607/3/6 597/3/6 608/3/6
f 598/3/6 599/3/6 609/3/6
f 609/3/6 599/3/6 610/3/6
f 611/3/6 612/3/6 619/3/6
f 619/3/6 612/3/6 620/3/6
f 613/3/6 614/3/6 621/3/6
f 621/3/6 614/3/6 622/3/6
f 615/3/6 616/3/6 623/3/6
f 623/3/6 616/3/6 624/3/6
f 617/3/6 618/3/6 625/3/6
f 625/3/6 618/3/6 626/3/6
f 627/1/6 628/1/6 629/1/6
f 629/1/6 628/1/6 630/1/6
f 631/2/6 632/2/6 633/2/6
f 633/2/6 632/2/6 634/2/6
f 634/2/6 632/2/6 635/2/6
f 635/2/6 632/2/6 636/2/6
f 636/2/6 632/2/6 637/2/6
f 637/2/6 632/2/6 638/2/6
f 638/2/6 632/2/6 639/2/6
f 639/2/6 632/2/6 640/2/6
f 640/2/6 632/2/6 641/2/6
f 641/2/6 632/2/6 642/2/6
f 642/3/6 643/3/6 648/3/6
f 648/3/6 643/3/6 649/3/6
f 644/3/6 645/3/6 650/3/6
f 644/3/6 650/3/6 653/3/6
f 651/3/6 652/3/6 663/3/6
f 663/3/6 652/3/6 664/3/6
f 644/3/6 653/3/6 665/3/6
f 665/3/6 653/3/6 666/3/6
f 646/2/6 647/2/6 667/2/6
f 667/2/6 647/2/6 668/2/6
f 661/2/6 662/2/6 669/2/6
f 662/2/6 663/2/6 669/2/6
f 660/2/6 661/2/6 669/2/6
f 659/2/6 660/2/6 669/2/6
f 658/2/6 659/2/6 669/2/6
f 657/2/6 658/2/6 669/2/6
f 656/2/6 657/2/6 669/2/6
f 655/2/6 656/2/6 669/2/6
f 654/2/6 655/2/6 669/2/6
f 669/2/6 663/2/6 670/2/6
f 671/3/6 672/3/6 675/3/6
f 675/3/6 672/3/6 676/3/6
f 673/2/6 674/2/6 678/2/6
f 678/2/6 674/2/6 679/2/6
f 677/3/6 678/3/6 682/3/6
f 682/3/6 678/3/6 683/3/6
f 679/2/6 674/2/6 684/2/6
f 680/3/6 681/3/6 685/3/6
f 685/3/6 681/3/6 686/3/6
f 683/2/6 684/2/6 687/2/6
f 684/2/6 674/2/6 688/2/6
f 687/2/6 684/2/6 688/2/6
f 689/3/6 690/3/6 703/3/6
f 703/3/6 690/3/6 704/3/6
f 691/3/6 692/3/6 705/3/6
f 705/3/6 692/3/6 706/3/6
f 693/3/6 694/3/6 707/3/6
f 707/3/6 694/3/6 708/3/6
f 695/3/6 696/3/6 709/3/6
f 709/3/6 696/3/6 710/3/6
f 697/3/6 698/3/6 711/3/6
f 711/3/6 698/3/6 712/3/6
f 699/3/6 700/3/6 713/3/6
f 713/3/6 700/3/6 714/3/6
f 701/2/6 702/2/6 715/2/6
f 715/2/6 702/2/6 716/2/6
f 717/4/6 718/4/6 729/4/6
f 729/4/6 718/4/6 730/4/6
f 719/4/6 720/4/6 731/4/6
f 731/4/6 720/4/6 732/4/6
f 721/4/6 722/4/6 733/4/6
f 733/4/6 722/4/6 734/4/6
f 723/4/6 724/4/6 735/4/6
f 735/4/6 724/4/6 736/4/6
f 725/4/6 726/4/6 737/4/6
f 737/4/6 726/4/6 738/4/6
f 727/4/6 728/4/6 739/4/6
f 739/4/6 728/4/6 740/4/6
f 741/3/6 742/3/6 743/3/6
f 743/3/6 742/3/6 744/3/6
