# MagicaVoxel @ Ephtracy

# group
o 

# material
mtllib Shotgun.mtl
usemtl palette

# normals
vn -1 0 0
vn 1 0 0
vn 0 0 1
vn 0 0 -1
vn 0 -1 0
vn 0 1 0

# texcoords
vt 0.947266 0.5
vt 0.982422 0.5
vt 0.990234 0.5

# verts
v -1.8 1.8 -0.5
v -1.8 1.8 -0.9
v -1.8 1.9 -0.6
v -1.8 1.9 -0.8
v -1.8 2.1 -0.5
v -1.8 2.1 -0.6
v -1.8 2.1 -0.8
v -1.8 2.1 -0.9
v -1.8 2.4 -0.6
v -1.8 2.4 -0.8
v -1.6 1.9 -0.6
v -1.6 1.9 -0.8
v -1.6 2.1 -0.6
v -1.6 2.1 -0.8
v -1.5 1.7 -0.4
v -1.5 1.7 -1
v -1.5 1.8 -0.5
v -1.5 1.8 -0.9
v -1.5 1.9 -0.5
v -1.5 1.9 -0.6
v -1.5 2 -0.4
v -1.5 2 -0.5
v -1.5 2 -0.6
v -1.5 2 -0.9
v -1.5 2 -1
v -1.5 2.1 -0.8
v -1.5 2.1 -0.9
v -1.5 2.2 -0.6
v -1.5 2.2 -0.8
v -1.5 2.3 -0.5
v -1.5 2.3 -0.9
v -1.3 1.9 -0.5
v -1.3 1.9 -0.6
v -1.3 1.9 -0.8
v -1.3 1.9 -0.9
v -1.3 2 -0.5
v -1.3 2 -0.6
v -1.3 2 -0.8
v -1.3 2 -0.9
v -1.3 2.2 -0.6
v -1.3 2.2 -0.8
v -1.3 2.3 -0.5
v -1.3 2.3 -0.9
v -1.1 1.9 -0.5
v -1.1 1.9 -0.6
v -1.1 1.9 -0.8
v -1.1 1.9 -0.9
v -1.1 2 -0.5
v -1.1 2 -0.6
v -1.1 2 -0.8
v -1.1 2 -0.9
v -1.1 2.2 -0.6
v -1.1 2.2 -0.8
v -1.1 2.3 -0.5
v -1.1 2.3 -0.9
v -0.9 1.9 -0.5
v -0.9 1.9 -0.6
v -0.9 1.9 -0.8
v -0.9 1.9 -0.9
v -0.9 2 -0.5
v -0.9 2 -0.6
v -0.9 2 -0.8
v -0.9 2 -0.9
v -0.9 2.2 -0.6
v -0.9 2.2 -0.8
v -0.9 2.3 -0.5
v -0.9 2.3 -0.9
v -0.7 1.9 -0.5
v -0.7 1.9 -0.6
v -0.7 1.9 -0.8
v -0.7 1.9 -0.9
v -0.7 2 -0.5
v -0.7 2 -0.6
v -0.7 2 -0.8
v -0.7 2 -0.9
v -0.7 2.2 -0.6
v -0.7 2.2 -0.8
v -0.7 2.3 -0.5
v -0.7 2.3 -0.9
v -0.5 2 -0.5
v -0.5 2 -0.6
v -0.5 2 -0.8
v -0.5 2 -0.9
v -0.5 2.2 -0.6
v -0.5 2.2 -0.8
v -0.5 2.3 -0.5
v -0.5 2.3 -0.9
v -0.3 2 -0.6
v -0.3 2 -0.8
v -0.3 2.1 -0.6
v -0.3 2.1 -0.8
v -0.0999999 1.6 -0.6
v -0.0999999 1.6 -0.8
v -0.0999999 1.8 -0.6
v -0.0999999 1.8 -0.8
v 0.2 1.7 -0.6
v 0.2 1.7 -0.8
v 0.2 1.8 -0.6
v 0.2 1.8 -0.8
v 0.4 1.8 -0.5
v 0.4 1.8 -0.6
v 0.4 1.8 -0.8
v 0.4 1.8 -0.9
v 0.4 2.1 -0.5
v 0.4 2.1 -0.6
v 0.4 2.1 -0.8
v 0.4 2.1 -0.9
v 0.4 2.2 -0.6
v 0.4 2.2 -0.8
v 0.5 1.7 -0.5
v 0.5 1.7 -0.6
v 0.5 1.7 -0.8
v 0.5 1.7 -0.9
v 0.5 1.8 -0.5
v 0.5 1.8 -0.6
v 0.5 1.8 -0.8
v 0.5 1.8 -0.9
v 1.3 1.6 -0.5
v 1.3 1.6 -0.9
v 1.3 1.7 -0.5
v 1.3 1.7 -0.9
v -1.7 2.2 -0.6
v -1.7 2.2 -0.8
v -1.7 2.4 -0.6
v -1.7 2.4 -0.8
v -1.6 1.9 -0.5
v -1.6 1.9 -0.6
v -1.6 2.1 -0.5
v -1.6 2.1 -0.6
v -1.4 1.9 -0.5
v -1.4 1.9 -0.6
v -1.4 1.9 -0.8
v -1.4 1.9 -0.9
v -1.4 2 -0.5
v -1.4 2 -0.6
v -1.4 2 -0.8
v -1.4 2 -0.9
v -1.4 2.2 -0.6
v -1.4 2.2 -0.8
v -1.4 2.3 -0.5
v -1.4 2.3 -0.9
v -1.2 1.9 -0.5
v -1.2 1.9 -0.6
v -1.2 1.9 -0.8
v -1.2 1.9 -0.9
v -1.2 2 -0.5
v -1.2 2 -0.6
v -1.2 2 -0.8
v -1.2 2 -0.9
v -1.2 2.2 -0.6
v -1.2 2.2 -0.8
v -1.2 2.3 -0.5
v -1.2 2.3 -0.9
v -1 1.9 -0.5
v -1 1.9 -0.6
v -1 1.9 -0.8
v -1 1.9 -0.9
v -1 2 -0.5
v -1 2 -0.6
v -1 2 -0.8
v -1 2 -0.9
v -1 2.2 -0.6
v -1 2.2 -0.8
v -1 2.3 -0.5
v -1 2.3 -0.9
v -0.8 1.9 -0.5
v -0.8 1.9 -0.6
v -0.8 1.9 -0.8
v -0.8 1.9 -0.9
v -0.8 2 -0.5
v -0.8 2 -0.6
v -0.8 2 -0.8
v -0.8 2 -0.9
v -0.8 2.2 -0.6
v -0.8 2.2 -0.8
v -0.8 2.3 -0.5
v -0.8 2.3 -0.9
v -0.6 1.7 -0.4
v -0.6 1.7 -1
v -0.6 1.8 -0.5
v -0.6 1.8 -0.9
v -0.6 2 -0.4
v -0.6 2 -0.5
v -0.6 2 -0.6
v -0.6 2 -0.8
v -0.6 2 -0.9
v -0.6 2 -1
v -0.6 2.2 -0.6
v -0.6 2.2 -0.8
v -0.6 2.3 -0.5
v -0.6 2.3 -0.9
v -0.4 2 -0.5
v -0.4 2 -0.9
v -0.4 2.3 -0.5
v -0.4 2.3 -0.9
v -0.3 1.8 -0.5
v -0.3 1.8 -0.6
v -0.3 1.8 -0.8
v -0.3 1.8 -0.9
v -0.3 2 -0.5
v -0.3 2 -0.6
v -0.3 2 -0.8
v -0.3 2 -0.9
v 0 1.7 -0.6
v 0 1.7 -0.8
v 0 1.8 -0.6
v 0 1.8 -0.8
v 0.3 1.6 -0.6
v 0.3 1.6 -0.8
v 0.3 1.7 -0.6
v 0.3 1.7 -0.8
v 1.4 2.1 -0.6
v 1.4 2.1 -0.8
v 1.4 2.2 -0.6
v 1.4 2.2 -0.8
v 1.6 2 -0.5
v 1.6 2 -0.9
v 1.6 2.1 -0.5
v 1.6 2.1 -0.9
v 1.8 1.6 -0.5
v 1.8 1.6 -0.9
v 1.8 2 -0.5
v 1.8 2 -0.9
v -1.5 1.7 -0.4
v -1.5 2 -0.4
v -0.6 1.7 -0.4
v -0.6 2 -0.4
v -1.8 1.8 -0.5
v -1.8 2.1 -0.5
v -1.6 1.9 -0.5
v -1.6 2.1 -0.5
v -1.5 1.8 -0.5
v -1.5 1.9 -0.5
v -1.5 2 -0.5
v -1.5 2.3 -0.5
v -1.4 2 -0.5
v -1.4 2.3 -0.5
v -1.3 2 -0.5
v -1.3 2.3 -0.5
v -1.2 2 -0.5
v -1.2 2.3 -0.5
v -1.1 2 -0.5
v -1.1 2.3 -0.5
v -1 2 -0.5
v -1 2.3 -0.5
v -0.9 2 -0.5
v -0.9 2.3 -0.5
v -0.8 2 -0.5
v -0.8 2.3 -0.5
v -0.7 2 -0.5
v -0.7 2.3 -0.5
v -0.6 1.8 -0.5
v -0.6 2 -0.5
v -0.6 2.3 -0.5
v -0.5 2 -0.5
v -0.5 2.3 -0.5
v -0.4 2 -0.5
v -0.4 2.3 -0.5
v -0.3 1.8 -0.5
v -0.3 2 -0.5
v 0.4 1.8 -0.5
v 0.4 2.1 -0.5
v 0.5 1.7 -0.5
v 0.5 1.8 -0.5
v 1.3 1.6 -0.5
v 1.3 1.7 -0.5
v 1.6 2 -0.5
v 1.6 2.1 -0.5
v 1.8 1.6 -0.5
v 1.8 2 -0.5
v -1.8 2.1 -0.6
v -1.8 2.4 -0.6
v -1.7 2.2 -0.6
v -1.7 2.4 -0.6
v -1.6 1.9 -0.6
v -1.6 2.1 -0.6
v -1.5 1.9 -0.6
v -1.5 2 -0.6
v -1.5 2.2 -0.6
v -1.4 1.9 -0.6
v -1.4 2 -0.6
v -1.4 2.2 -0.6
v -1.3 1.9 -0.6
v -1.3 2 -0.6
v -1.3 2.2 -0.6
v -1.2 1.9 -0.6
v -1.2 2 -0.6
v -1.2 2.2 -0.6
v -1.1 1.9 -0.6
v -1.1 2 -0.6
v -1.1 2.2 -0.6
v -1 1.9 -0.6
v -1 2 -0.6
v -1 2.2 -0.6
v -0.9 1.9 -0.6
v -0.9 2 -0.6
v -0.9 2.2 -0.6
v -0.8 1.9 -0.6
v -0.8 2 -0.6
v -0.8 2.2 -0.6
v -0.7 1.9 -0.6
v -0.7 2 -0.6
v -0.7 2.2 -0.6
v -0.6 2 -0.6
v -0.6 2.2 -0.6
v -0.5 2 -0.6
v -0.5 2.2 -0.6
v -0.3 1.8 -0.6
v -0.3 2 -0.6
v -0.3 2.1 -0.6
v -0.0999999 1.6 -0.6
v -0.0999999 1.8 -0.6
v 0 1.7 -0.6
v 0 1.8 -0.6
v 0.2 1.7 -0.6
v 0.2 1.8 -0.6
v 0.3 1.6 -0.6
v 0.3 1.7 -0.6
v 0.4 1.8 -0.6
v 0.4 2.1 -0.6
v 0.4 2.2 -0.6
v 0.5 1.7 -0.6
v 0.5 1.8 -0.6
v 1.4 2.1 -0.6
v 1.4 2.2 -0.6
v -1.8 1.9 -0.8
v -1.8 2.1 -0.8
v -1.6 1.9 -0.8
v -1.6 2.1 -0.8
v -1.4 1.9 -0.9
v -1.4 2 -0.9
v -1.3 1.9 -0.9
v -1.3 2 -0.9
v -1.2 1.9 -0.9
v -1.2 2 -0.9
v -1.1 1.9 -0.9
v -1.1 2 -0.9
v -1 1.9 -0.9
v -1 2 -0.9
v -0.9 1.9 -0.9
v -0.9 2 -0.9
v -0.8 1.9 -0.9
v -0.8 2 -0.9
v -0.7 1.9 -0.9
v -0.7 2 -0.9
v -1.4 1.9 -0.5
v -1.4 2 -0.5
v -1.3 1.9 -0.5
v -1.3 2 -0.5
v -1.2 1.9 -0.5
v -1.2 2 -0.5
v -1.1 1.9 -0.5
v -1.1 2 -0.5
v -1 1.9 -0.5
v -1 2 -0.5
v -0.9 1.9 -0.5
v -0.9 2 -0.5
v -0.8 1.9 -0.5
v -0.8 2 -0.5
v -0.7 1.9 -0.5
v -0.7 2 -0.5
v -1.8 1.9 -0.6
v -1.8 2.1 -0.6
v -1.6 1.9 -0.6
v -1.6 2.1 -0.6
v -1.8 2.1 -0.8
v -1.8 2.4 -0.8
v -1.7 2.2 -0.8
v -1.7 2.4 -0.8
v -1.5 2.1 -0.8
v -1.5 2.2 -0.8
v -1.4 1.9 -0.8
v -1.4 2 -0.8
v -1.4 2.2 -0.8
v -1.3 1.9 -0.8
v -1.3 2 -0.8
v -1.3 2.2 -0.8
v -1.2 1.9 -0.8
v -1.2 2 -0.8
v -1.2 2.2 -0.8
v -1.1 1.9 -0.8
v -1.1 2 -0.8
v -1.1 2.2 -0.8
v -1 1.9 -0.8
v -1 2 -0.8
v -1 2.2 -0.8
v -0.9 1.9 -0.8
v -0.9 2 -0.8
v -0.9 2.2 -0.8
v -0.8 1.9 -0.8
v -0.8 2 -0.8
v -0.8 2.2 -0.8
v -0.7 1.9 -0.8
v -0.7 2 -0.8
v -0.7 2.2 -0.8
v -0.6 2 -0.8
v -0.6 2.2 -0.8
v -0.5 2 -0.8
v -0.5 2.2 -0.8
v -0.3 1.8 -0.8
v -0.3 2 -0.8
v -0.3 2.1 -0.8
v -0.0999999 1.6 -0.8
v -0.0999999 1.8 -0.8
v 0 1.7 -0.8
v 0 1.8 -0.8
v 0.2 1.7 -0.8
v 0.2 1.8 -0.8
v 0.3 1.6 -0.8
v 0.3 1.7 -0.8
v 0.4 1.8 -0.8
v 0.4 2.1 -0.8
v 0.4 2.2 -0.8
v 0.5 1.7 -0.8
v 0.5 1.8 -0.8
v 1.4 2.1 -0.8
v 1.4 2.2 -0.8
v -1.8 1.8 -0.9
v -1.8 2.1 -0.9
v -1.5 1.8 -0.9
v -1.5 2 -0.9
v -1.5 2.1 -0.9
v -1.5 2.3 -0.9
v -1.4 2 -0.9
v -1.4 2.3 -0.9
v -1.3 2 -0.9
v -1.3 2.3 -0.9
v -1.2 2 -0.9
v -1.2 2.3 -0.9
v -1.1 2 -0.9
v -1.1 2.3 -0.9
v -1 2 -0.9
v -1 2.3 -0.9
v -0.9 2 -0.9
v -0.9 2.3 -0.9
v -0.8 2 -0.9
v -0.8 2.3 -0.9
v -0.7 2 -0.9
v -0.7 2.3 -0.9
v -0.6 1.8 -0.9
v -0.6 2 -0.9
v -0.6 2.3 -0.9
v -0.5 2 -0.9
v -0.5 2.3 -0.9
v -0.4 2 -0.9
v -0.4 2.3 -0.9
v -0.3 1.8 -0.9
v -0.3 2 -0.9
v 0.4 1.8 -0.9
v 0.4 2.1 -0.9
v 0.5 1.7 -0.9
v 0.5 1.8 -0.9
v 1.3 1.6 -0.9
v 1.3 1.7 -0.9
v 1.6 2 -0.9
v 1.6 2.1 -0.9
v 1.8 1.6 -0.9
v 1.8 2 -0.9
v -1.5 1.7 -1
v -1.5 2 -1
v -0.6 1.7 -1
v -0.6 2 -1
v 1.3 1.6 -0.5
v 1.8 1.6 -0.5
v -0.0999999 1.6 -0.6
v 0.3 1.6 -0.6
v -0.0999999 1.6 -0.8
v 0.3 1.6 -0.8
v 1.3 1.6 -0.9
v 1.8 1.6 -0.9
v -1.5 1.7 -0.4
v -0.6 1.7 -0.4
v 0.5 1.7 -0.5
v 1.3 1.7 -0.5
v 0.3 1.7 -0.6
v 0.5 1.7 -0.6
v 0.9 1.7 -0.6
v 0.3 1.7 -0.8
v 0.5 1.7 -0.8
v 0.9 1.7 -0.8
v 0.5 1.7 -0.9
v 1.3 1.7 -0.9
v -1.5 1.7 -1
v -0.6 1.7 -1
v -1.8 1.8 -0.5
v -1.5 1.8 -0.5
v -0.6 1.8 -0.5
v -0.3 1.8 -0.5
v 0.4 1.8 -0.5
v 0.5 1.8 -0.5
v -0.3 1.8 -0.6
v -0.0999999 1.8 -0.6
v 0 1.8 -0.6
v 0.2 1.8 -0.6
v 0.4 1.8 -0.6
v 0.5 1.8 -0.6
v -0.3 1.8 -0.8
v -0.0999999 1.8 -0.8
v 0 1.8 -0.8
v 0.2 1.8 -0.8
v 0.4 1.8 -0.8
v 0.5 1.8 -0.8
v -1.8 1.8 -0.9
v -1.5 1.8 -0.9
v -0.6 1.8 -0.9
v -0.3 1.8 -0.9
v 0.4 1.8 -0.9
v 0.5 1.8 -0.9
v -1.8 2.1 -0.6
v -1.6 2.1 -0.6
v -1.8 2.1 -0.8
v -1.6 2.1 -0.8
v 0 1.7 -0.6
v 0.2 1.7 -0.6
v 0 1.7 -0.8
v 0.2 1.7 -0.8
v -1.6 1.9 -0.5
v -1.5 1.9 -0.5
v -1.4 1.9 -0.5
v -1.3 1.9 -0.5
v -1.2 1.9 -0.5
v -1.1 1.9 -0.5
v -1 1.9 -0.5
v -0.9 1.9 -0.5
v -0.8 1.9 -0.5
v -0.7 1.9 -0.5
v -1.8 1.9 -0.6
v -1.6 1.9 -0.6
v -1.5 1.9 -0.6
v -1.4 1.9 -0.6
v -1.3 1.9 -0.6
v -1.2 1.9 -0.6
v -1.1 1.9 -0.6
v -1 1.9 -0.6
v -0.9 1.9 -0.6
v -0.8 1.9 -0.6
v -0.7 1.9 -0.6
v -1.8 1.9 -0.8
v -1.6 1.9 -0.8
v -1.4 1.9 -0.8
v -1.3 1.9 -0.8
v -1.2 1.9 -0.8
v -1.1 1.9 -0.8
v -1 1.9 -0.8
v -0.9 1.9 -0.8
v -0.8 1.9 -0.8
v -0.7 1.9 -0.8
v -1.4 1.9 -0.9
v -1.3 1.9 -0.9
v -1.2 1.9 -0.9
v -1.1 1.9 -0.9
v -1 1.9 -0.9
v -0.9 1.9 -0.9
v -0.8 1.9 -0.9
v -0.7 1.9 -0.9
v -1.5 2 -0.4
v -0.6 2 -0.4
v -1.5 2 -0.5
v -1.4 2 -0.5
v -1.3 2 -0.5
v -1.2 2 -0.5
v -1.1 2 -0.5
v -1 2 -0.5
v -0.9 2 -0.5
v -0.8 2 -0.5
v -0.7 2 -0.5
v -0.6 2 -0.5
v -0.5 2 -0.5
v -0.4 2 -0.5
v -0.3 2 -0.5
v 1.6 2 -0.5
v 1.8 2 -0.5
v -0.6 2 -0.6
v -0.5 2 -0.6
v -0.3 2 -0.6
v -0.6 2 -0.8
v -0.5 2 -0.8
v -0.3 2 -0.8
v -1.5 2 -0.9
v -1.4 2 -0.9
v -1.3 2 -0.9
v -1.2 2 -0.9
v -1.1 2 -0.9
v -1 2 -0.9
v -0.9 2 -0.9
v -0.8 2 -0.9
v -0.7 2 -0.9
v -0.6 2 -0.9
v -0.5 2 -0.9
v -0.4 2 -0.9
v -0.3 2 -0.9
v 1.6 2 -0.9
v 1.8 2 -0.9
v -1.5 2 -1
v -0.6 2 -1
v -1.8 2.1 -0.5
v -1.6 2.1 -0.5
v 0.4 2.1 -0.5
v 1.6 2.1 -0.5
v -1.8 2.1 -0.6
v -1.6 2.1 -0.6
v -0.3 2.1 -0.6
v 0.4 2.1 -0.6
v 1.4 2.1 -0.6
v -1.8 2.1 -0.8
v -1.5 2.1 -0.8
v -0.3 2.1 -0.8
v 0.4 2.1 -0.8
v 1.4 2.1 -0.8
v -1.8 2.1 -0.9
v -1.5 2.1 -0.9
v 0.4 2.1 -0.9
v 1.6 2.1 -0.9
v -1.7 2.2 -0.6
v -1.5 2.2 -0.6
v -1.4 2.2 -0.6
v -1.3 2.2 -0.6
v -1.2 2.2 -0.6
v -1.1 2.2 -0.6
v -1 2.2 -0.6
v -0.9 2.2 -0.6
v -0.8 2.2 -0.6
v -0.7 2.2 -0.6
v -0.6 2.2 -0.6
v -0.5 2.2 -0.6
v 0.4 2.2 -0.6
v 1.4 2.2 -0.6
v -1.7 2.2 -0.8
v -1.5 2.2 -0.8
v -1.4 2.2 -0.8
v -1.3 2.2 -0.8
v -1.2 2.2 -0.8
v -1.1 2.2 -0.8
v -1 2.2 -0.8
v -0.9 2.2 -0.8
v -0.8 2.2 -0.8
v -0.7 2.2 -0.8
v -0.6 2.2 -0.8
v -0.5 2.2 -0.8
v 0.4 2.2 -0.8
v 1.4 2.2 -0.8
v -1.5 2.3 -0.5
v -1.4 2.3 -0.5
v -1.3 2.3 -0.5
v -1.2 2.3 -0.5
v -1.1 2.3 -0.5
v -1 2.3 -0.5
v -0.9 2.3 -0.5
v -0.8 2.3 -0.5
v -0.7 2.3 -0.5
v -0.6 2.3 -0.5
v -0.5 2.3 -0.5
v -0.4 2.3 -0.5
v -1.5 2.3 -0.9
v -1.4 2.3 -0.9
v -1.3 2.3 -0.9
v -1.2 2.3 -0.9
v -1.1 2.3 -0.9
v -1 2.3 -0.9
v -0.9 2.3 -0.9
v -0.8 2.3 -0.9
v -0.7 2.3 -0.9
v -0.6 2.3 -0.9
v -0.5 2.3 -0.9
v -0.4 2.3 -0.9
v -1.8 2.4 -0.6
v -1.7 2.4 -0.6
v -1.8 2.4 -0.8
v -1.7 2.4 -0.8

# faces
f 3/2/1 2/2/1 1/2/1
f 4/2/1 2/2/1 3/2/1
f 5/2/1 3/2/1 1/2/1
f 6/2/1 3/2/1 5/2/1
f 7/2/1 2/2/1 4/2/1
f 8/2/1 2/2/1 7/2/1
f 9/2/1 7/2/1 6/2/1
f 10/2/1 7/2/1 9/2/1
f 13/2/1 12/2/1 11/2/1
f 14/2/1 12/2/1 13/2/1
f 17/1/1 16/1/1 15/1/1
f 18/1/1 16/1/1 17/1/1
f 19/1/1 17/1/1 15/1/1
f 21/1/1 19/1/1 15/1/1
f 22/2/1 20/2/1 19/2/1
f 22/1/1 19/1/1 21/1/1
f 23/2/1 20/2/1 22/2/1
f 24/1/1 16/1/1 18/1/1
f 25/1/1 16/1/1 24/1/1
f 28/3/1 23/3/1 22/3/1
f 29/3/1 27/3/1 26/3/1
f 30/3/1 28/3/1 22/3/1
f 30/3/1 29/3/1 28/3/1
f 31/3/1 27/3/1 29/3/1
f 31/3/1 29/3/1 30/3/1
f 36/2/1 33/2/1 32/2/1
f 37/2/1 33/2/1 36/2/1
f 38/2/1 35/2/1 34/2/1
f 39/2/1 35/2/1 38/2/1
f 40/3/1 37/3/1 36/3/1
f 41/3/1 39/3/1 38/3/1
f 42/3/1 40/3/1 36/3/1
f 42/3/1 41/3/1 40/3/1
f 43/3/1 39/3/1 41/3/1
f 43/3/1 41/3/1 42/3/1
f 48/2/1 45/2/1 44/2/1
f 49/2/1 45/2/1 48/2/1
f 50/2/1 47/2/1 46/2/1
f 51/2/1 47/2/1 50/2/1
f 52/3/1 49/3/1 48/3/1
f 53/3/1 51/3/1 50/3/1
f 54/3/1 52/3/1 48/3/1
f 54/3/1 53/3/1 52/3/1
f 55/3/1 51/3/1 53/3/1
f 55/3/1 53/3/1 54/3/1
f 60/2/1 57/2/1 56/2/1
f 61/2/1 57/2/1 60/2/1
f 62/2/1 59/2/1 58/2/1
f 63/2/1 59/2/1 62/2/1
f 64/3/1 61/3/1 60/3/1
f 65/3/1 63/3/1 62/3/1
f 66/3/1 64/3/1 60/3/1
f 66/3/1 65/3/1 64/3/1
f 67/3/1 63/3/1 65/3/1
f 67/3/1 65/3/1 66/3/1
f 72/2/1 69/2/1 68/2/1
f 73/2/1 69/2/1 72/2/1
f 74/2/1 71/2/1 70/2/1
f 75/2/1 71/2/1 74/2/1
f 76/3/1 73/3/1 72/3/1
f 77/3/1 75/3/1 74/3/1
f 78/3/1 76/3/1 72/3/1
f 78/3/1 77/3/1 76/3/1
f 79/3/1 75/3/1 77/3/1
f 79/3/1 77/3/1 78/3/1
f 84/3/1 81/3/1 80/3/1
f 85/3/1 83/3/1 82/3/1
f 86/3/1 84/3/1 80/3/1
f 86/3/1 85/3/1 84/3/1
f 87/3/1 83/3/1 85/3/1
f 87/3/1 85/3/1 86/3/1
f 90/2/1 89/2/1 88/2/1
f 91/2/1 89/2/1 90/2/1
f 94/2/1 93/2/1 92/2/1
f 95/2/1 93/2/1 94/2/1
f 98/2/1 97/2/1 96/2/1
f 99/2/1 97/2/1 98/2/1
f 104/1/1 101/1/1 100/1/1
f 105/1/1 101/1/1 104/1/1
f 106/1/1 103/1/1 102/1/1
f 107/1/1 103/1/1 106/1/1
f 108/1/1 106/1/1 105/1/1
f 109/1/1 106/1/1 108/1/1
f 114/1/1 111/1/1 110/1/1
f 115/1/1 111/1/1 114/1/1
f 116/1/1 113/1/1 112/1/1
f 117/1/1 113/1/1 116/1/1
f 120/1/1 119/1/1 118/1/1
f 121/1/1 119/1/1 120/1/1
f 122/2/2 123/2/2 124/2/2
f 124/2/2 123/2/2 125/2/2
f 126/2/2 127/2/2 128/2/2
f 128/2/2 127/2/2 129/2/2
f 130/2/2 131/2/2 134/2/2
f 134/2/2 131/2/2 135/2/2
f 132/2/2 133/2/2 136/2/2
f 136/2/2 133/2/2 137/2/2
f 134/3/2 135/3/2 138/3/2
f 136/3/2 137/3/2 139/3/2
f 134/3/2 138/3/2 140/3/2
f 138/3/2 139/3/2 140/3/2
f 139/3/2 137/3/2 141/3/2
f 140/3/2 139/3/2 141/3/2
f 142/2/2 143/2/2 146/2/2
f 146/2/2 143/2/2 147/2/2
f 144/2/2 145/2/2 148/2/2
f 148/2/2 145/2/2 149/2/2
f 146/3/2 147/3/2 150/3/2
f 148/3/2 149/3/2 151/3/2
f 146/3/2 150/3/2 152/3/2
f 150/3/2 151/3/2 152/3/2
f 151/3/2 149/3/2 153/3/2
f 152/3/2 151/3/2 153/3/2
f 154/2/2 155/2/2 158/2/2
f 158/2/2 155/2/2 159/2/2
f 156/2/2 157/2/2 160/2/2
f 160/2/2 157/2/2 161/2/2
f 158/3/2 159/3/2 162/3/2
f 160/3/2 161/3/2 163/3/2
f 158/3/2 162/3/2 164/3/2
f 162/3/2 163/3/2 164/3/2
f 163/3/2 161/3/2 165/3/2
f 164/3/2 163/3/2 165/3/2
f 166/2/2 167/2/2 170/2/2
f 170/2/2 167/2/2 171/2/2
f 168/2/2 169/2/2 172/2/2
f 172/2/2 169/2/2 173/2/2
f 170/3/2 171/3/2 174/3/2
f 172/3/2 173/3/2 175/3/2
f 170/3/2 174/3/2 176/3/2
f 174/3/2 175/3/2 176/3/2
f 175/3/2 173/3/2 177/3/2
f 176/3/2 175/3/2 177/3/2
f 178/1/2 179/1/2 180/1/2
f 180/1/2 179/1/2 181/1/2
f 178/1/2 180/1/2 182/1/2
f 182/1/2 180/1/2 183/1/2
f 181/1/2 179/1/2 186/1/2
f 186/1/2 179/1/2 187/1/2
f 183/3/2 184/3/2 188/3/2
f 185/3/2 186/3/2 189/3/2
f 183/3/2 188/3/2 190/3/2
f 188/3/2 189/3/2 190/3/2
f 189/3/2 186/3/2 191/3/2
f 190/3/2 189/3/2 191/3/2
f 192/3/2 193/3/2 194/3/2
f 194/3/2 193/3/2 195/3/2
f 196/2/2 197/2/2 200/2/2
f 200/2/2 197/2/2 201/2/2
f 198/2/2 199/2/2 202/2/2
f 202/2/2 199/2/2 203/2/2
f 204/2/2 205/2/2 206/2/2
f 206/2/2 205/2/2 207/2/2
f 208/2/2 209/2/2 210/2/2
f 210/2/2 209/2/2 211/2/2
f 212/1/2 213/1/2 214/1/2
f 214/1/2 213/1/2 215/1/2
f 216/1/2 217/1/2 218/1/2
f 218/1/2 217/1/2 219/1/2
f 220/1/2 221/1/2 222/1/2
f 222/1/2 221/1/2 223/1/2
f 226/1/3 225/1/3 224/1/3
f 227/1/3 225/1/3 226/1/3
f 230/2/3 229/2/3 228/2/3
f 231/2/3 229/2/3 230/2/3
f 232/2/3 230/2/3 228/2/3
f 233/2/3 230/2/3 232/2/3
f 236/3/3 235/3/3 234/3/3
f 237/3/3 235/3/3 236/3/3
f 240/3/3 239/3/3 238/3/3
f 241/3/3 239/3/3 240/3/3
f 244/3/3 243/3/3 242/3/3
f 245/3/3 243/3/3 244/3/3
f 248/3/3 247/3/3 246/3/3
f 249/3/3 247/3/3 248/3/3
f 253/3/3 251/3/3 250/3/3
f 254/3/3 251/3/3 253/3/3
f 255/2/3 253/2/3 252/2/3
f 257/2/3 255/2/3 252/2/3
f 257/3/3 256/3/3 255/3/3
f 258/3/3 256/3/3 257/3/3
f 259/2/3 257/2/3 252/2/3
f 260/2/3 257/2/3 259/2/3
f 264/1/3 262/1/3 261/1/3
f 266/1/3 264/1/3 263/1/3
f 267/1/3 262/1/3 264/1/3
f 267/1/3 266/1/3 265/1/3
f 267/1/3 264/1/3 266/1/3
f 268/1/3 262/1/3 267/1/3
f 269/1/3 267/1/3 265/1/3
f 270/1/3 267/1/3 269/1/3
f 273/2/3 272/2/3 271/2/3
f 274/2/3 272/2/3 273/2/3
f 276/2/3 273/2/3 271/2/3
f 277/2/3 276/2/3 275/2/3
f 278/2/3 276/2/3 277/2/3
f 279/2/3 273/2/3 276/2/3
f 279/2/3 276/2/3 278/2/3
f 283/2/3 281/2/3 280/2/3
f 283/2/3 282/2/3 281/2/3
f 284/2/3 282/2/3 283/2/3
f 285/2/3 282/2/3 284/2/3
f 289/2/3 287/2/3 286/2/3
f 289/2/3 288/2/3 287/2/3
f 290/2/3 288/2/3 289/2/3
f 291/2/3 288/2/3 290/2/3
f 295/2/3 293/2/3 292/2/3
f 295/2/3 294/2/3 293/2/3
f 296/2/3 294/2/3 295/2/3
f 297/2/3 294/2/3 296/2/3
f 301/2/3 299/2/3 298/2/3
f 301/2/3 300/2/3 299/2/3
f 302/2/3 300/2/3 301/2/3
f 303/2/3 300/2/3 302/2/3
f 306/2/3 305/2/3 304/2/3
f 307/2/3 305/2/3 306/2/3
f 312/2/3 309/2/3 308/2/3
f 312/2/3 310/2/3 309/2/3
f 313/2/3 312/2/3 311/2/3
f 314/2/3 310/2/3 312/2/3
f 314/2/3 312/2/3 313/2/3
f 315/2/3 313/2/3 311/2/3
f 316/2/3 310/2/3 314/2/3
f 317/2/3 315/2/3 311/2/3
f 317/2/3 316/2/3 315/2/3
f 318/2/3 316/2/3 317/2/3
f 319/2/3 310/2/3 316/2/3
f 319/2/3 316/2/3 318/2/3
f 320/2/3 310/2/3 319/2/3
f 322/2/3 319/2/3 318/2/3
f 323/2/3 319/2/3 322/2/3
f 324/1/3 321/1/3 320/1/3
f 325/1/3 321/1/3 324/1/3
f 328/2/3 327/2/3 326/2/3
f 329/2/3 327/2/3 328/2/3
f 332/1/3 331/1/3 330/1/3
f 333/1/3 331/1/3 332/1/3
f 336/1/3 335/1/3 334/1/3
f 337/1/3 335/1/3 336/1/3
f 340/1/3 339/1/3 338/1/3
f 341/1/3 339/1/3 340/1/3
f 344/1/3 343/1/3 342/1/3
f 345/1/3 343/1/3 344/1/3
f 346/1/4 347/1/4 348/1/4
f 348/1/4 347/1/4 349/1/4
f 350/1/4 351/1/4 352/1/4
f 352/1/4 351/1/4 353/1/4
f 354/1/4 355/1/4 356/1/4
f 356/1/4 355/1/4 357/1/4
f 358/1/4 359/1/4 360/1/4
f 360/1/4 359/1/4 361/1/4
f 362/2/4 363/2/4 364/2/4
f 364/2/4 363/2/4 365/2/4
f 366/2/4 367/2/4 368/2/4
f 368/2/4 367/2/4 369/2/4
f 366/2/4 368/2/4 370/2/4
f 370/2/4 368/2/4 371/2/4
f 372/2/4 373/2/4 375/2/4
f 373/2/4 374/2/4 375/2/4
f 375/2/4 374/2/4 376/2/4
f 376/2/4 374/2/4 377/2/4
f 378/2/4 379/2/4 381/2/4
f 379/2/4 380/2/4 381/2/4
f 381/2/4 380/2/4 382/2/4
f 382/2/4 380/2/4 383/2/4
f 384/2/4 385/2/4 387/2/4
f 385/2/4 386/2/4 387/2/4
f 387/2/4 386/2/4 388/2/4
f 388/2/4 386/2/4 389/2/4
f 390/2/4 391/2/4 393/2/4
f 391/2/4 392/2/4 393/2/4
f 393/2/4 392/2/4 394/2/4
f 394/2/4 392/2/4 395/2/4
f 396/2/4 397/2/4 398/2/4
f 398/2/4 397/2/4 399/2/4
f 400/2/4 401/2/4 404/2/4
f 401/2/4 402/2/4 404/2/4
f 403/2/4 404/2/4 405/2/4
f 404/2/4 402/2/4 406/2/4
f 405/2/4 404/2/4 406/2/4
f 403/2/4 405/2/4 407/2/4
f 406/2/4 402/2/4 408/2/4
f 403/2/4 407/2/4 409/2/4
f 407/2/4 408/2/4 409/2/4
f 409/2/4 408/2/4 410/2/4
f 408/2/4 402/2/4 411/2/4
f 410/2/4 408/2/4 411/2/4
f 411/2/4 402/2/4 412/2/4
f 410/2/4 411/2/4 414/2/4
f 414/2/4 411/2/4 415/2/4
f 412/1/4 413/1/4 416/1/4
f 416/1/4 413/1/4 417/1/4
f 418/2/4 419/2/4 420/2/4
f 420/2/4 419/2/4 421/2/4
f 421/2/4 419/2/4 422/2/4
f 422/3/4 423/3/4 424/3/4
f 421/3/4 422/3/4 424/3/4
f 424/3/4 423/3/4 425/3/4
f 426/3/4 427/3/4 428/3/4
f 428/3/4 427/3/4 429/3/4
f 430/3/4 431/3/4 432/3/4
f 432/3/4 431/3/4 433/3/4
f 434/3/4 435/3/4 436/3/4
f 436/3/4 435/3/4 437/3/4
f 438/3/4 439/3/4 441/3/4
f 441/3/4 439/3/4 442/3/4
f 440/2/4 441/2/4 443/2/4
f 440/2/4 443/2/4 445/2/4
f 443/3/4 444/3/4 445/3/4
f 445/3/4 444/3/4 446/3/4
f 440/2/4 445/2/4 447/2/4
f 447/2/4 445/2/4 448/2/4
f 449/1/4 450/1/4 452/1/4
f 451/1/4 452/1/4 454/1/4
f 452/1/4 450/1/4 455/1/4
f 453/1/4 454/1/4 455/1/4
f 454/1/4 452/1/4 455/1/4
f 455/1/4 450/1/4 456/1/4
f 453/1/4 455/1/4 457/1/4
f 457/1/4 455/1/4 458/1/4
f 459/1/4 460/1/4 461/1/4
f 461/1/4 460/1/4 462/1/4
f 467/2/5 466/2/5 465/2/5
f 468/2/5 466/2/5 467/2/5
f 469/1/5 464/1/5 463/1/5
f 470/1/5 464/1/5 469/1/5
f 476/1/5 474/1/5 473/1/5
f 477/1/5 474/1/5 476/1/5
f 478/2/5 476/2/5 475/2/5
f 478/2/5 477/2/5 476/2/5
f 479/2/5 477/2/5 478/2/5
f 480/1/5 474/1/5 477/1/5
f 480/2/5 477/2/5 479/2/5
f 481/1/5 480/1/5 479/1/5
f 482/1/5 474/1/5 480/1/5
f 482/1/5 480/1/5 481/1/5
f 483/1/5 472/1/5 471/1/5
f 484/1/5 472/1/5 483/1/5
f 491/2/5 488/2/5 487/2/5
f 495/1/5 490/1/5 489/1/5
f 496/1/5 490/1/5 495/1/5
f 497/2/5 491/2/5 487/2/5
f 497/2/5 492/2/5 491/2/5
f 498/2/5 492/2/5 497/2/5
f 499/2/5 494/2/5 493/2/5
f 500/2/5 494/2/5 499/2/5
f 503/2/5 486/2/5 485/2/5
f 504/2/5 486/2/5 503/2/5
f 505/2/5 497/2/5 487/2/5
f 506/2/5 497/2/5 505/2/5
f 507/1/5 502/1/5 501/1/5
f 508/1/5 502/1/5 507/1/5
f 511/2/5 510/2/5 509/2/5
f 512/2/5 510/2/5 511/2/5
f 513/2/6 514/2/6 515/2/6
f 515/2/6 514/2/6 516/2/6
f 517/2/6 518/2/6 528/2/6
f 528/2/6 518/2/6 529/2/6
f 519/2/6 520/2/6 530/2/6
f 530/2/6 520/2/6 531/2/6
f 521/2/6 522/2/6 532/2/6
f 532/2/6 522/2/6 533/2/6
f 523/2/6 524/2/6 534/2/6
f 534/2/6 524/2/6 535/2/6
f 525/2/6 526/2/6 536/2/6
f 536/2/6 526/2/6 537/2/6
f 527/2/6 528/2/6 538/2/6
f 538/2/6 528/2/6 539/2/6
f 540/2/6 541/2/6 548/2/6
f 548/2/6 541/2/6 549/2/6
f 542/2/6 543/2/6 550/2/6
f 550/2/6 543/2/6 551/2/6
f 544/2/6 545/2/6 552/2/6
f 552/2/6 545/2/6 553/2/6
f 546/2/6 547/2/6 554/2/6
f 554/2/6 547/2/6 555/2/6
f 556/1/6 557/1/6 558/1/6
f 558/1/6 557/1/6 559/1/6
f 559/1/6 557/1/6 560/1/6
f 560/1/6 557/1/6 561/1/6
f 561/1/6 557/1/6 562/1/6
f 562/1/6 557/1/6 563/1/6
f 563/1/6 557/1/6 564/1/6
f 564/1/6 557/1/6 565/1/6
f 565/1/6 557/1/6 566/1/6
f 566/1/6 557/1/6 567/1/6
f 567/2/6 568/2/6 573/2/6
f 573/2/6 568/2/6 574/2/6
f 569/2/6 570/2/6 575/2/6
f 569/2/6 575/2/6 578/2/6
f 576/2/6 577/2/6 588/2/6
f 588/2/6 577/2/6 589/2/6
f 569/2/6 578/2/6 590/2/6
f 590/2/6 578/2/6 591/2/6
f 571/1/6 572/1/6 592/1/6
f 592/1/6 572/1/6 593/1/6
f 586/1/6 587/1/6 594/1/6
f 587/1/6 588/1/6 594/1/6
f 585/1/6 586/1/6 594/1/6
f 584/1/6 585/1/6 594/1/6
f 583/1/6 584/1/6 594/1/6
f 582/1/6 583/1/6 594/1/6
f 581/1/6 582/1/6 594/1/6
f 580/1/6 581/1/6 594/1/6
f 579/1/6 580/1/6 594/1/6
f 594/1/6 588/1/6 595/1/6
f 596/2/6 597/2/6 600/2/6
f 600/2/6 597/2/6 601/2/6
f 598/1/6 599/1/6 603/1/6
f 603/1/6 599/1/6 604/1/6
f 602/2/6 603/2/6 607/2/6
f 607/2/6 603/2/6 608/2/6
f 604/1/6 599/1/6 609/1/6
f 605/2/6 606/2/6 610/2/6
f 610/2/6 606/2/6 611/2/6
f 608/1/6 609/1/6 612/1/6
f 609/1/6 599/1/6 613/1/6
f 612/1/6 609/1/6 613/1/6
f 614/2/6 615/2/6 628/2/6
f 628/2/6 615/2/6 629/2/6
f 616/2/6 617/2/6 630/2/6
f 630/2/6 617/2/6 631/2/6
f 618/2/6 619/2/6 632/2/6
f 632/2/6 619/2/6 633/2/6
f 620/2/6 621/2/6 634/2/6
f 634/2/6 621/2/6 635/2/6
f 622/2/6 623/2/6 636/2/6
f 636/2/6 623/2/6 637/2/6
f 624/2/6 625/2/6 638/2/6
f 638/2/6 625/2/6 639/2/6
f 626/1/6 627/1/6 640/1/6
f 640/1/6 627/1/6 641/1/6
f 642/3/6 643/3/6 654/3/6
f 654/3/6 643/3/6 655/3/6
f 644/3/6 645/3/6 656/3/6
f 656/3/6 645/3/6 657/3/6
f 646/3/6 647/3/6 658/3/6
f 658/3/6 647/3/6 659/3/6
f 648/3/6 649/3/6 660/3/6
f 660/3/6 649/3/6 661/3/6
f 650/3/6 651/3/6 662/3/6
f 662/3/6 651/3/6 663/3/6
f 652/3/6 653/3/6 664/3/6
f 664/3/6 653/3/6 665/3/6
f 666/2/6 667/2/6 668/2/6
f 668/2/6 667/2/6 669/2/6
