# MagicaVoxel @ Ephtracy

# group
o 

# material
mtllib Left_Arm_Graves.mtl
usemtl palette

# normals
vn -1 0 0
vn 1 0 0
vn 0 0 1
vn 0 0 -1
vn 0 -1 0
vn 0 1 0

# texcoords
vt 0.0332031 0.5
vt 0.689453 0.5

# verts
v 1 -0.6 -0.5
v 1 -0.6 -1.1
v 1 -0.0999999 -0.5
v 1 -0.0999999 -1.1
v 1.3 -0.6 -1
v 1.3 -0.6 -1.1
v 1.3 -0.5 -1
v 1.3 -0.5 -1.1
v 1.3 -0.4 -1
v 1.3 -0.4 -1.1
v 1.3 -0.3 -1
v 1.3 -0.3 -1.1
v 1.3 -0.2 -1
v 1.3 -0.2 -1.1
v 1.3 -0.0999999 -1
v 1.3 -0.0999999 -1.1
v 2.2 -0.6 -0.5
v 2.2 -0.6 -1
v 2.2 -0.0999999 -0.5
v 2.2 -0.0999999 -1
v 1 -0.6 -0.5
v 1 -0.0999999 -0.5
v 1.2 -0.5 -0.5
v 1.2 -0.4 -0.5
v 1.2 -0.3 -0.5
v 1.2 -0.2 -0.5
v 1.3 -0.6 -0.5
v 1.3 -0.5 -0.5
v 1.3 -0.4 -0.5
v 1.3 -0.3 -0.5
v 1.3 -0.2 -0.5
v 1.3 -0.0999999 -0.5
v 2.2 -0.6 -0.5
v 2.2 -0.0999999 -0.5
v 1.3 -0.6 -1
v 1.3 -0.5 -1
v 1.3 -0.4 -1
v 1.3 -0.3 -1
v 1.3 -0.2 -1
v 1.3 -0.0999999 -1
v 2.2 -0.6 -1
v 2.2 -0.0999999 -1
v 1 -0.6 -1.1
v 1 -0.0999999 -1.1
v 1.2 -0.6 -1.1
v 1.2 -0.5 -1.1
v 1.2 -0.4 -1.1
v 1.2 -0.3 -1.1
v 1.2 -0.2 -1.1
v 1.2 -0.0999999 -1.1
v 1.3 -0.6 -1.1
v 1.3 -0.5 -1.1
v 1.3 -0.4 -1.1
v 1.3 -0.3 -1.1
v 1.3 -0.2 -1.1
v 1.3 -0.0999999 -1.1
v 1 -0.6 -0.5
v 1.3 -0.6 -0.5
v 2.2 -0.6 -0.5
v 1.2 -0.6 -1
v 1.3 -0.6 -1
v 2.2 -0.6 -1
v 1 -0.6 -1.1
v 1.2 -0.6 -1.1
v 1.3 -0.6 -1.1
v 1 -0.0999999 -0.5
v 1.3 -0.0999999 -0.5
v 2.2 -0.0999999 -0.5
v 1.2 -0.0999999 -0.6
v 1.3 -0.0999999 -0.6
v 1.2 -0.0999999 -0.7
v 1.3 -0.0999999 -0.7
v 1.2 -0.0999999 -0.8
v 1.3 -0.0999999 -0.8
v 1.2 -0.0999999 -0.9
v 1.3 -0.0999999 -0.9
v 1.2 -0.0999999 -1
v 1.3 -0.0999999 -1
v 2.2 -0.0999999 -1
v 1 -0.0999999 -1.1
v 1.2 -0.0999999 -1.1
v 1.3 -0.0999999 -1.1

# faces
f 3/2/1 2/2/1 1/2/1
f 4/2/1 2/2/1 3/2/1
f 5/1/2 6/1/2 7/1/2
f 7/1/2 6/1/2 8/1/2
f 7/2/2 8/2/2 9/2/2
f 9/2/2 8/2/2 10/2/2
f 9/1/2 10/1/2 11/1/2
f 11/1/2 10/1/2 12/1/2
f 11/2/2 12/2/2 13/2/2
f 13/2/2 12/2/2 14/2/2
f 13/1/2 14/1/2 15/1/2
f 15/1/2 14/1/2 16/1/2
f 17/1/2 18/1/2 19/1/2
f 19/1/2 18/1/2 20/1/2
f 23/2/3 22/2/3 21/2/3
f 24/2/3 22/2/3 23/2/3
f 25/2/3 22/2/3 24/2/3
f 26/2/3 22/2/3 25/2/3
f 27/2/3 23/2/3 21/2/3
f 28/1/3 24/1/3 23/1/3
f 28/2/3 23/2/3 27/2/3
f 29/2/3 25/2/3 24/2/3
f 29/1/3 24/1/3 28/1/3
f 30/1/3 26/1/3 25/1/3
f 30/2/3 25/2/3 29/2/3
f 31/2/3 22/2/3 26/2/3
f 31/1/3 26/1/3 30/1/3
f 32/2/3 22/2/3 31/2/3
f 33/1/3 30/1/3 29/1/3
f 33/1/3 28/1/3 27/1/3
f 33/1/3 32/1/3 31/1/3
f 33/1/3 31/1/3 30/1/3
f 33/1/3 29/1/3 28/1/3
f 34/1/3 32/1/3 33/1/3
f 35/1/4 36/1/4 41/1/4
f 39/1/4 40/1/4 41/1/4
f 38/1/4 39/1/4 41/1/4
f 37/1/4 38/1/4 41/1/4
f 36/1/4 37/1/4 41/1/4
f 41/1/4 40/1/4 42/1/4
f 43/2/4 44/2/4 45/2/4
f 45/2/4 44/2/4 46/2/4
f 46/2/4 44/2/4 47/2/4
f 47/2/4 44/2/4 48/2/4
f 48/2/4 44/2/4 49/2/4
f 49/2/4 44/2/4 50/2/4
f 45/1/4 46/1/4 51/1/4
f 46/2/4 47/2/4 52/2/4
f 51/1/4 46/1/4 52/1/4
f 47/1/4 48/1/4 53/1/4
f 52/2/4 47/2/4 53/2/4
f 48/2/4 49/2/4 54/2/4
f 53/1/4 48/1/4 54/1/4
f 49/1/4 50/1/4 55/1/4
f 54/2/4 49/2/4 55/2/4
f 55/1/4 50/1/4 56/1/4
f 60/2/5 58/2/5 57/2/5
f 61/1/5 59/1/5 58/1/5
f 61/2/5 58/2/5 60/2/5
f 62/1/5 59/1/5 61/1/5
f 63/2/5 60/2/5 57/2/5
f 64/1/5 61/1/5 60/1/5
f 64/2/5 60/2/5 63/2/5
f 65/1/5 61/1/5 64/1/5
f 66/2/6 67/2/6 69/2/6
f 67/1/6 68/1/6 70/1/6
f 69/2/6 67/2/6 70/2/6
f 66/2/6 69/2/6 71/2/6
f 69/1/6 70/1/6 71/1/6
f 70/1/6 68/1/6 72/1/6
f 71/1/6 70/1/6 72/1/6
f 66/2/6 71/2/6 73/2/6
f 71/2/6 72/2/6 73/2/6
f 72/1/6 68/1/6 74/1/6
f 73/2/6 72/2/6 74/2/6
f 66/2/6 73/2/6 75/2/6
f 73/1/6 74/1/6 75/1/6
f 74/1/6 68/1/6 76/1/6
f 75/1/6 74/1/6 76/1/6
f 66/2/6 75/2/6 77/2/6
f 75/2/6 76/2/6 77/2/6
f 76/1/6 68/1/6 78/1/6
f 77/2/6 76/2/6 78/2/6
f 78/1/6 68/1/6 79/1/6
f 66/2/6 77/2/6 80/2/6
f 77/1/6 78/1/6 81/1/6
f 80/2/6 77/2/6 81/2/6
f 81/1/6 78/1/6 82/1/6
