# MagicaVoxel @ Ephtracy

# group
o 

# material
mtllib Right_Arm_Graves.mtl
usemtl palette

# normals
vn -1 0 0
vn 1 0 0
vn 0 0 1
vn 0 0 -1
vn 0 -1 0
vn 0 1 0

# texcoords
vt 0.0332031 0.5
vt 0.689453 0.5

# verts
v -2.2 -0.6 -0.5
v -2.2 -0.6 -1
v -2.2 -0.0999999 -0.5
v -2.2 -0.0999999 -1
v -1.3 -0.6 -1
v -1.3 -0.6 -1.1
v -1.3 -0.5 -1
v -1.3 -0.5 -1.1
v -1.3 -0.4 -1
v -1.3 -0.4 -1.1
v -1.3 -0.3 -1
v -1.3 -0.3 -1.1
v -1.3 -0.2 -1
v -1.3 -0.2 -1.1
v -1.3 -0.0999999 -1
v -1.3 -0.0999999 -1.1
v -1 -0.6 -0.5
v -1 -0.6 -1.1
v -1 -0.0999999 -0.5
v -1 -0.0999999 -1.1
v -2.2 -0.6 -0.5
v -2.2 -0.0999999 -0.5
v -1.3 -0.6 -0.5
v -1.3 -0.5 -0.5
v -1.3 -0.4 -0.5
v -1.3 -0.3 -0.5
v -1.3 -0.2 -0.5
v -1.3 -0.0999999 -0.5
v -1.2 -0.5 -0.5
v -1.2 -0.4 -0.5
v -1.2 -0.3 -0.5
v -1.2 -0.2 -0.5
v -1 -0.6 -0.5
v -1 -0.0999999 -0.5
v -2.2 -0.6 -1
v -2.2 -0.0999999 -1
v -1.3 -0.6 -1
v -1.3 -0.5 -1
v -1.3 -0.4 -1
v -1.3 -0.3 -1
v -1.3 -0.2 -1
v -1.3 -0.0999999 -1
v -1.3 -0.6 -1.1
v -1.3 -0.5 -1.1
v -1.3 -0.4 -1.1
v -1.3 -0.3 -1.1
v -1.3 -0.2 -1.1
v -1.3 -0.0999999 -1.1
v -1.2 -0.6 -1.1
v -1.2 -0.5 -1.1
v -1.2 -0.4 -1.1
v -1.2 -0.3 -1.1
v -1.2 -0.2 -1.1
v -1.2 -0.0999999 -1.1
v -1 -0.6 -1.1
v -1 -0.0999999 -1.1
v -2.2 -0.6 -0.5
v -1.3 -0.6 -0.5
v -1 -0.6 -0.5
v -2.2 -0.6 -1
v -1.3 -0.6 -1
v -1.2 -0.6 -1
v -1.3 -0.6 -1.1
v -1.2 -0.6 -1.1
v -1 -0.6 -1.1
v -2.2 -0.0999999 -0.5
v -1.3 -0.0999999 -0.5
v -1 -0.0999999 -0.5
v -1.3 -0.0999999 -0.6
v -1.2 -0.0999999 -0.6
v -1.3 -0.0999999 -0.7
v -1.2 -0.0999999 -0.7
v -1.3 -0.0999999 -0.8
v -1.2 -0.0999999 -0.8
v -1.3 -0.0999999 -0.9
v -1.2 -0.0999999 -0.9
v -2.2 -0.0999999 -1
v -1.3 -0.0999999 -1
v -1.2 -0.0999999 -1
v -1.3 -0.0999999 -1.1
v -1.2 -0.0999999 -1.1
v -1 -0.0999999 -1.1

# faces
f 3/1/1 2/1/1 1/1/1
f 4/1/1 2/1/1 3/1/1
f 7/1/1 6/1/1 5/1/1
f 8/1/1 6/1/1 7/1/1
f 9/2/1 8/2/1 7/2/1
f 10/2/1 8/2/1 9/2/1
f 11/1/1 10/1/1 9/1/1
f 12/1/1 10/1/1 11/1/1
f 13/2/1 12/2/1 11/2/1
f 14/2/1 12/2/1 13/2/1
f 15/1/1 14/1/1 13/1/1
f 16/1/1 14/1/1 15/1/1
f 17/2/2 18/2/2 19/2/2
f 19/2/2 18/2/2 20/2/2
f 23/1/3 22/1/3 21/1/3
f 24/1/3 22/1/3 23/1/3
f 25/1/3 22/1/3 24/1/3
f 26/1/3 22/1/3 25/1/3
f 27/1/3 22/1/3 26/1/3
f 28/1/3 22/1/3 27/1/3
f 29/2/3 24/2/3 23/2/3
f 29/1/3 25/1/3 24/1/3
f 30/2/3 26/2/3 25/2/3
f 30/1/3 25/1/3 29/1/3
f 31/1/3 27/1/3 26/1/3
f 31/2/3 26/2/3 30/2/3
f 32/2/3 28/2/3 27/2/3
f 32/1/3 27/1/3 31/1/3
f 33/2/3 31/2/3 30/2/3
f 33/2/3 29/2/3 23/2/3
f 33/2/3 32/2/3 31/2/3
f 33/2/3 30/2/3 29/2/3
f 34/2/3 28/2/3 32/2/3
f 34/2/3 32/2/3 33/2/3
f 35/1/4 36/1/4 37/1/4
f 37/1/4 36/1/4 38/1/4
f 38/1/4 36/1/4 39/1/4
f 39/1/4 36/1/4 40/1/4
f 40/1/4 36/1/4 41/1/4
f 41/1/4 36/1/4 42/1/4
f 43/1/4 44/1/4 49/1/4
f 44/2/4 45/2/4 50/2/4
f 49/1/4 44/1/4 50/1/4
f 45/1/4 46/1/4 51/1/4
f 50/2/4 45/2/4 51/2/4
f 46/2/4 47/2/4 52/2/4
f 51/1/4 46/1/4 52/1/4
f 47/1/4 48/1/4 53/1/4
f 52/2/4 47/2/4 53/2/4
f 53/1/4 48/1/4 54/1/4
f 51/2/4 52/2/4 55/2/4
f 49/2/4 50/2/4 55/2/4
f 53/2/4 54/2/4 55/2/4
f 52/2/4 53/2/4 55/2/4
f 50/2/4 51/2/4 55/2/4
f 55/2/4 54/2/4 56/2/4
f 60/1/5 58/1/5 57/1/5
f 61/2/5 59/2/5 58/2/5
f 61/1/5 58/1/5 60/1/5
f 62/2/5 59/2/5 61/2/5
f 63/1/5 62/1/5 61/1/5
f 64/2/5 59/2/5 62/2/5
f 64/1/5 62/1/5 63/1/5
f 65/2/5 59/2/5 64/2/5
f 66/1/6 67/1/6 69/1/6
f 67/2/6 68/2/6 69/2/6
f 69/2/6 68/2/6 70/2/6
f 66/1/6 69/1/6 71/1/6
f 69/1/6 70/1/6 71/1/6
f 70/2/6 68/2/6 72/2/6
f 71/1/6 70/1/6 72/1/6
f 66/1/6 71/1/6 73/1/6
f 71/2/6 72/2/6 73/2/6
f 72/2/6 68/2/6 74/2/6
f 73/2/6 72/2/6 74/2/6
f 66/1/6 73/1/6 75/1/6
f 73/1/6 74/1/6 75/1/6
f 74/2/6 68/2/6 76/2/6
f 75/1/6 74/1/6 76/1/6
f 66/1/6 75/1/6 77/1/6
f 75/2/6 76/2/6 78/2/6
f 77/1/6 75/1/6 78/1/6
f 76/2/6 68/2/6 79/2/6
f 78/2/6 76/2/6 79/2/6
f 78/1/6 79/1/6 80/1/6
f 79/2/6 68/2/6 81/2/6
f 80/1/6 79/1/6 81/1/6
f 81/2/6 68/2/6 82/2/6
