# MagicaVoxel @ Ephtracy

# group
o 

# material
mtllib untitled.mtl
usemtl palette

# normals
vn -1 0 0
vn 1 0 0
vn 0 0 1
vn 0 0 -1
vn 0 -1 0
vn 0 1 0

# texcoords
vt 0.138672 0.5
vt 0.841797 0.5
vt 0.958984 0.5
vt 0.962891 0.5

# verts
v -0.6 0.8 0.0999999
v -0.6 0.8 -0.9
v -0.6 0.9 -0.3
v -0.6 0.9 -0.5
v -0.6 1.1 -0.1
v -0.6 1.1 -0.3
v -0.6 1.1 -0.5
v -0.6 1.1 -0.7
v -0.6 1.3 -0.1
v -0.6 1.3 -0.3
v -0.6 1.3 -0.5
v -0.6 1.3 -0.7
v -0.6 1.5 0.0999999
v -0.6 1.5 -0.2
v -0.6 1.5 -0.3
v -0.6 1.5 -0.5
v -0.6 1.5 -0.6
v -0.6 1.5 -0.9
v -0.6 1.6 -0.2
v -0.6 1.6 -0.3
v -0.6 1.6 -0.5
v -0.6 1.6 -0.6
v -0.6 2 -0.3
v -0.6 2 -0.5
v -0.5 1.5 -7.45058e-08
v -0.5 1.5 -0.2
v -0.5 1.5 -0.6
v -0.5 1.5 -0.8
v -0.5 1.6 -7.45058e-08
v -0.5 1.6 -0.2
v -0.5 1.6 -0.6
v -0.5 1.6 -0.8
v -0.2 1.5 0.0999999
v -0.2 1.5 -7.45058e-08
v -0.2 1.5 -0.8
v -0.2 1.5 -0.9
v -0.2 1.6 0.0999999
v -0.2 1.6 -7.45058e-08
v -0.2 1.6 -0.8
v -0.2 1.6 -0.9
v 0.5 1.6 -0.3
v 0.5 1.6 -0.5
v 0.5 1.9 -0.3
v 0.5 1.9 -0.5
v -0.5 1.6 -0.3
v -0.5 1.6 -0.5
v -0.5 1.9 -0.3
v -0.5 1.9 -0.5
v 0.2 1.5 0.0999999
v 0.2 1.5 -7.45058e-08
v 0.2 1.5 -0.8
v 0.2 1.5 -0.9
v 0.2 1.6 0.0999999
v 0.2 1.6 -7.45058e-08
v 0.2 1.6 -0.8
v 0.2 1.6 -0.9
v 0.5 1.5 -7.45058e-08
v 0.5 1.5 -0.2
v 0.5 1.5 -0.6
v 0.5 1.5 -0.8
v 0.5 1.6 -7.45058e-08
v 0.5 1.6 -0.2
v 0.5 1.6 -0.6
v 0.5 1.6 -0.8
v 0.6 0.8 0.0999999
v 0.6 0.8 -0.9
v 0.6 0.9 -0.3
v 0.6 0.9 -0.5
v 0.6 1.1 -0.1
v 0.6 1.1 -0.3
v 0.6 1.1 -0.5
v 0.6 1.1 -0.7
v 0.6 1.3 -0.1
v 0.6 1.3 -0.3
v 0.6 1.3 -0.5
v 0.6 1.3 -0.7
v 0.6 1.5 0.0999999
v 0.6 1.5 -0.2
v 0.6 1.5 -0.3
v 0.6 1.5 -0.5
v 0.6 1.5 -0.6
v 0.6 1.5 -0.9
v 0.6 1.6 -0.2
v 0.6 1.6 -0.3
v 0.6 1.6 -0.5
v 0.6 1.6 -0.6
v 0.6 2 -0.3
v 0.6 2 -0.5
v -0.6 0.8 0.0999999
v -0.6 1.5 0.0999999
v -0.3 1.1 0.0999999
v -0.3 1.3 0.0999999
v -0.2 1.5 0.0999999
v -0.2 1.6 0.0999999
v -0.0999999 0.9 0.0999999
v -0.0999999 1.1 0.0999999
v -0.0999999 1.3 0.0999999
v -0.0999999 1.5 0.0999999
v 0.1 0.9 0.0999999
v 0.1 1.1 0.0999999
v 0.1 1.3 0.0999999
v 0.1 1.5 0.0999999
v 0.2 1.5 0.0999999
v 0.2 1.6 0.0999999
v 0.3 1.1 0.0999999
v 0.3 1.3 0.0999999
v 0.6 0.8 0.0999999
v 0.6 1.5 0.0999999
v -0.5 1.5 -7.45058e-08
v -0.5 1.6 -7.45058e-08
v -0.2 1.5 -7.45058e-08
v -0.2 1.6 -7.45058e-08
v 0.2 1.5 -7.45058e-08
v 0.2 1.6 -7.45058e-08
v 0.5 1.5 -7.45058e-08
v 0.5 1.6 -7.45058e-08
v -0.6 1.5 -0.2
v -0.6 1.6 -0.2
v -0.5 1.5 -0.2
v -0.5 1.6 -0.2
v 0.5 1.5 -0.2
v 0.5 1.6 -0.2
v 0.6 1.5 -0.2
v 0.6 1.6 -0.2
v -0.6 1.6 -0.3
v -0.6 2 -0.3
v -0.5 1.6 -0.3
v -0.5 1.9 -0.3
v 0.5 1.6 -0.3
v 0.5 1.9 -0.3
v 0.6 1.6 -0.3
v 0.6 2 -0.3
v -0.6 1.6 -0.5
v -0.6 2 -0.5
v -0.5 1.6 -0.5
v -0.5 1.9 -0.5
v 0.5 1.6 -0.5
v 0.5 1.9 -0.5
v 0.6 1.6 -0.5
v 0.6 2 -0.5
v -0.6 1.5 -0.6
v -0.6 1.6 -0.6
v -0.5 1.5 -0.6
v -0.5 1.6 -0.6
v 0.5 1.5 -0.6
v 0.5 1.6 -0.6
v 0.6 1.5 -0.6
v 0.6 1.6 -0.6
v -0.5 1.5 -0.8
v -0.5 1.6 -0.8
v -0.2 1.5 -0.8
v -0.2 1.6 -0.8
v 0.2 1.5 -0.8
v 0.2 1.6 -0.8
v 0.5 1.5 -0.8
v 0.5 1.6 -0.8
v -0.6 0.8 -0.9
v -0.6 1.5 -0.9
v -0.3 1.1 -0.9
v -0.3 1.3 -0.9
v -0.2 1.5 -0.9
v -0.2 1.6 -0.9
v -0.0999999 0.9 -0.9
v -0.0999999 1.1 -0.9
v -0.0999999 1.3 -0.9
v -0.0999999 1.5 -0.9
v 0.1 0.9 -0.9
v 0.1 1.1 -0.9
v 0.1 1.3 -0.9
v 0.1 1.5 -0.9
v 0.2 1.5 -0.9
v 0.2 1.6 -0.9
v 0.3 1.1 -0.9
v 0.3 1.3 -0.9
v 0.6 0.8 -0.9
v 0.6 1.5 -0.9
v -0.6 0.8 0.0999999
v 0.6 0.8 0.0999999
v -0.6 0.8 -0.9
v 0.6 0.8 -0.9
v -0.5 1.9 -0.3
v 0.5 1.9 -0.3
v -0.5 1.9 -0.5
v 0.5 1.9 -0.5
v -0.6 1.5 0.0999999
v -0.2 1.5 0.0999999
v 0.2 1.5 0.0999999
v 0.6 1.5 0.0999999
v -0.5 1.5 -7.45058e-08
v -0.2 1.5 -7.45058e-08
v 0.2 1.5 -7.45058e-08
v 0.5 1.5 -7.45058e-08
v -0.6 1.5 -0.2
v -0.5 1.5 -0.2
v 0.5 1.5 -0.2
v 0.6 1.5 -0.2
v -0.6 1.5 -0.6
v -0.5 1.5 -0.6
v 0.5 1.5 -0.6
v 0.6 1.5 -0.6
v -0.5 1.5 -0.8
v -0.2 1.5 -0.8
v 0.2 1.5 -0.8
v 0.5 1.5 -0.8
v -0.6 1.5 -0.9
v -0.2 1.5 -0.9
v 0.2 1.5 -0.9
v 0.6 1.5 -0.9
v -0.2 1.6 0.0999999
v 0.2 1.6 0.0999999
v -0.5 1.6 -7.45058e-08
v -0.2 1.6 -7.45058e-08
v -0.0999999 1.6 -7.45058e-08
v 0.1 1.6 -7.45058e-08
v 0.2 1.6 -7.45058e-08
v 0.5 1.6 -7.45058e-08
v -0.6 1.6 -0.2
v -0.5 1.6 -0.2
v 0.5 1.6 -0.2
v 0.6 1.6 -0.2
v -0.6 1.6 -0.3
v -0.5 1.6 -0.3
v -0.4 1.6 -0.3
v -0.0999999 1.6 -0.3
v 0.1 1.6 -0.3
v 0.4 1.6 -0.3
v 0.5 1.6 -0.3
v 0.6 1.6 -0.3
v -0.6 1.6 -0.5
v -0.5 1.6 -0.5
v -0.4 1.6 -0.5
v -0.0999999 1.6 -0.5
v 0.1 1.6 -0.5
v 0.4 1.6 -0.5
v 0.5 1.6 -0.5
v 0.6 1.6 -0.5
v -0.6 1.6 -0.6
v -0.5 1.6 -0.6
v 0.5 1.6 -0.6
v 0.6 1.6 -0.6
v -0.5 1.6 -0.8
v -0.2 1.6 -0.8
v -0.0999999 1.6 -0.8
v 0.1 1.6 -0.8
v 0.2 1.6 -0.8
v 0.5 1.6 -0.8
v -0.2 1.6 -0.9
v 0.2 1.6 -0.9
v -0.6 2 -0.3
v 0.6 2 -0.3
v -0.6 2 -0.5
v 0.6 2 -0.5

# faces
f 3/3/1 2/3/1 1/3/1
f 4/3/1 2/3/1 3/3/1
f 5/3/1 3/3/1 1/3/1
f 6/2/1 4/2/1 3/2/1
f 6/3/1 3/3/1 5/3/1
f 7/3/1 2/3/1 4/3/1
f 7/2/1 4/2/1 6/2/1
f 8/3/1 2/3/1 7/3/1
f 9/2/1 6/2/1 5/2/1
f 9/3/1 5/3/1 1/3/1
f 9/2/1 8/2/1 7/2/1
f 9/2/1 7/2/1 6/2/1
f 10/2/1 8/2/1 9/2/1
f 11/2/1 8/2/1 10/2/1
f 12/3/1 2/3/1 8/3/1
f 12/2/1 8/2/1 11/2/1
f 13/3/1 9/3/1 1/3/1
f 13/3/1 10/3/1 9/3/1
f 14/3/1 10/3/1 13/3/1
f 15/2/1 11/2/1 10/2/1
f 15/3/1 10/3/1 14/3/1
f 16/3/1 12/3/1 11/3/1
f 16/2/1 11/2/1 15/2/1
f 17/3/1 12/3/1 16/3/1
f 18/3/1 2/3/1 12/3/1
f 18/3/1 12/3/1 17/3/1
f 19/3/1 17/3/1 16/3/1
f 19/3/1 16/3/1 15/3/1
f 19/3/1 15/3/1 14/3/1
f 20/3/1 17/3/1 19/3/1
f 21/3/1 17/3/1 20/3/1
f 22/3/1 17/3/1 21/3/1
f 23/3/1 21/3/1 20/3/1
f 24/3/1 21/3/1 23/3/1
f 29/3/1 26/3/1 25/3/1
f 30/3/1 26/3/1 29/3/1
f 31/3/1 28/3/1 27/3/1
f 32/3/1 28/3/1 31/3/1
f 37/3/1 34/3/1 33/3/1
f 38/3/1 34/3/1 37/3/1
f 39/3/1 36/3/1 35/3/1
f 40/3/1 36/3/1 39/3/1
f 43/3/1 42/3/1 41/3/1
f 44/3/1 42/3/1 43/3/1
f 45/3/2 46/3/2 47/3/2
f 47/3/2 46/3/2 48/3/2
f 49/3/2 50/3/2 53/3/2
f 53/3/2 50/3/2 54/3/2
f 51/3/2 52/3/2 55/3/2
f 55/3/2 52/3/2 56/3/2
f 57/3/2 58/3/2 61/3/2
f 61/3/2 58/3/2 62/3/2
f 59/3/2 60/3/2 63/3/2
f 63/3/2 60/3/2 64/3/2
f 65/3/2 66/3/2 67/3/2
f 67/3/2 66/3/2 68/3/2
f 65/3/2 67/3/2 69/3/2
f 67/2/2 68/2/2 70/2/2
f 69/3/2 67/3/2 70/3/2
f 68/3/2 66/3/2 71/3/2
f 70/2/2 68/2/2 71/2/2
f 71/3/2 66/3/2 72/3/2
f 69/2/2 70/2/2 73/2/2
f 65/3/2 69/3/2 73/3/2
f 71/2/2 72/2/2 73/2/2
f 70/2/2 71/2/2 73/2/2
f 73/2/2 72/2/2 74/2/2
f 74/2/2 72/2/2 75/2/2
f 72/3/2 66/3/2 76/3/2
f 75/2/2 72/2/2 76/2/2
f 65/3/2 73/3/2 77/3/2
f 73/3/2 74/3/2 77/3/2
f 77/3/2 74/3/2 78/3/2
f 74/2/2 75/2/2 79/2/2
f 78/3/2 74/3/2 79/3/2
f 75/3/2 76/3/2 80/3/2
f 79/2/2 75/2/2 80/2/2
f 80/3/2 76/3/2 81/3/2
f 76/3/2 66/3/2 82/3/2
f 81/3/2 76/3/2 82/3/2
f 80/3/2 81/3/2 83/3/2
f 79/3/2 80/3/2 83/3/2
f 78/3/2 79/3/2 83/3/2
f 83/3/2 81/3/2 84/3/2
f 84/3/2 81/3/2 85/3/2
f 85/3/2 81/3/2 86/3/2
f 84/3/2 85/3/2 87/3/2
f 87/3/2 85/3/2 88/3/2
f 91/3/3 90/3/3 89/3/3
f 92/3/3 90/3/3 91/3/3
f 93/3/3 90/3/3 92/3/3
f 95/3/3 91/3/3 89/3/3
f 96/2/3 92/2/3 91/2/3
f 96/3/3 91/3/3 95/3/3
f 97/3/3 94/3/3 93/3/3
f 97/2/3 92/2/3 96/2/3
f 97/3/3 93/3/3 92/3/3
f 98/3/3 94/3/3 97/3/3
f 99/2/3 96/2/3 95/2/3
f 99/3/3 95/3/3 89/3/3
f 99/2/3 98/2/3 97/2/3
f 99/2/3 97/2/3 96/2/3
f 100/2/3 98/2/3 99/2/3
f 101/2/3 98/2/3 100/2/3
f 102/3/3 94/3/3 98/3/3
f 102/2/3 98/2/3 101/2/3
f 103/3/3 102/3/3 101/3/3
f 103/3/3 94/3/3 102/3/3
f 104/3/3 94/3/3 103/3/3
f 105/2/3 101/2/3 100/2/3
f 105/3/3 100/3/3 99/3/3
f 106/3/3 103/3/3 101/3/3
f 106/2/3 101/2/3 105/2/3
f 107/3/3 99/3/3 89/3/3
f 107/3/3 105/3/3 99/3/3
f 107/3/3 106/3/3 105/3/3
f 108/3/3 103/3/3 106/3/3
f 108/3/3 106/3/3 107/3/3
f 111/3/3 110/3/3 109/3/3
f 112/3/3 110/3/3 111/3/3
f 115/3/3 114/3/3 113/3/3
f 116/3/3 114/3/3 115/3/3
f 119/3/3 118/3/3 117/3/3
f 120/3/3 118/3/3 119/3/3
f 123/3/3 122/3/3 121/3/3
f 124/3/3 122/3/3 123/3/3
f 127/3/3 126/3/3 125/3/3
f 128/3/3 126/3/3 127/3/3
f 130/3/3 126/3/3 128/3/3
f 131/3/3 130/3/3 129/3/3
f 132/3/3 126/3/3 130/3/3
f 132/3/3 130/3/3 131/3/3
f 133/3/4 134/3/4 135/3/4
f 135/3/4 134/3/4 136/3/4
f 136/3/4 134/3/4 138/3/4
f 137/3/4 138/3/4 139/3/4
f 138/3/4 134/3/4 140/3/4
f 139/3/4 138/3/4 140/3/4
f 141/3/4 142/3/4 143/3/4
f 143/3/4 142/3/4 144/3/4
f 145/3/4 146/3/4 147/3/4
f 147/3/4 146/3/4 148/3/4
f 149/3/4 150/3/4 151/3/4
f 151/3/4 150/3/4 152/3/4
f 153/3/4 154/3/4 155/3/4
f 155/3/4 154/3/4 156/3/4
f 157/3/4 158/3/4 159/3/4
f 159/3/4 158/3/4 160/3/4
f 160/3/4 158/3/4 161/3/4
f 157/3/4 159/3/4 163/3/4
f 159/2/4 160/2/4 164/2/4
f 163/3/4 159/3/4 164/3/4
f 161/3/4 162/3/4 165/3/4
f 164/2/4 160/2/4 165/2/4
f 160/3/4 161/3/4 165/3/4
f 165/3/4 162/3/4 166/3/4
f 163/2/4 164/2/4 167/2/4
f 157/3/4 163/3/4 167/3/4
f 165/2/4 166/2/4 167/2/4
f 164/2/4 165/2/4 167/2/4
f 167/2/4 166/2/4 168/2/4
f 168/2/4 166/2/4 169/2/4
f 166/3/4 162/3/4 170/3/4
f 169/2/4 166/2/4 170/2/4
f 169/3/4 170/3/4 171/3/4
f 170/3/4 162/3/4 171/3/4
f 171/3/4 162/3/4 172/3/4
f 168/2/4 169/2/4 173/2/4
f 167/3/4 168/3/4 173/3/4
f 169/3/4 171/3/4 174/3/4
f 173/2/4 169/2/4 174/2/4
f 157/3/4 167/3/4 175/3/4
f 167/3/4 173/3/4 175/3/4
f 173/3/4 174/3/4 175/3/4
f 174/3/4 171/3/4 176/3/4
f 175/3/4 174/3/4 176/3/4
f 179/3/5 178/3/5 177/3/5
f 180/3/5 178/3/5 179/3/5
f 183/3/5 182/3/5 181/3/5
f 184/3/5 182/3/5 183/3/5
f 185/3/6 186/3/6 189/3/6
f 189/3/6 186/3/6 190/3/6
f 187/3/6 188/3/6 191/3/6
f 191/3/6 188/3/6 192/3/6
f 185/3/6 189/3/6 193/3/6
f 193/3/6 189/3/6 194/3/6
f 192/3/6 188/3/6 195/3/6
f 195/3/6 188/3/6 196/3/6
f 197/3/6 198/3/6 201/3/6
f 199/3/6 200/3/6 204/3/6
f 201/3/6 202/3/6 205/3/6
f 197/3/6 201/3/6 205/3/6
f 205/3/6 202/3/6 206/3/6
f 203/3/6 204/3/6 207/3/6
f 204/3/6 200/3/6 208/3/6
f 207/3/6 204/3/6 208/3/6
f 209/3/6 210/3/6 212/3/6
f 212/3/6 210/3/6 213/3/6
f 213/3/6 210/3/6 214/3/6
f 214/3/6 210/3/6 215/3/6
f 211/3/6 212/3/6 218/3/6
f 212/3/6 213/3/6 218/3/6
f 215/3/6 216/3/6 219/3/6
f 214/3/6 215/3/6 219/3/6
f 217/3/6 218/3/6 221/3/6
f 218/3/6 213/3/6 222/3/6
f 221/3/6 218/3/6 222/3/6
f 222/3/6 213/3/6 223/3/6
f 213/2/6 214/2/6 224/2/6
f 223/3/6 213/3/6 224/3/6
f 219/3/6 220/3/6 225/3/6
f 224/2/6 214/2/6 225/2/6
f 214/3/6 219/3/6 225/3/6
f 225/3/6 220/3/6 226/3/6
f 226/3/6 220/3/6 227/3/6
f 227/3/6 220/3/6 228/3/6
f 222/3/6 223/3/6 230/3/6
f 223/2/6 224/2/6 231/2/6
f 224/2/6 225/2/6 231/2/6
f 230/3/6 223/3/6 231/3/6
f 225/2/6 226/2/6 231/2/6
f 231/2/6 226/2/6 232/2/6
f 232/2/6 226/2/6 233/2/6
f 226/3/6 227/3/6 234/3/6
f 233/2/6 226/2/6 234/2/6
f 234/3/6 227/3/6 235/3/6
f 229/3/6 230/3/6 237/3/6
f 230/3/6 231/3/6 237/3/6
f 231/3/6 232/3/6 237/3/6
f 237/3/6 232/3/6 238/3/6
f 235/3/6 236/3/6 239/3/6
f 234/3/6 235/3/6 239/3/6
f 233/3/6 234/3/6 239/3/6
f 239/3/6 236/3/6 240/3/6
f 238/3/6 232/3/6 241/3/6
f 241/3/6 232/3/6 242/3/6
f 232/2/6 233/2/6 243/2/6
f 242/3/6 232/3/6 243/3/6
f 233/3/6 239/3/6 244/3/6
f 243/2/6 233/2/6 244/2/6
f 244/3/6 239/3/6 245/3/6
f 245/3/6 239/3/6 246/3/6
f 242/3/6 243/3/6 247/3/6
f 244/3/6 245/3/6 247/3/6
f 243/3/6 244/3/6 247/3/6
f 247/3/6 245/3/6 248/3/6
f 249/3/6 250/3/6 251/3/6
f 251/3/6 250/3/6 252/3/6
